<?xml version="1.0" encoding="UTF-8" standalone="no"?>
<svg width="32px" height="32px" viewBox="0 0 32 32" version="1.1" xmlns="http://www.w3.org/2000/svg" xmlns:xlink="http://www.w3.org/1999/xlink" xmlns:sketch="http://www.bohemiancoding.com/sketch/ns">
    <!-- Generator: Sketch 3.4.3 (16044) - http://www.bohemiancoding.com/sketch -->
    <title>favicon-32x32</title>
    <desc>Created with Sketch.</desc>
    <defs></defs>
    <g id="Page-1" stroke="none" stroke-width="1" fill="none" fill-rule="evenodd" sketch:type="MSPage">
        <g id="favicon-32x32" sketch:type="MSLayerGroup">
            <rect id="Rectangle-9" stroke="#3F3F3F" fill="#F2F2F2" sketch:type="MSShapeGroup" x="0" y="0" width="32" height="32" rx="4"></rect>
            <g id="logo-icon" transform="translate(3.000000, 3.000000)" sketch:type="MSShapeGroup">
                <rect id="Rectangle-11" fill="#CD9987" x="3.93661972" y="1.81818182" width="8.97183099" height="4"></rect>
                <path d="M20.4652582,3.81818182 L12.7751174,7.63636364 L12.7751174,0 L20.4652582,3.81818182 L20.4652582,3.81818182 Z" id="Triangle-1" fill="#CD9987"></path>
                <rect id="Rectangle-11" fill="#9DB2A7" transform="translate(17.535681, 22.181818) scale(-1, 1) translate(-17.535681, -22.181818) " x="13.0497653" y="20.1818182" width="8.97183099" height="4"></rect>
                <path d="M5.49295775,22.1818182 L13.1830986,26 L13.1830986,18.3636364 L5.49295775,22.1818182 L5.49295775,22.1818182 Z" id="Triangle-1" fill="#9DB2A7"></path>
                <path d="M24.0774648,3.89332633 L24.0774648,12.8024172 L20.0492958,12.8024172 L20.0492958,3.89332633 L24.0774648,3.89332633 L24.0774648,3.89332633 Z" id="Rectangle-11" fill="#CD9987"></path>
                <path d="M22.1334727,20.2926136 L18.2884023,12.65625 L25.9785431,12.65625 L22.1334727,20.2926136 L22.1334727,20.2926136 Z" id="Triangle-1" fill="#CD9987"></path>
                <path d="M1.83098592,13.2727273 L1.83098592,22.1818182 L5.85915493,22.1818182 L5.85915493,13.2727273 L1.83098592,13.2727273 L1.83098592,13.2727273 Z" id="Rectangle-11" fill="#9DB2A7"></path>
                <path d="M3.84507042,5.7690167 L0,13.4053803 L7.69014085,13.4053803 L3.84507042,5.7690167 L3.84507042,5.7690167 Z" id="Triangle-1" fill="#9DB2A7"></path>
            </g>
        </g>
    </g>
</svg>