<?xml version="1.0" encoding="UTF-8" standalone="no"?>
<svg width="64px" height="64px" viewBox="0 0 64 64" version="1.1" xmlns="http://www.w3.org/2000/svg" xmlns:xlink="http://www.w3.org/1999/xlink" xmlns:sketch="http://www.bohemiancoding.com/sketch/ns">
    <!-- Generator: Sketch 3.4.3 (16044) - http://www.bohemiancoding.com/sketch -->
    <title>favicon-64x64</title>
    <desc>Created with Sketch.</desc>
    <defs></defs>
    <g id="Page-1" stroke="none" stroke-width="1" fill="none" fill-rule="evenodd" sketch:type="MSPage">
        <g id="favicon-64x64" sketch:type="MSLayerGroup">
            <rect id="Rectangle-9" stroke="#3F3F3F" fill="#F2F2F2" sketch:type="MSShapeGroup" x="0" y="0" width="64" height="64" rx="8"></rect>
            <g id="logo-icon" transform="translate(6.000000, 6.000000)" sketch:type="MSShapeGroup">
                <rect id="Rectangle-11" fill="#CD9987" x="7.87323944" y="3.63636364" width="17.943662" height="8"></rect>
                <path d="M40.9305164,7.63636364 L25.5502347,15.2727273 L25.5502347,0 L40.9305164,7.63636364 L40.9305164,7.63636364 Z" id="Triangle-1" fill="#CD9987"></path>
                <rect id="Rectangle-11" fill="#9DB2A7" transform="translate(35.071362, 44.363636) scale(-1, 1) translate(-35.071362, -44.363636) " x="26.0995305" y="40.3636364" width="17.943662" height="8"></rect>
                <path d="M10.9859155,44.3636364 L26.3661972,52 L26.3661972,36.7272727 L10.9859155,44.3636364 L10.9859155,44.3636364 Z" id="Triangle-1" fill="#9DB2A7"></path>
                <path d="M48.1549296,7.78665265 L48.1549296,25.6048345 L40.0985915,25.6048345 L40.0985915,7.78665265 L48.1549296,7.78665265 L48.1549296,7.78665265 Z" id="Rectangle-11" fill="#CD9987"></path>
                <path d="M44.2669454,40.5852273 L36.5768046,25.3125 L51.9570863,25.3125 L44.2669454,40.5852273 L44.2669454,40.5852273 Z" id="Triangle-1" fill="#CD9987"></path>
                <path d="M3.66197183,26.5454545 L3.66197183,44.3636364 L11.7183099,44.3636364 L11.7183099,26.5454545 L3.66197183,26.5454545 L3.66197183,26.5454545 Z" id="Rectangle-11" fill="#9DB2A7"></path>
                <path d="M7.69014085,11.5380334 L0,26.8107607 L15.3802817,26.8107607 L7.69014085,11.5380334 L7.69014085,11.5380334 Z" id="Triangle-1" fill="#9DB2A7"></path>
            </g>
        </g>
    </g>
</svg>