<?xml version="1.0" encoding="UTF-8" standalone="no"?>
<svg width="16px" height="16px" viewBox="0 0 16 16" version="1.1" xmlns="http://www.w3.org/2000/svg" xmlns:xlink="http://www.w3.org/1999/xlink" xmlns:sketch="http://www.bohemiancoding.com/sketch/ns">
    <!-- Generator: Sketch 3.4.3 (16044) - http://www.bohemiancoding.com/sketch -->
    <title>favicon-16x16</title>
    <desc>Created with Sketch.</desc>
    <defs></defs>
    <g id="Page-1" stroke="none" stroke-width="1" fill="none" fill-rule="evenodd" sketch:type="MSPage">
        <g id="favicon-16x16" sketch:type="MSLayerGroup">
            <rect id="Rectangle-9" stroke="#3F3F3F" fill="#F2F2F2" sketch:type="MSShapeGroup" x="0" y="0" width="16" height="16" rx="2"></rect>
            <g id="logo-icon" transform="translate(1.500000, 1.500000)" sketch:type="MSShapeGroup">
                <rect id="Rectangle-11" fill="#CD9987" x="1.96830986" y="0.909090909" width="4.48591549" height="2"></rect>
                <path d="M10.2326291,1.90909091 L6.38755869,3.81818182 L6.38755869,0 L10.2326291,1.90909091 L10.2326291,1.90909091 Z" id="Triangle-1" fill="#CD9987"></path>
                <rect id="Rectangle-11" fill="#9DB2A7" transform="translate(8.767840, 11.090909) scale(-1, 1) translate(-8.767840, -11.090909) " x="6.52488263" y="10.0909091" width="4.48591549" height="2"></rect>
                <path d="M2.74647887,11.0909091 L6.5915493,13 L6.5915493,9.18181818 L2.74647887,11.0909091 L2.74647887,11.0909091 Z" id="Triangle-1" fill="#9DB2A7"></path>
                <path d="M12.0387324,1.94666316 L12.0387324,6.40120862 L10.0246479,6.40120862 L10.0246479,1.94666316 L12.0387324,1.94666316 L12.0387324,1.94666316 Z" id="Rectangle-11" fill="#CD9987"></path>
                <path d="M11.0667364,10.1463068 L9.14420114,6.328125 L12.9892716,6.328125 L11.0667364,10.1463068 L11.0667364,10.1463068 Z" id="Triangle-1" fill="#CD9987"></path>
                <path d="M0.915492958,6.63636364 L0.915492958,11.0909091 L2.92957746,11.0909091 L2.92957746,6.63636364 L0.915492958,6.63636364 L0.915492958,6.63636364 Z" id="Rectangle-11" fill="#9DB2A7"></path>
                <path d="M1.92253521,2.88450835 L0,6.70269017 L3.84507042,6.70269017 L1.92253521,2.88450835 L1.92253521,2.88450835 Z" id="Triangle-1" fill="#9DB2A7"></path>
            </g>
        </g>
    </g>
</svg>