<?xml version="1.0" encoding="UTF-8" standalone="no"?>
<svg width="202px" height="44px" viewBox="0 0 202 44" version="1.1" xmlns="http://www.w3.org/2000/svg" xmlns:xlink="http://www.w3.org/1999/xlink" xmlns:sketch="http://www.bohemiancoding.com/sketch/ns">
    <!-- Generator: Sketch 3.4.2 (15857) - http://www.bohemiancoding.com/sketch -->
    <title>Group</title>
    <desc>Created with Sketch.</desc>
    <defs></defs>
    <g id="Page-1" stroke="none" stroke-width="1" fill="none" fill-rule="evenodd" sketch:type="MSPage">
        <g id="Group" sketch:type="MSLayerGroup" transform="translate(2.000000, 0.000000)">
            <g sketch:type="MSShapeGroup">
                <path d="M0,5.05747126 L19.118787,20.6032687 L39.3207776,5.19181034 L65.6641604,21.3045977" id="Path-1" stroke="#7F7F7F" stroke-width="5" fill="#CD9987" transform="translate(32.832080, 13.181034) scale(1, -1) translate(-32.832080, -13.181034) "></path>
                <path d="M0,21.7471264 L19.118787,37.2929239 L39.3207776,21.8814655 L65.6641604,37.9942529" id="Path-1" stroke="#7F7F7F" stroke-width="5" fill="#9DB2A7"></path>
                <path d="M80.4571429,0.00809195402 L82.1894737,0.00809195402 L82.1894737,7.46078161 L91.4766917,7.46078161 L91.4766917,0.00809195402 L93.2090226,0.00809195402 L93.2090226,17.1954023 L91.4766917,17.1954023 L91.4766917,9.06298851 L82.1894737,9.06298851 L82.1894737,17.1954023 L80.4571429,17.1954023 L80.4571429,0.00809195402 Z M106.225564,10.6409195 C106.177443,9.57277627 105.836595,8.68671616 105.203008,7.98271264 C104.56942,7.27870912 103.667174,6.92671264 102.496241,6.92671264 C101.950874,6.92671264 101.445616,7.02786106 100.980451,7.23016092 C100.515286,7.43246078 100.106267,7.70758447 99.7533835,8.05554023 C99.4004995,8.40349599 99.1198005,8.79999777 98.9112782,9.24505747 C98.7027558,9.69011717 98.5824563,10.1553999 98.5503759,10.6409195 L106.225564,10.6409195 Z M107.885714,11.1749885 L107.885714,11.5391264 C107.885714,11.6685983 107.877694,11.8061602 107.861654,11.9518161 L98.5263158,11.9518161 C98.542356,12.5182557 98.6546355,13.0523193 98.8631579,13.554023 C99.0716802,14.0557266 99.3603992,14.4926878 99.7293233,14.8649195 C100.098247,15.2371513 100.531326,15.5325047 101.028571,15.7509885 C101.525817,15.9694724 102.063155,16.0787126 102.640602,16.0787126 C103.490731,16.0787126 104.224558,15.8804618 104.842105,15.483954 C105.459652,15.0874463 105.92882,14.6302555 106.249624,14.1123678 L107.476692,15.0834023 C106.803004,15.9411537 106.061157,16.5561361 105.251128,16.9283678 C104.441099,17.3005996 103.570932,17.4867126 102.640602,17.4867126 C101.806512,17.4867126 101.032585,17.337013 100.318797,17.0376092 C99.605009,16.7382054 98.9914813,16.3214739 98.4781955,15.7874023 C97.9649097,15.2533307 97.5599012,14.6221646 97.2631579,13.8938851 C96.9664146,13.1656056 96.8180451,12.372602 96.8180451,11.5148506 C96.8180451,10.6570992 96.9624046,9.8640956 97.2511278,9.13581609 C97.5398511,8.40753659 97.9408496,7.77637049 98.4541353,7.24229885 C98.9674211,6.70822721 99.5689189,6.29149575 100.258647,5.99209195 C100.948374,5.69268816 101.694232,5.54298851 102.496241,5.54298851 C103.378451,5.54298851 104.156388,5.69268816 104.830075,5.99209195 C105.503763,6.29149575 106.065161,6.69608941 106.514286,7.20588506 C106.963411,7.71568071 107.304259,8.31043338 107.536842,8.99016092 C107.769425,9.66988846 107.885714,10.398157 107.885714,11.1749885 L107.885714,11.1749885 Z M118.35188,9.86409195 C118.35188,8.87686863 118.095241,8.14050817 117.581955,7.65498851 C117.068669,7.16946884 116.322812,6.92671264 115.344361,6.92671264 C114.670673,6.92671264 114.045116,7.04809074 113.467669,7.29085057 C112.890223,7.53361041 112.401005,7.85728533 112,8.26188506 L111.085714,7.16947126 C111.55088,6.70013558 112.164407,6.31172568 112.926316,6.00422989 C113.688224,5.69673409 114.550371,5.54298851 115.512782,5.54298851 C116.122309,5.54298851 116.691727,5.62795317 117.221053,5.79788506 C117.750379,5.96781694 118.215537,6.22271094 118.616541,6.56257471 C119.017546,6.90243848 119.330325,7.33130776 119.554887,7.8491954 C119.77945,8.36708305 119.891729,8.97397353 119.891729,9.66988506 L119.891729,14.6464368 C119.891729,15.0834045 119.907769,15.5365494 119.93985,16.0058851 C119.97193,16.4752207 120.02005,16.8717225 120.084211,17.1954023 L118.616541,17.1954023 C118.568421,16.9202745 118.528321,16.6208752 118.496241,16.2971954 C118.46416,15.9735156 118.44812,15.6579326 118.44812,15.3504368 L118.4,15.3504368 C117.886714,16.1110843 117.305266,16.6572857 116.655639,16.9890575 C116.006012,17.3208292 115.224065,17.4867126 114.309774,17.4867126 C113.87669,17.4867126 113.431581,17.4260236 112.974436,17.3046437 C112.517291,17.1832638 112.100253,16.9850129 111.723308,16.7098851 C111.346364,16.4347572 111.033585,16.0787148 110.784962,15.6417471 C110.53634,15.2047794 110.41203,14.6707158 110.41203,14.0395402 C110.41203,13.1656048 110.632579,12.4737497 111.073684,11.963954 C111.514789,11.4541584 112.104257,11.0738403 112.842105,10.8229885 C113.579954,10.5721367 114.42606,10.4102992 115.380451,10.3374713 C116.334842,10.2646433 117.325308,10.2282299 118.35188,10.2282299 L118.35188,9.86409195 Z M117.870677,11.5148506 C117.196989,11.5148506 116.519302,11.5431721 115.837594,11.5998161 C115.155886,11.6564601 114.538349,11.7697463 113.984962,11.9396782 C113.431576,12.10961 112.978448,12.3564122 112.625564,12.680092 C112.27268,13.0037717 112.096241,13.432641 112.096241,13.9667126 C112.096241,14.3713124 112.17243,14.711171 112.324812,14.9862989 C112.477194,15.2614267 112.681703,15.4839532 112.938346,15.6538851 C113.194989,15.8238169 113.479698,15.945195 113.792481,16.018023 C114.105265,16.0908509 114.422054,16.1272644 114.742857,16.1272644 C115.320304,16.1272644 115.833582,16.026116 116.282707,15.8238161 C116.731832,15.6215162 117.10877,15.3463925 117.413534,14.9984368 C117.718297,14.650481 117.950876,14.2499333 118.111278,13.7967816 C118.27168,13.3436299 118.35188,12.8662094 118.35188,12.3645057 L118.35188,11.5148506 L117.870677,11.5148506 Z M128.938346,7.21802299 L125.762406,7.21802299 L125.762406,13.8453333 C125.762406,14.266117 125.802506,14.6140676 125.882707,14.8891954 C125.962908,15.1643232 126.079197,15.3787579 126.231579,15.5325057 C126.383961,15.6862536 126.56441,15.791448 126.772932,15.848092 C126.981455,15.9047359 127.206014,15.9330575 127.446617,15.9330575 C127.671179,15.9330575 127.907768,15.90069 128.156391,15.835954 C128.405014,15.7712181 128.641603,15.6822075 128.866165,15.5689195 L128.938346,17.0011954 C128.649623,17.1144833 128.348874,17.199448 128.03609,17.256092 C127.723307,17.3127359 127.382458,17.3410575 127.013534,17.3410575 C126.70877,17.3410575 126.387972,17.3005981 126.051128,17.2196782 C125.714284,17.1387582 125.401505,16.9850126 125.112782,16.7584368 C124.824059,16.5318609 124.58747,16.2243698 124.403008,15.835954 C124.218545,15.4475383 124.126316,14.9377503 124.126316,14.3065747 L124.126316,7.21802299 L121.792481,7.21802299 L121.792481,5.83429885 L124.126316,5.83429885 L124.126316,2.62988506 L125.762406,2.62988506 L125.762406,5.83429885 L128.938346,5.83429885 L128.938346,7.21802299 Z M139.13985,23.0216092 L137.503759,23.0216092 L137.503759,5.83429885 L139.13985,5.83429885 L139.13985,7.80064368 L139.21203,7.80064368 C139.677195,7.05618019 140.298743,6.49379501 141.076692,6.11347126 C141.85464,5.73314752 142.644608,5.54298851 143.446617,5.54298851 C144.328826,5.54298851 145.126813,5.69673409 145.840602,6.00422989 C146.55439,6.31172568 147.163907,6.73250308 147.669173,7.26657471 C148.174439,7.80064635 148.567417,8.43181245 148.84812,9.16009195 C149.128823,9.88837146 149.269173,10.6732831 149.269173,11.5148506 C149.269173,12.356418 149.128823,13.1413297 148.84812,13.8696092 C148.567417,14.5978887 148.174439,15.2290548 147.669173,15.7631264 C147.163907,16.2971981 146.55439,16.7179755 145.840602,17.0254713 C145.126813,17.3329671 144.328826,17.4867126 143.446617,17.4867126 C142.644608,17.4867126 141.85464,17.2965536 141.076692,16.9162299 C140.298743,16.5359061 139.677195,15.9897047 139.21203,15.2776092 L139.13985,15.2776092 L139.13985,23.0216092 Z M147.536842,11.5148506 C147.536842,10.883675 147.440602,10.2889223 147.24812,9.73057471 C147.055638,9.17222709 146.778949,8.68671471 146.418045,8.27402299 C146.057141,7.86133127 145.612033,7.53361041 145.082707,7.29085057 C144.553381,7.04809074 143.951883,6.92671264 143.278195,6.92671264 C142.652628,6.92671264 142.075191,7.0440448 141.545865,7.27871264 C141.016539,7.51338048 140.5594,7.83705541 140.174436,8.24974713 C139.789472,8.66243885 139.488723,9.14795123 139.27218,9.70629885 C139.055638,10.2646465 138.947368,10.867491 138.947368,11.5148506 C138.947368,12.1622101 139.055638,12.7650547 139.27218,13.3234023 C139.488723,13.8817499 139.789472,14.3632164 140.174436,14.7678161 C140.5594,15.1724158 141.016539,15.4920448 141.545865,15.7267126 C142.075191,15.9613805 142.652628,16.0787126 143.278195,16.0787126 C143.951883,16.0787126 144.553381,15.9613805 145.082707,15.7267126 C145.612033,15.4920448 146.057141,15.1683699 146.418045,14.7556782 C146.778949,14.3429864 147.055638,13.8574741 147.24812,13.2991264 C147.440602,12.7407788 147.536842,12.1460261 147.536842,11.5148506 L147.536842,11.5148506 Z M160.962406,17.1954023 C160.930326,16.8879065 160.906266,16.5480478 160.890226,16.1758161 C160.874185,15.8035843 160.866165,15.4960932 160.866165,15.2533333 L160.818045,15.2533333 C160.497242,15.9168769 159.975943,16.4549864 159.254135,16.8676782 C158.532327,17.2803699 157.77043,17.4867126 156.968421,17.4867126 C155.540845,17.4867126 154.470179,17.0578434 153.756391,16.200092 C153.042603,15.3423405 152.685714,14.2094783 152.685714,12.8014713 L152.685714,5.83429885 L154.321805,5.83429885 L154.321805,12.1217471 C154.321805,12.7205547 154.369924,13.2627102 154.466165,13.7482299 C154.562406,14.2337496 154.726816,14.650481 154.959398,14.9984368 C155.191981,15.3463925 155.50476,15.6174703 155.897744,15.8116782 C156.290729,16.005886 156.783957,16.1029885 157.377444,16.1029885 C157.810528,16.1029885 158.231577,16.0139779 158.640602,15.835954 C159.049626,15.6579301 159.414535,15.3868524 159.735338,15.0227126 C160.056142,14.6585729 160.312781,14.1973361 160.505263,13.6389885 C160.697745,13.0806409 160.793985,12.4211532 160.793985,11.6605057 L160.793985,5.83429885 L162.430075,5.83429885 L162.430075,14.6949885 C162.430075,15.0024843 162.438095,15.3989861 162.454135,15.8845057 C162.470176,16.3700254 162.494235,16.8069866 162.526316,17.1954023 L160.962406,17.1954023 Z M168.372932,7.77636782 C168.693736,7.11282427 169.186964,6.57471471 169.852632,6.16202299 C170.518299,5.74933127 171.260146,5.54298851 172.078195,5.54298851 C172.382959,5.54298851 172.699748,5.575356 173.028571,5.64009195 C173.357395,5.70482791 173.678194,5.83025194 173.990977,6.01636782 C174.303761,6.20248369 174.59248,6.44928582 174.857143,6.75678161 C175.121806,7.0642774 175.350375,7.46077918 175.542857,7.94629885 C175.927821,7.16946738 176.45313,6.57471471 177.118797,6.16202299 C177.784464,5.74933127 178.574432,5.54298851 179.488722,5.54298851 C180.916298,5.54298851 181.986964,5.97185778 182.700752,6.8296092 C183.41454,7.68736061 183.771429,8.82022285 183.771429,10.2282299 L183.771429,17.1954023 L182.135338,17.1954023 L182.135338,10.907954 C182.135338,9.71033884 181.914789,8.74740594 181.473684,8.01912644 C181.032579,7.29084693 180.282712,6.92671264 179.22406,6.92671264 C178.630573,6.92671264 178.129325,7.04809074 177.720301,7.29085057 C177.311276,7.53361041 176.982457,7.8532394 176.733835,8.24974713 C176.485212,8.64625486 176.304762,9.09535381 176.192481,9.59705747 C176.0802,10.0987611 176.02406,10.616641 176.02406,11.1507126 L176.02406,17.1954023 L174.38797,17.1954023 L174.38797,10.568092 C174.38797,10.0178363 174.34787,9.5161402 174.267669,9.06298851 C174.187468,8.60983681 174.047119,8.22547284 173.846617,7.90988506 C173.646114,7.59429727 173.369425,7.35154108 173.016541,7.1816092 C172.663657,7.01167731 172.214539,6.92671264 171.669173,6.92671264 C171.284209,6.92671264 170.89524,7.01572325 170.502256,7.19374713 C170.109271,7.37177101 169.756393,7.64284875 169.443609,8.00698851 C169.130826,8.37112826 168.878196,8.83236502 168.685714,9.39071264 C168.493232,9.94906026 168.396992,10.6085479 168.396992,11.3691954 L168.396992,17.1954023 L166.760902,17.1954023 L166.760902,8.33471264 C166.760902,8.02721685 166.752882,7.63071507 166.736842,7.1451954 C166.720802,6.65967573 166.696742,6.22271459 166.664662,5.83429885 L168.228571,5.83429885 C168.260652,6.14179464 168.284712,6.48165331 168.300752,6.85388506 C168.316792,7.2261168 168.324812,7.53360798 168.324812,7.77636782 L168.372932,7.77636782 Z M189.642105,23.0216092 L188.006015,23.0216092 L188.006015,5.83429885 L189.642105,5.83429885 L189.642105,7.80064368 L189.714286,7.80064368 C190.179451,7.05618019 190.800999,6.49379501 191.578947,6.11347126 C192.356896,5.73314752 193.146863,5.54298851 193.948872,5.54298851 C194.831082,5.54298851 195.629069,5.69673409 196.342857,6.00422989 C197.056645,6.31172568 197.666163,6.73250308 198.171429,7.26657471 C198.676694,7.80064635 199.069673,8.43181245 199.350376,9.16009195 C199.631079,9.88837146 199.771429,10.6732831 199.771429,11.5148506 C199.771429,12.356418 199.631079,13.1413297 199.350376,13.8696092 C199.069673,14.5978887 198.676694,15.2290548 198.171429,15.7631264 C197.666163,16.2971981 197.056645,16.7179755 196.342857,17.0254713 C195.629069,17.3329671 194.831082,17.4867126 193.948872,17.4867126 C193.146863,17.4867126 192.356896,17.2965536 191.578947,16.9162299 C190.800999,16.5359061 190.179451,15.9897047 189.714286,15.2776092 L189.642105,15.2776092 L189.642105,23.0216092 Z M198.039098,11.5148506 C198.039098,10.883675 197.942858,10.2889223 197.750376,9.73057471 C197.557894,9.17222709 197.281205,8.68671471 196.920301,8.27402299 C196.559397,7.86133127 196.114288,7.53361041 195.584962,7.29085057 C195.055636,7.04809074 194.454139,6.92671264 193.780451,6.92671264 C193.154884,6.92671264 192.577446,7.0440448 192.04812,7.27871264 C191.518794,7.51338048 191.061656,7.83705541 190.676692,8.24974713 C190.291727,8.66243885 189.990979,9.14795123 189.774436,9.70629885 C189.557894,10.2646465 189.449624,10.867491 189.449624,11.5148506 C189.449624,12.1622101 189.557894,12.7650547 189.774436,13.3234023 C189.990979,13.8817499 190.291727,14.3632164 190.676692,14.7678161 C191.061656,15.1724158 191.518794,15.4920448 192.04812,15.7267126 C192.577446,15.9613805 193.154884,16.0787126 193.780451,16.0787126 C194.454139,16.0787126 195.055636,15.9613805 195.584962,15.7267126 C196.114288,15.4920448 196.559397,15.1683699 196.920301,14.7556782 C197.281205,14.3429864 197.557894,13.8574741 197.750376,13.2991264 C197.942858,12.7407788 198.039098,12.1460261 198.039098,11.5148506 L198.039098,11.5148506 Z M94.7969925,40.7268046 C94.5082692,41.1637723 94.1594005,41.5764578 93.7503759,41.9648736 C93.3413513,42.3532893 92.8681731,42.693148 92.3308271,42.9844598 C91.793481,43.2757716 91.2000032,43.50639 90.5503759,43.6763218 C89.9007486,43.8462537 89.1909813,43.9312184 88.4210526,43.9312184 C87.1378382,43.9312184 85.9508826,43.7046459 84.8601504,43.2514943 C83.7694181,42.7983426 82.8310816,42.1712224 82.0451128,41.3701149 C81.2591439,40.5690075 80.6456162,39.6182124 80.2045113,38.5177011 C79.7634063,37.4171899 79.5428571,36.2115008 79.5428571,34.9005977 C79.5428571,33.5896946 79.7674163,32.3840055 80.2165414,31.2834943 C80.6656664,30.182983 81.2872141,29.2321879 82.081203,28.4310805 C82.8751919,27.629973 83.8135284,27.0028528 84.8962406,26.5497011 C85.9789528,26.0965495 87.1538784,25.869977 88.4210526,25.869977 C89.0466197,25.869977 89.6601474,25.934712 90.2616541,26.0641839 C90.8631609,26.1936558 91.4285688,26.375723 91.9578947,26.6103908 C92.4872207,26.8450586 92.9684189,27.1282742 93.4015038,27.460046 C93.8345886,27.7918178 94.1954873,28.1680899 94.4842105,28.5888736 L93.0406015,29.6570115 C92.8641595,29.3818837 92.6275704,29.10676 92.3308271,28.8316322 C92.0340837,28.5565044 91.685215,28.3137482 91.2842105,28.1033563 C90.883206,27.8929645 90.4461177,27.7230351 89.9729323,27.5935632 C89.499747,27.4640913 88.9904789,27.3993563 88.4451128,27.3993563 C87.3383403,27.3993563 86.347874,27.6016531 85.4736842,28.0062529 C84.5994944,28.4108526 83.8576472,28.957054 83.2481203,29.6448736 C82.6385934,30.3326931 82.1734352,31.1297426 81.8526316,32.036046 C81.531828,32.9423494 81.3714286,33.8971904 81.3714286,34.9005977 C81.3714286,35.904005 81.535838,36.858846 81.8646617,37.7651494 C82.1934854,38.6714528 82.6626536,39.4685023 83.2721805,40.1563218 C83.8817073,40.8441414 84.6235545,41.3903428 85.4977444,41.7949425 C86.3719342,42.1995423 87.3543805,42.4018391 88.4451128,42.4018391 C89.4235638,42.4018391 90.3538803,42.1995423 91.2360902,41.7949425 C92.1183002,41.3903428 92.8561374,40.742993 93.4496241,39.8528736 L94.7969925,40.7268046 Z M108.583459,37.8137011 C108.583459,38.6714526 108.435089,39.4644561 108.138346,40.1927356 C107.841603,40.9210151 107.428574,41.5521812 106.899248,42.0862529 C106.369922,42.6203245 105.736345,43.037056 104.998496,43.3364598 C104.260648,43.6358636 103.450631,43.7855632 102.568421,43.7855632 C101.702251,43.7855632 100.900254,43.6358636 100.162406,43.3364598 C99.4245577,43.037056 98.7909801,42.6203245 98.2616541,42.0862529 C97.7323282,41.5521812 97.3192997,40.9210151 97.0225564,40.1927356 C96.7258131,39.4644561 96.5774436,38.6714526 96.5774436,37.8137011 C96.5774436,36.9559497 96.7258131,36.1629462 97.0225564,35.4346667 C97.3192997,34.7063872 97.7323282,34.0752211 98.2616541,33.5411494 C98.7909801,33.0070778 99.4245577,32.5903463 100.162406,32.2909425 C100.900254,31.9915387 101.702251,31.8418391 102.568421,31.8418391 C103.450631,31.8418391 104.260648,31.9915387 104.998496,32.2909425 C105.736345,32.5903463 106.369922,33.0070778 106.899248,33.5411494 C107.428574,34.0752211 107.841603,34.7063872 108.138346,35.4346667 C108.435089,36.1629462 108.583459,36.9559497 108.583459,37.8137011 L108.583459,37.8137011 Z M106.851128,37.8137011 C106.851128,37.1825256 106.750878,36.5877729 106.550376,36.0294253 C106.349874,35.4710777 106.065165,34.9855653 105.696241,34.5728736 C105.327316,34.1601818 104.878198,33.832461 104.348872,33.5897011 C103.819546,33.3469413 103.226068,33.2255632 102.568421,33.2255632 C101.910774,33.2255632 101.321306,33.3469413 100.8,33.5897011 C100.278694,33.832461 99.8335858,34.1601818 99.4646617,34.5728736 C99.0957375,34.9855653 98.8110286,35.4710777 98.6105263,36.0294253 C98.4100241,36.5877729 98.3097744,37.1825256 98.3097744,37.8137011 C98.3097744,38.4448767 98.4100241,39.0396294 98.6105263,39.597977 C98.8110286,40.1563246 99.0957375,40.641837 99.4646617,41.0545287 C99.8335858,41.4672205 100.278694,41.7908954 100.8,42.0255632 C101.321306,42.2602311 101.910774,42.3775632 102.568421,42.3775632 C103.226068,42.3775632 103.819546,42.2602311 104.348872,42.0255632 C104.878198,41.7908954 105.327316,41.4672205 105.696241,41.0545287 C106.065165,40.641837 106.349874,40.1563246 106.550376,39.597977 C106.750878,39.0396294 106.851128,38.4448767 106.851128,37.8137011 L106.851128,37.8137011 Z M113.56391,32.1331494 C113.59599,32.4406452 113.62005,32.7805039 113.63609,33.1527356 C113.65213,33.5249674 113.66015,33.8324586 113.66015,34.0752184 L113.708271,34.0752184 C114.029074,33.4116748 114.550372,32.8735653 115.27218,32.4608736 C115.993989,32.0481818 116.755886,31.8418391 117.557895,31.8418391 C118.985471,31.8418391 120.056137,32.2707084 120.769925,33.1284598 C121.483713,33.9862112 121.840602,35.1190734 121.840602,36.5270805 L121.840602,43.4942529 L120.204511,43.4942529 L120.204511,37.2068046 C120.204511,36.607997 120.156391,36.0658415 120.06015,35.5803218 C119.963909,35.0948022 119.7995,34.6780707 119.566917,34.3301149 C119.334335,33.9821592 119.021556,33.7110814 118.628571,33.5168736 C118.235587,33.3226657 117.742359,33.2255632 117.148872,33.2255632 C116.715787,33.2255632 116.294739,33.3145738 115.885714,33.4925977 C115.47669,33.6706216 115.111781,33.9416993 114.790977,34.3058391 C114.470174,34.6699788 114.213535,35.1312156 114.021053,35.6895632 C113.82857,36.2479108 113.732331,36.9073985 113.732331,37.668046 L113.732331,43.4942529 L112.096241,43.4942529 L112.096241,34.6335632 C112.096241,34.3260674 112.088221,33.9295656 112.07218,33.444046 C112.05614,32.9585263 112.03208,32.5215652 112,32.1331494 L113.56391,32.1331494 Z M131.15188,33.5168736 L127.97594,33.5168736 L127.97594,40.1441839 C127.97594,40.5649676 128.01604,40.9129182 128.096241,41.188046 C128.176442,41.4631738 128.292731,41.6776084 128.445113,41.8313563 C128.597494,41.9851042 128.777944,42.0902986 128.986466,42.1469425 C129.194989,42.2035865 129.419548,42.231908 129.66015,42.231908 C129.884713,42.231908 130.121302,42.1995406 130.369925,42.1348046 C130.618548,42.0700686 130.855137,41.981058 131.079699,41.8677701 L131.15188,43.300046 C130.863156,43.4133339 130.562408,43.4982986 130.249624,43.5549425 C129.936841,43.6115865 129.595992,43.639908 129.227068,43.639908 C128.922304,43.639908 128.601505,43.5994487 128.264662,43.5185287 C127.927818,43.4376088 127.615039,43.2838632 127.326316,43.0572874 C127.037593,42.8307115 126.801003,42.5232203 126.616541,42.1348046 C126.432079,41.7463889 126.33985,41.2366009 126.33985,40.6054253 L126.33985,33.5168736 L124.006015,33.5168736 L124.006015,32.1331494 L126.33985,32.1331494 L126.33985,28.9287356 L127.97594,28.9287356 L127.97594,32.1331494 L131.15188,32.1331494 L131.15188,33.5168736 Z M133.702256,34.6335632 C133.702256,34.3260674 133.694236,33.9295656 133.678195,33.444046 C133.662155,32.9585263 133.638095,32.5215652 133.606015,32.1331494 L135.169925,32.1331494 C135.202005,32.4406452 135.226065,32.7805039 135.242105,33.1527356 C135.258145,33.5249674 135.266165,33.8324586 135.266165,34.0752184 L135.314286,34.0752184 C135.635089,33.4116748 136.116288,32.8735653 136.757895,32.4608736 C137.399502,32.0481818 138.121299,31.8418391 138.923308,31.8418391 C139.131831,31.8418391 139.3203,31.849931 139.488722,31.8661149 C139.657144,31.8822989 139.829573,31.9146664 140.006015,31.9632184 L139.789474,33.5168736 C139.693233,33.4845056 139.532833,33.4521381 139.308271,33.4197701 C139.083708,33.3874021 138.859149,33.3712184 138.634586,33.3712184 C138.201502,33.3712184 137.784463,33.4521371 137.383459,33.613977 C136.982454,33.7758169 136.633585,34.0307109 136.336842,34.3786667 C136.040099,34.7266224 135.7995,35.1716755 135.615038,35.7138391 C135.430576,36.2560027 135.338346,36.9073985 135.338346,37.668046 L135.338346,43.4942529 L133.702256,43.4942529 L133.702256,34.6335632 Z M153.118797,37.8137011 C153.118797,38.6714526 152.970428,39.4644561 152.673684,40.1927356 C152.376941,40.9210151 151.963912,41.5521812 151.434586,42.0862529 C150.905261,42.6203245 150.271683,43.037056 149.533835,43.3364598 C148.795986,43.6358636 147.985969,43.7855632 147.103759,43.7855632 C146.23759,43.7855632 145.435593,43.6358636 144.697744,43.3364598 C143.959896,43.037056 143.326318,42.6203245 142.796992,42.0862529 C142.267667,41.5521812 141.854638,40.9210151 141.557895,40.1927356 C141.261151,39.4644561 141.112782,38.6714526 141.112782,37.8137011 C141.112782,36.9559497 141.261151,36.1629462 141.557895,35.4346667 C141.854638,34.7063872 142.267667,34.0752211 142.796992,33.5411494 C143.326318,33.0070778 143.959896,32.5903463 144.697744,32.2909425 C145.435593,31.9915387 146.23759,31.8418391 147.103759,31.8418391 C147.985969,31.8418391 148.795986,31.9915387 149.533835,32.2909425 C150.271683,32.5903463 150.905261,33.0070778 151.434586,33.5411494 C151.963912,34.0752211 152.376941,34.7063872 152.673684,35.4346667 C152.970428,36.1629462 153.118797,36.9559497 153.118797,37.8137011 L153.118797,37.8137011 Z M151.386466,37.8137011 C151.386466,37.1825256 151.286217,36.5877729 151.085714,36.0294253 C150.885212,35.4710777 150.600503,34.9855653 150.231579,34.5728736 C149.862655,34.1601818 149.413536,33.832461 148.884211,33.5897011 C148.354885,33.3469413 147.761407,33.2255632 147.103759,33.2255632 C146.446112,33.2255632 145.856644,33.3469413 145.335338,33.5897011 C144.814032,33.832461 144.368924,34.1601818 144,34.5728736 C143.631076,34.9855653 143.346367,35.4710777 143.145865,36.0294253 C142.945362,36.5877729 142.845113,37.1825256 142.845113,37.8137011 C142.845113,38.4448767 142.945362,39.0396294 143.145865,39.597977 C143.346367,40.1563246 143.631076,40.641837 144,41.0545287 C144.368924,41.4672205 144.814032,41.7908954 145.335338,42.0255632 C145.856644,42.2602311 146.446112,42.3775632 147.103759,42.3775632 C147.761407,42.3775632 148.354885,42.2602311 148.884211,42.0255632 C149.413536,41.7908954 149.862655,41.4672205 150.231579,41.0545287 C150.600503,40.641837 150.885212,40.1563246 151.085714,39.597977 C151.286217,39.0396294 151.386466,38.4448767 151.386466,37.8137011 L151.386466,37.8137011 Z M158.315789,43.4942529 L156.679699,43.4942529 L156.679699,25.1417011 L158.315789,25.1417011 L158.315789,43.4942529 Z M164.378947,43.4942529 L162.742857,43.4942529 L162.742857,25.1417011 L164.378947,25.1417011 L164.378947,43.4942529 Z M177.347368,36.9397701 C177.299248,35.8716268 176.958399,34.9855667 176.324812,34.2815632 C175.691225,33.5775597 174.788978,33.2255632 173.618045,33.2255632 C173.072679,33.2255632 172.567421,33.3267116 172.102256,33.5290115 C171.63709,33.7313114 171.228072,34.006435 170.875188,34.3543908 C170.522304,34.7023466 170.241605,35.0988483 170.033083,35.543908 C169.82456,35.9889677 169.704261,36.4542504 169.67218,36.9397701 L177.347368,36.9397701 Z M179.007519,37.4738391 L179.007519,37.837977 C179.007519,37.9674489 178.999499,38.1050108 178.983459,38.2506667 L169.64812,38.2506667 C169.66416,38.8171063 169.77644,39.3511699 169.984962,39.8528736 C170.193485,40.3545772 170.482204,40.7915384 170.851128,41.1637701 C171.220052,41.5360019 171.65313,41.8313552 172.150376,42.0498391 C172.647622,42.2683229 173.18496,42.3775632 173.762406,42.3775632 C174.612536,42.3775632 175.346363,42.1793123 175.96391,41.7828046 C176.581457,41.3862969 177.050625,40.929106 177.371429,40.4112184 L178.598496,41.3822529 C177.924809,42.2400043 177.182961,42.8549866 176.372932,43.2272184 C175.562903,43.5994501 174.692736,43.7855632 173.762406,43.7855632 C172.928317,43.7855632 172.15439,43.6358636 171.440602,43.3364598 C170.726813,43.037056 170.113286,42.6203245 169.6,42.0862529 C169.086714,41.5521812 168.681706,40.9210151 168.384962,40.1927356 C168.088219,39.4644561 167.93985,38.6714526 167.93985,37.8137011 C167.93985,36.9559497 168.084209,36.1629462 168.372932,35.4346667 C168.661656,34.7063872 169.062654,34.0752211 169.57594,33.5411494 C170.089226,33.0070778 170.690723,32.5903463 171.380451,32.2909425 C172.070179,31.9915387 172.816036,31.8418391 173.618045,31.8418391 C174.500255,31.8418391 175.278192,31.9915387 175.95188,32.2909425 C176.625567,32.5903463 177.186965,32.99494 177.63609,33.5047356 C178.085215,34.0145313 178.426064,34.609284 178.658647,35.2890115 C178.891229,35.968739 179.007519,36.6970076 179.007519,37.4738391 L179.007519,37.4738391 Z M182.520301,34.6335632 C182.520301,34.3260674 182.512281,33.9295656 182.496241,33.444046 C182.4802,32.9585263 182.456141,32.5215652 182.42406,32.1331494 L183.98797,32.1331494 C184.02005,32.4406452 184.04411,32.7805039 184.06015,33.1527356 C184.076191,33.5249674 184.084211,33.8324586 184.084211,34.0752184 L184.132331,34.0752184 C184.453134,33.4116748 184.934333,32.8735653 185.57594,32.4608736 C186.217547,32.0481818 186.939344,31.8418391 187.741353,31.8418391 C187.949876,31.8418391 188.138345,31.849931 188.306767,31.8661149 C188.475189,31.8822989 188.647618,31.9146664 188.82406,31.9632184 L188.607519,33.5168736 C188.511278,33.4845056 188.350878,33.4521381 188.126316,33.4197701 C187.901753,33.3874021 187.677194,33.3712184 187.452632,33.3712184 C187.019547,33.3712184 186.602508,33.4521371 186.201504,33.613977 C185.800499,33.7758169 185.451631,34.0307109 185.154887,34.3786667 C184.858144,34.7266224 184.617545,35.1716755 184.433083,35.7138391 C184.248621,36.2560027 184.156391,36.9073985 184.156391,37.668046 L184.156391,43.4942529 L182.520301,43.4942529 L182.520301,34.6335632 Z" id="Heat-pump-Controller" fill="#FFFFFF"></path>
                <path d="M0,21.7471264 L19.118787,37.2929239 L39.3207776,21.8814655 L65.6641604,37.9942529" id="Path-1" stroke="#7F7F7F" stroke-width="5" fill="#9DB2A7"></path>
                <path d="M80.4571429,0.00809195402 L82.1894737,0.00809195402 L82.1894737,7.46078161 L91.4766917,7.46078161 L91.4766917,0.00809195402 L93.2090226,0.00809195402 L93.2090226,17.1954023 L91.4766917,17.1954023 L91.4766917,9.06298851 L82.1894737,9.06298851 L82.1894737,17.1954023 L80.4571429,17.1954023 L80.4571429,0.00809195402 Z M106.225564,10.6409195 C106.177443,9.57277627 105.836595,8.68671616 105.203008,7.98271264 C104.56942,7.27870912 103.667174,6.92671264 102.496241,6.92671264 C101.950874,6.92671264 101.445616,7.02786106 100.980451,7.23016092 C100.515286,7.43246078 100.106267,7.70758447 99.7533835,8.05554023 C99.4004995,8.40349599 99.1198005,8.79999777 98.9112782,9.24505747 C98.7027558,9.69011717 98.5824563,10.1553999 98.5503759,10.6409195 L106.225564,10.6409195 Z M107.885714,11.1749885 L107.885714,11.5391264 C107.885714,11.6685983 107.877694,11.8061602 107.861654,11.9518161 L98.5263158,11.9518161 C98.542356,12.5182557 98.6546355,13.0523193 98.8631579,13.554023 C99.0716802,14.0557266 99.3603992,14.4926878 99.7293233,14.8649195 C100.098247,15.2371513 100.531326,15.5325047 101.028571,15.7509885 C101.525817,15.9694724 102.063155,16.0787126 102.640602,16.0787126 C103.490731,16.0787126 104.224558,15.8804618 104.842105,15.483954 C105.459652,15.0874463 105.92882,14.6302555 106.249624,14.1123678 L107.476692,15.0834023 C106.803004,15.9411537 106.061157,16.5561361 105.251128,16.9283678 C104.441099,17.3005996 103.570932,17.4867126 102.640602,17.4867126 C101.806512,17.4867126 101.032585,17.337013 100.318797,17.0376092 C99.605009,16.7382054 98.9914813,16.3214739 98.4781955,15.7874023 C97.9649097,15.2533307 97.5599012,14.6221646 97.2631579,13.8938851 C96.9664146,13.1656056 96.8180451,12.372602 96.8180451,11.5148506 C96.8180451,10.6570992 96.9624046,9.8640956 97.2511278,9.13581609 C97.5398511,8.40753659 97.9408496,7.77637049 98.4541353,7.24229885 C98.9674211,6.70822721 99.5689189,6.29149575 100.258647,5.99209195 C100.948374,5.69268816 101.694232,5.54298851 102.496241,5.54298851 C103.378451,5.54298851 104.156388,5.69268816 104.830075,5.99209195 C105.503763,6.29149575 106.065161,6.69608941 106.514286,7.20588506 C106.963411,7.71568071 107.304259,8.31043338 107.536842,8.99016092 C107.769425,9.66988846 107.885714,10.398157 107.885714,11.1749885 L107.885714,11.1749885 Z M118.35188,9.86409195 C118.35188,8.87686863 118.095241,8.14050817 117.581955,7.65498851 C117.068669,7.16946884 116.322812,6.92671264 115.344361,6.92671264 C114.670673,6.92671264 114.045116,7.04809074 113.467669,7.29085057 C112.890223,7.53361041 112.401005,7.85728533 112,8.26188506 L111.085714,7.16947126 C111.55088,6.70013558 112.164407,6.31172568 112.926316,6.00422989 C113.688224,5.69673409 114.550371,5.54298851 115.512782,5.54298851 C116.122309,5.54298851 116.691727,5.62795317 117.221053,5.79788506 C117.750379,5.96781694 118.215537,6.22271094 118.616541,6.56257471 C119.017546,6.90243848 119.330325,7.33130776 119.554887,7.8491954 C119.77945,8.36708305 119.891729,8.97397353 119.891729,9.66988506 L119.891729,14.6464368 C119.891729,15.0834045 119.907769,15.5365494 119.93985,16.0058851 C119.97193,16.4752207 120.02005,16.8717225 120.084211,17.1954023 L118.616541,17.1954023 C118.568421,16.9202745 118.528321,16.6208752 118.496241,16.2971954 C118.46416,15.9735156 118.44812,15.6579326 118.44812,15.3504368 L118.4,15.3504368 C117.886714,16.1110843 117.305266,16.6572857 116.655639,16.9890575 C116.006012,17.3208292 115.224065,17.4867126 114.309774,17.4867126 C113.87669,17.4867126 113.431581,17.4260236 112.974436,17.3046437 C112.517291,17.1832638 112.100253,16.9850129 111.723308,16.7098851 C111.346364,16.4347572 111.033585,16.0787148 110.784962,15.6417471 C110.53634,15.2047794 110.41203,14.6707158 110.41203,14.0395402 C110.41203,13.1656048 110.632579,12.4737497 111.073684,11.963954 C111.514789,11.4541584 112.104257,11.0738403 112.842105,10.8229885 C113.579954,10.5721367 114.42606,10.4102992 115.380451,10.3374713 C116.334842,10.2646433 117.325308,10.2282299 118.35188,10.2282299 L118.35188,9.86409195 Z M117.870677,11.5148506 C117.196989,11.5148506 116.519302,11.5431721 115.837594,11.5998161 C115.155886,11.6564601 114.538349,11.7697463 113.984962,11.9396782 C113.431576,12.10961 112.978448,12.3564122 112.625564,12.680092 C112.27268,13.0037717 112.096241,13.432641 112.096241,13.9667126 C112.096241,14.3713124 112.17243,14.711171 112.324812,14.9862989 C112.477194,15.2614267 112.681703,15.4839532 112.938346,15.6538851 C113.194989,15.8238169 113.479698,15.945195 113.792481,16.018023 C114.105265,16.0908509 114.422054,16.1272644 114.742857,16.1272644 C115.320304,16.1272644 115.833582,16.026116 116.282707,15.8238161 C116.731832,15.6215162 117.10877,15.3463925 117.413534,14.9984368 C117.718297,14.650481 117.950876,14.2499333 118.111278,13.7967816 C118.27168,13.3436299 118.35188,12.8662094 118.35188,12.3645057 L118.35188,11.5148506 L117.870677,11.5148506 Z M128.938346,7.21802299 L125.762406,7.21802299 L125.762406,13.8453333 C125.762406,14.266117 125.802506,14.6140676 125.882707,14.8891954 C125.962908,15.1643232 126.079197,15.3787579 126.231579,15.5325057 C126.383961,15.6862536 126.56441,15.791448 126.772932,15.848092 C126.981455,15.9047359 127.206014,15.9330575 127.446617,15.9330575 C127.671179,15.9330575 127.907768,15.90069 128.156391,15.835954 C128.405014,15.7712181 128.641603,15.6822075 128.866165,15.5689195 L128.938346,17.0011954 C128.649623,17.1144833 128.348874,17.199448 128.03609,17.256092 C127.723307,17.3127359 127.382458,17.3410575 127.013534,17.3410575 C126.70877,17.3410575 126.387972,17.3005981 126.051128,17.2196782 C125.714284,17.1387582 125.401505,16.9850126 125.112782,16.7584368 C124.824059,16.5318609 124.58747,16.2243698 124.403008,15.835954 C124.218545,15.4475383 124.126316,14.9377503 124.126316,14.3065747 L124.126316,7.21802299 L121.792481,7.21802299 L121.792481,5.83429885 L124.126316,5.83429885 L124.126316,2.62988506 L125.762406,2.62988506 L125.762406,5.83429885 L128.938346,5.83429885 L128.938346,7.21802299 Z M139.13985,23.0216092 L137.503759,23.0216092 L137.503759,5.83429885 L139.13985,5.83429885 L139.13985,7.80064368 L139.21203,7.80064368 C139.677195,7.05618019 140.298743,6.49379501 141.076692,6.11347126 C141.85464,5.73314752 142.644608,5.54298851 143.446617,5.54298851 C144.328826,5.54298851 145.126813,5.69673409 145.840602,6.00422989 C146.55439,6.31172568 147.163907,6.73250308 147.669173,7.26657471 C148.174439,7.80064635 148.567417,8.43181245 148.84812,9.16009195 C149.128823,9.88837146 149.269173,10.6732831 149.269173,11.5148506 C149.269173,12.356418 149.128823,13.1413297 148.84812,13.8696092 C148.567417,14.5978887 148.174439,15.2290548 147.669173,15.7631264 C147.163907,16.2971981 146.55439,16.7179755 145.840602,17.0254713 C145.126813,17.3329671 144.328826,17.4867126 143.446617,17.4867126 C142.644608,17.4867126 141.85464,17.2965536 141.076692,16.9162299 C140.298743,16.5359061 139.677195,15.9897047 139.21203,15.2776092 L139.13985,15.2776092 L139.13985,23.0216092 Z M147.536842,11.5148506 C147.536842,10.883675 147.440602,10.2889223 147.24812,9.73057471 C147.055638,9.17222709 146.778949,8.68671471 146.418045,8.27402299 C146.057141,7.86133127 145.612033,7.53361041 145.082707,7.29085057 C144.553381,7.04809074 143.951883,6.92671264 143.278195,6.92671264 C142.652628,6.92671264 142.075191,7.0440448 141.545865,7.27871264 C141.016539,7.51338048 140.5594,7.83705541 140.174436,8.24974713 C139.789472,8.66243885 139.488723,9.14795123 139.27218,9.70629885 C139.055638,10.2646465 138.947368,10.867491 138.947368,11.5148506 C138.947368,12.1622101 139.055638,12.7650547 139.27218,13.3234023 C139.488723,13.8817499 139.789472,14.3632164 140.174436,14.7678161 C140.5594,15.1724158 141.016539,15.4920448 141.545865,15.7267126 C142.075191,15.9613805 142.652628,16.0787126 143.278195,16.0787126 C143.951883,16.0787126 144.553381,15.9613805 145.082707,15.7267126 C145.612033,15.4920448 146.057141,15.1683699 146.418045,14.7556782 C146.778949,14.3429864 147.055638,13.8574741 147.24812,13.2991264 C147.440602,12.7407788 147.536842,12.1460261 147.536842,11.5148506 L147.536842,11.5148506 Z M160.962406,17.1954023 C160.930326,16.8879065 160.906266,16.5480478 160.890226,16.1758161 C160.874185,15.8035843 160.866165,15.4960932 160.866165,15.2533333 L160.818045,15.2533333 C160.497242,15.9168769 159.975943,16.4549864 159.254135,16.8676782 C158.532327,17.2803699 157.77043,17.4867126 156.968421,17.4867126 C155.540845,17.4867126 154.470179,17.0578434 153.756391,16.200092 C153.042603,15.3423405 152.685714,14.2094783 152.685714,12.8014713 L152.685714,5.83429885 L154.321805,5.83429885 L154.321805,12.1217471 C154.321805,12.7205547 154.369924,13.2627102 154.466165,13.7482299 C154.562406,14.2337496 154.726816,14.650481 154.959398,14.9984368 C155.191981,15.3463925 155.50476,15.6174703 155.897744,15.8116782 C156.290729,16.005886 156.783957,16.1029885 157.377444,16.1029885 C157.810528,16.1029885 158.231577,16.0139779 158.640602,15.835954 C159.049626,15.6579301 159.414535,15.3868524 159.735338,15.0227126 C160.056142,14.6585729 160.312781,14.1973361 160.505263,13.6389885 C160.697745,13.0806409 160.793985,12.4211532 160.793985,11.6605057 L160.793985,5.83429885 L162.430075,5.83429885 L162.430075,14.6949885 C162.430075,15.0024843 162.438095,15.3989861 162.454135,15.8845057 C162.470176,16.3700254 162.494235,16.8069866 162.526316,17.1954023 L160.962406,17.1954023 Z M168.372932,7.77636782 C168.693736,7.11282427 169.186964,6.57471471 169.852632,6.16202299 C170.518299,5.74933127 171.260146,5.54298851 172.078195,5.54298851 C172.382959,5.54298851 172.699748,5.575356 173.028571,5.64009195 C173.357395,5.70482791 173.678194,5.83025194 173.990977,6.01636782 C174.303761,6.20248369 174.59248,6.44928582 174.857143,6.75678161 C175.121806,7.0642774 175.350375,7.46077918 175.542857,7.94629885 C175.927821,7.16946738 176.45313,6.57471471 177.118797,6.16202299 C177.784464,5.74933127 178.574432,5.54298851 179.488722,5.54298851 C180.916298,5.54298851 181.986964,5.97185778 182.700752,6.8296092 C183.41454,7.68736061 183.771429,8.82022285 183.771429,10.2282299 L183.771429,17.1954023 L182.135338,17.1954023 L182.135338,10.907954 C182.135338,9.71033884 181.914789,8.74740594 181.473684,8.01912644 C181.032579,7.29084693 180.282712,6.92671264 179.22406,6.92671264 C178.630573,6.92671264 178.129325,7.04809074 177.720301,7.29085057 C177.311276,7.53361041 176.982457,7.8532394 176.733835,8.24974713 C176.485212,8.64625486 176.304762,9.09535381 176.192481,9.59705747 C176.0802,10.0987611 176.02406,10.616641 176.02406,11.1507126 L176.02406,17.1954023 L174.38797,17.1954023 L174.38797,10.568092 C174.38797,10.0178363 174.34787,9.5161402 174.267669,9.06298851 C174.187468,8.60983681 174.047119,8.22547284 173.846617,7.90988506 C173.646114,7.59429727 173.369425,7.35154108 173.016541,7.1816092 C172.663657,7.01167731 172.214539,6.92671264 171.669173,6.92671264 C171.284209,6.92671264 170.89524,7.01572325 170.502256,7.19374713 C170.109271,7.37177101 169.756393,7.64284875 169.443609,8.00698851 C169.130826,8.37112826 168.878196,8.83236502 168.685714,9.39071264 C168.493232,9.94906026 168.396992,10.6085479 168.396992,11.3691954 L168.396992,17.1954023 L166.760902,17.1954023 L166.760902,8.33471264 C166.760902,8.02721685 166.752882,7.63071507 166.736842,7.1451954 C166.720802,6.65967573 166.696742,6.22271459 166.664662,5.83429885 L168.228571,5.83429885 C168.260652,6.14179464 168.284712,6.48165331 168.300752,6.85388506 C168.316792,7.2261168 168.324812,7.53360798 168.324812,7.77636782 L168.372932,7.77636782 Z M189.642105,23.0216092 L188.006015,23.0216092 L188.006015,5.83429885 L189.642105,5.83429885 L189.642105,7.80064368 L189.714286,7.80064368 C190.179451,7.05618019 190.800999,6.49379501 191.578947,6.11347126 C192.356896,5.73314752 193.146863,5.54298851 193.948872,5.54298851 C194.831082,5.54298851 195.629069,5.69673409 196.342857,6.00422989 C197.056645,6.31172568 197.666163,6.73250308 198.171429,7.26657471 C198.676694,7.80064635 199.069673,8.43181245 199.350376,9.16009195 C199.631079,9.88837146 199.771429,10.6732831 199.771429,11.5148506 C199.771429,12.356418 199.631079,13.1413297 199.350376,13.8696092 C199.069673,14.5978887 198.676694,15.2290548 198.171429,15.7631264 C197.666163,16.2971981 197.056645,16.7179755 196.342857,17.0254713 C195.629069,17.3329671 194.831082,17.4867126 193.948872,17.4867126 C193.146863,17.4867126 192.356896,17.2965536 191.578947,16.9162299 C190.800999,16.5359061 190.179451,15.9897047 189.714286,15.2776092 L189.642105,15.2776092 L189.642105,23.0216092 Z M198.039098,11.5148506 C198.039098,10.883675 197.942858,10.2889223 197.750376,9.73057471 C197.557894,9.17222709 197.281205,8.68671471 196.920301,8.27402299 C196.559397,7.86133127 196.114288,7.53361041 195.584962,7.29085057 C195.055636,7.04809074 194.454139,6.92671264 193.780451,6.92671264 C193.154884,6.92671264 192.577446,7.0440448 192.04812,7.27871264 C191.518794,7.51338048 191.061656,7.83705541 190.676692,8.24974713 C190.291727,8.66243885 189.990979,9.14795123 189.774436,9.70629885 C189.557894,10.2646465 189.449624,10.867491 189.449624,11.5148506 C189.449624,12.1622101 189.557894,12.7650547 189.774436,13.3234023 C189.990979,13.8817499 190.291727,14.3632164 190.676692,14.7678161 C191.061656,15.1724158 191.518794,15.4920448 192.04812,15.7267126 C192.577446,15.9613805 193.154884,16.0787126 193.780451,16.0787126 C194.454139,16.0787126 195.055636,15.9613805 195.584962,15.7267126 C196.114288,15.4920448 196.559397,15.1683699 196.920301,14.7556782 C197.281205,14.3429864 197.557894,13.8574741 197.750376,13.2991264 C197.942858,12.7407788 198.039098,12.1460261 198.039098,11.5148506 L198.039098,11.5148506 Z M94.7969925,40.7268046 C94.5082692,41.1637723 94.1594005,41.5764578 93.7503759,41.9648736 C93.3413513,42.3532893 92.8681731,42.693148 92.3308271,42.9844598 C91.793481,43.2757716 91.2000032,43.50639 90.5503759,43.6763218 C89.9007486,43.8462537 89.1909813,43.9312184 88.4210526,43.9312184 C87.1378382,43.9312184 85.9508826,43.7046459 84.8601504,43.2514943 C83.7694181,42.7983426 82.8310816,42.1712224 82.0451128,41.3701149 C81.2591439,40.5690075 80.6456162,39.6182124 80.2045113,38.5177011 C79.7634063,37.4171899 79.5428571,36.2115008 79.5428571,34.9005977 C79.5428571,33.5896946 79.7674163,32.3840055 80.2165414,31.2834943 C80.6656664,30.182983 81.2872141,29.2321879 82.081203,28.4310805 C82.8751919,27.629973 83.8135284,27.0028528 84.8962406,26.5497011 C85.9789528,26.0965495 87.1538784,25.869977 88.4210526,25.869977 C89.0466197,25.869977 89.6601474,25.934712 90.2616541,26.0641839 C90.8631609,26.1936558 91.4285688,26.375723 91.9578947,26.6103908 C92.4872207,26.8450586 92.9684189,27.1282742 93.4015038,27.460046 C93.8345886,27.7918178 94.1954873,28.1680899 94.4842105,28.5888736 L93.0406015,29.6570115 C92.8641595,29.3818837 92.6275704,29.10676 92.3308271,28.8316322 C92.0340837,28.5565044 91.685215,28.3137482 91.2842105,28.1033563 C90.883206,27.8929645 90.4461177,27.7230351 89.9729323,27.5935632 C89.499747,27.4640913 88.9904789,27.3993563 88.4451128,27.3993563 C87.3383403,27.3993563 86.347874,27.6016531 85.4736842,28.0062529 C84.5994944,28.4108526 83.8576472,28.957054 83.2481203,29.6448736 C82.6385934,30.3326931 82.1734352,31.1297426 81.8526316,32.036046 C81.531828,32.9423494 81.3714286,33.8971904 81.3714286,34.9005977 C81.3714286,35.904005 81.535838,36.858846 81.8646617,37.7651494 C82.1934854,38.6714528 82.6626536,39.4685023 83.2721805,40.1563218 C83.8817073,40.8441414 84.6235545,41.3903428 85.4977444,41.7949425 C86.3719342,42.1995423 87.3543805,42.4018391 88.4451128,42.4018391 C89.4235638,42.4018391 90.3538803,42.1995423 91.2360902,41.7949425 C92.1183002,41.3903428 92.8561374,40.742993 93.4496241,39.8528736 L94.7969925,40.7268046 Z M108.583459,37.8137011 C108.583459,38.6714526 108.435089,39.4644561 108.138346,40.1927356 C107.841603,40.9210151 107.428574,41.5521812 106.899248,42.0862529 C106.369922,42.6203245 105.736345,43.037056 104.998496,43.3364598 C104.260648,43.6358636 103.450631,43.7855632 102.568421,43.7855632 C101.702251,43.7855632 100.900254,43.6358636 100.162406,43.3364598 C99.4245577,43.037056 98.7909801,42.6203245 98.2616541,42.0862529 C97.7323282,41.5521812 97.3192997,40.9210151 97.0225564,40.1927356 C96.7258131,39.4644561 96.5774436,38.6714526 96.5774436,37.8137011 C96.5774436,36.9559497 96.7258131,36.1629462 97.0225564,35.4346667 C97.3192997,34.7063872 97.7323282,34.0752211 98.2616541,33.5411494 C98.7909801,33.0070778 99.4245577,32.5903463 100.162406,32.2909425 C100.900254,31.9915387 101.702251,31.8418391 102.568421,31.8418391 C103.450631,31.8418391 104.260648,31.9915387 104.998496,32.2909425 C105.736345,32.5903463 106.369922,33.0070778 106.899248,33.5411494 C107.428574,34.0752211 107.841603,34.7063872 108.138346,35.4346667 C108.435089,36.1629462 108.583459,36.9559497 108.583459,37.8137011 L108.583459,37.8137011 Z M106.851128,37.8137011 C106.851128,37.1825256 106.750878,36.5877729 106.550376,36.0294253 C106.349874,35.4710777 106.065165,34.9855653 105.696241,34.5728736 C105.327316,34.1601818 104.878198,33.832461 104.348872,33.5897011 C103.819546,33.3469413 103.226068,33.2255632 102.568421,33.2255632 C101.910774,33.2255632 101.321306,33.3469413 100.8,33.5897011 C100.278694,33.832461 99.8335858,34.1601818 99.4646617,34.5728736 C99.0957375,34.9855653 98.8110286,35.4710777 98.6105263,36.0294253 C98.4100241,36.5877729 98.3097744,37.1825256 98.3097744,37.8137011 C98.3097744,38.4448767 98.4100241,39.0396294 98.6105263,39.597977 C98.8110286,40.1563246 99.0957375,40.641837 99.4646617,41.0545287 C99.8335858,41.4672205 100.278694,41.7908954 100.8,42.0255632 C101.321306,42.2602311 101.910774,42.3775632 102.568421,42.3775632 C103.226068,42.3775632 103.819546,42.2602311 104.348872,42.0255632 C104.878198,41.7908954 105.327316,41.4672205 105.696241,41.0545287 C106.065165,40.641837 106.349874,40.1563246 106.550376,39.597977 C106.750878,39.0396294 106.851128,38.4448767 106.851128,37.8137011 L106.851128,37.8137011 Z M113.56391,32.1331494 C113.59599,32.4406452 113.62005,32.7805039 113.63609,33.1527356 C113.65213,33.5249674 113.66015,33.8324586 113.66015,34.0752184 L113.708271,34.0752184 C114.029074,33.4116748 114.550372,32.8735653 115.27218,32.4608736 C115.993989,32.0481818 116.755886,31.8418391 117.557895,31.8418391 C118.985471,31.8418391 120.056137,32.2707084 120.769925,33.1284598 C121.483713,33.9862112 121.840602,35.1190734 121.840602,36.5270805 L121.840602,43.4942529 L120.204511,43.4942529 L120.204511,37.2068046 C120.204511,36.607997 120.156391,36.0658415 120.06015,35.5803218 C119.963909,35.0948022 119.7995,34.6780707 119.566917,34.3301149 C119.334335,33.9821592 119.021556,33.7110814 118.628571,33.5168736 C118.235587,33.3226657 117.742359,33.2255632 117.148872,33.2255632 C116.715787,33.2255632 116.294739,33.3145738 115.885714,33.4925977 C115.47669,33.6706216 115.111781,33.9416993 114.790977,34.3058391 C114.470174,34.6699788 114.213535,35.1312156 114.021053,35.6895632 C113.82857,36.2479108 113.732331,36.9073985 113.732331,37.668046 L113.732331,43.4942529 L112.096241,43.4942529 L112.096241,34.6335632 C112.096241,34.3260674 112.088221,33.9295656 112.07218,33.444046 C112.05614,32.9585263 112.03208,32.5215652 112,32.1331494 L113.56391,32.1331494 Z M131.15188,33.5168736 L127.97594,33.5168736 L127.97594,40.1441839 C127.97594,40.5649676 128.01604,40.9129182 128.096241,41.188046 C128.176442,41.4631738 128.292731,41.6776084 128.445113,41.8313563 C128.597494,41.9851042 128.777944,42.0902986 128.986466,42.1469425 C129.194989,42.2035865 129.419548,42.231908 129.66015,42.231908 C129.884713,42.231908 130.121302,42.1995406 130.369925,42.1348046 C130.618548,42.0700686 130.855137,41.981058 131.079699,41.8677701 L131.15188,43.300046 C130.863156,43.4133339 130.562408,43.4982986 130.249624,43.5549425 C129.936841,43.6115865 129.595992,43.639908 129.227068,43.639908 C128.922304,43.639908 128.601505,43.5994487 128.264662,43.5185287 C127.927818,43.4376088 127.615039,43.2838632 127.326316,43.0572874 C127.037593,42.8307115 126.801003,42.5232203 126.616541,42.1348046 C126.432079,41.7463889 126.33985,41.2366009 126.33985,40.6054253 L126.33985,33.5168736 L124.006015,33.5168736 L124.006015,32.1331494 L126.33985,32.1331494 L126.33985,28.9287356 L127.97594,28.9287356 L127.97594,32.1331494 L131.15188,32.1331494 L131.15188,33.5168736 Z M133.702256,34.6335632 C133.702256,34.3260674 133.694236,33.9295656 133.678195,33.444046 C133.662155,32.9585263 133.638095,32.5215652 133.606015,32.1331494 L135.169925,32.1331494 C135.202005,32.4406452 135.226065,32.7805039 135.242105,33.1527356 C135.258145,33.5249674 135.266165,33.8324586 135.266165,34.0752184 L135.314286,34.0752184 C135.635089,33.4116748 136.116288,32.8735653 136.757895,32.4608736 C137.399502,32.0481818 138.121299,31.8418391 138.923308,31.8418391 C139.131831,31.8418391 139.3203,31.849931 139.488722,31.8661149 C139.657144,31.8822989 139.829573,31.9146664 140.006015,31.9632184 L139.789474,33.5168736 C139.693233,33.4845056 139.532833,33.4521381 139.308271,33.4197701 C139.083708,33.3874021 138.859149,33.3712184 138.634586,33.3712184 C138.201502,33.3712184 137.784463,33.4521371 137.383459,33.613977 C136.982454,33.7758169 136.633585,34.0307109 136.336842,34.3786667 C136.040099,34.7266224 135.7995,35.1716755 135.615038,35.7138391 C135.430576,36.2560027 135.338346,36.9073985 135.338346,37.668046 L135.338346,43.4942529 L133.702256,43.4942529 L133.702256,34.6335632 Z M153.118797,37.8137011 C153.118797,38.6714526 152.970428,39.4644561 152.673684,40.1927356 C152.376941,40.9210151 151.963912,41.5521812 151.434586,42.0862529 C150.905261,42.6203245 150.271683,43.037056 149.533835,43.3364598 C148.795986,43.6358636 147.985969,43.7855632 147.103759,43.7855632 C146.23759,43.7855632 145.435593,43.6358636 144.697744,43.3364598 C143.959896,43.037056 143.326318,42.6203245 142.796992,42.0862529 C142.267667,41.5521812 141.854638,40.9210151 141.557895,40.1927356 C141.261151,39.4644561 141.112782,38.6714526 141.112782,37.8137011 C141.112782,36.9559497 141.261151,36.1629462 141.557895,35.4346667 C141.854638,34.7063872 142.267667,34.0752211 142.796992,33.5411494 C143.326318,33.0070778 143.959896,32.5903463 144.697744,32.2909425 C145.435593,31.9915387 146.23759,31.8418391 147.103759,31.8418391 C147.985969,31.8418391 148.795986,31.9915387 149.533835,32.2909425 C150.271683,32.5903463 150.905261,33.0070778 151.434586,33.5411494 C151.963912,34.0752211 152.376941,34.7063872 152.673684,35.4346667 C152.970428,36.1629462 153.118797,36.9559497 153.118797,37.8137011 L153.118797,37.8137011 Z M151.386466,37.8137011 C151.386466,37.1825256 151.286217,36.5877729 151.085714,36.0294253 C150.885212,35.4710777 150.600503,34.9855653 150.231579,34.5728736 C149.862655,34.1601818 149.413536,33.832461 148.884211,33.5897011 C148.354885,33.3469413 147.761407,33.2255632 147.103759,33.2255632 C146.446112,33.2255632 145.856644,33.3469413 145.335338,33.5897011 C144.814032,33.832461 144.368924,34.1601818 144,34.5728736 C143.631076,34.9855653 143.346367,35.4710777 143.145865,36.0294253 C142.945362,36.5877729 142.845113,37.1825256 142.845113,37.8137011 C142.845113,38.4448767 142.945362,39.0396294 143.145865,39.597977 C143.346367,40.1563246 143.631076,40.641837 144,41.0545287 C144.368924,41.4672205 144.814032,41.7908954 145.335338,42.0255632 C145.856644,42.2602311 146.446112,42.3775632 147.103759,42.3775632 C147.761407,42.3775632 148.354885,42.2602311 148.884211,42.0255632 C149.413536,41.7908954 149.862655,41.4672205 150.231579,41.0545287 C150.600503,40.641837 150.885212,40.1563246 151.085714,39.597977 C151.286217,39.0396294 151.386466,38.4448767 151.386466,37.8137011 L151.386466,37.8137011 Z M158.315789,43.4942529 L156.679699,43.4942529 L156.679699,25.1417011 L158.315789,25.1417011 L158.315789,43.4942529 Z M164.378947,43.4942529 L162.742857,43.4942529 L162.742857,25.1417011 L164.378947,25.1417011 L164.378947,43.4942529 Z M177.347368,36.9397701 C177.299248,35.8716268 176.958399,34.9855667 176.324812,34.2815632 C175.691225,33.5775597 174.788978,33.2255632 173.618045,33.2255632 C173.072679,33.2255632 172.567421,33.3267116 172.102256,33.5290115 C171.63709,33.7313114 171.228072,34.006435 170.875188,34.3543908 C170.522304,34.7023466 170.241605,35.0988483 170.033083,35.543908 C169.82456,35.9889677 169.704261,36.4542504 169.67218,36.9397701 L177.347368,36.9397701 Z M179.007519,37.4738391 L179.007519,37.837977 C179.007519,37.9674489 178.999499,38.1050108 178.983459,38.2506667 L169.64812,38.2506667 C169.66416,38.8171063 169.77644,39.3511699 169.984962,39.8528736 C170.193485,40.3545772 170.482204,40.7915384 170.851128,41.1637701 C171.220052,41.5360019 171.65313,41.8313552 172.150376,42.0498391 C172.647622,42.2683229 173.18496,42.3775632 173.762406,42.3775632 C174.612536,42.3775632 175.346363,42.1793123 175.96391,41.7828046 C176.581457,41.3862969 177.050625,40.929106 177.371429,40.4112184 L178.598496,41.3822529 C177.924809,42.2400043 177.182961,42.8549866 176.372932,43.2272184 C175.562903,43.5994501 174.692736,43.7855632 173.762406,43.7855632 C172.928317,43.7855632 172.15439,43.6358636 171.440602,43.3364598 C170.726813,43.037056 170.113286,42.6203245 169.6,42.0862529 C169.086714,41.5521812 168.681706,40.9210151 168.384962,40.1927356 C168.088219,39.4644561 167.93985,38.6714526 167.93985,37.8137011 C167.93985,36.9559497 168.084209,36.1629462 168.372932,35.4346667 C168.661656,34.7063872 169.062654,34.0752211 169.57594,33.5411494 C170.089226,33.0070778 170.690723,32.5903463 171.380451,32.2909425 C172.070179,31.9915387 172.816036,31.8418391 173.618045,31.8418391 C174.500255,31.8418391 175.278192,31.9915387 175.95188,32.2909425 C176.625567,32.5903463 177.186965,32.99494 177.63609,33.5047356 C178.085215,34.0145313 178.426064,34.609284 178.658647,35.2890115 C178.891229,35.968739 179.007519,36.6970076 179.007519,37.4738391 L179.007519,37.4738391 Z M182.520301,34.6335632 C182.520301,34.3260674 182.512281,33.9295656 182.496241,33.444046 C182.4802,32.9585263 182.456141,32.5215652 182.42406,32.1331494 L183.98797,32.1331494 C184.02005,32.4406452 184.04411,32.7805039 184.06015,33.1527356 C184.076191,33.5249674 184.084211,33.8324586 184.084211,34.0752184 L184.132331,34.0752184 C184.453134,33.4116748 184.934333,32.8735653 185.57594,32.4608736 C186.217547,32.0481818 186.939344,31.8418391 187.741353,31.8418391 C187.949876,31.8418391 188.138345,31.849931 188.306767,31.8661149 C188.475189,31.8822989 188.647618,31.9146664 188.82406,31.9632184 L188.607519,33.5168736 C188.511278,33.4845056 188.350878,33.4521381 188.126316,33.4197701 C187.901753,33.3874021 187.677194,33.3712184 187.452632,33.3712184 C187.019547,33.3712184 186.602508,33.4521371 186.201504,33.613977 C185.800499,33.7758169 185.451631,34.0307109 185.154887,34.3786667 C184.858144,34.7266224 184.617545,35.1716755 184.433083,35.7138391 C184.248621,36.2560027 184.156391,36.9073985 184.156391,37.668046 L184.156391,43.4942529 L182.520301,43.4942529 L182.520301,34.6335632 Z" id="Heat-pump-Controller" fill="#FFFFFF"></path>
            </g>
        </g>
    </g>
</svg>