<?xml version="1.0" encoding="UTF-8" standalone="no"?>
<svg width="63px" height="62px" viewBox="0 0 63 62" version="1.1" xmlns="http://www.w3.org/2000/svg" xmlns:xlink="http://www.w3.org/1999/xlink" xmlns:sketch="http://www.bohemiancoding.com/sketch/ns">
    <!-- Generator: Sketch 3.4.3 (16044) - http://www.bohemiancoding.com/sketch -->
    <title>logo-xs</title>
    <desc>Created with Sketch.</desc>
    <defs></defs>
    <g id="Page-1" stroke="none" stroke-width="1" fill="none" fill-rule="evenodd" sketch:type="MSPage">
        <g id="logo-xs" sketch:type="MSLayerGroup">
            <rect id="Rectangle-11" fill="#CD9987" sketch:type="MSShapeGroup" x="9.49998722" y="4.33566434" width="21.6511337" height="9.53846154"></rect>
            <path d="M49.3874708,9.1048951 L30.8293563,18.2097902 L30.8293563,0 L49.3874708,9.1048951 L49.3874708,9.1048951 Z" id="Triangle-1" fill="#CD9987" sketch:type="MSShapeGroup"></path>
            <rect id="Rectangle-11" fill="#9DB2A7" sketch:type="MSShapeGroup" transform="translate(42.317713, 52.895105) scale(-1, 1) translate(-42.317713, -52.895105) " x="31.4921461" y="48.1258741" width="21.6511337" height="9.53846154"></rect>
            <path d="M13.2557961,52.8951049 L31.8139107,62 L31.8139107,43.7902098 L13.2557961,52.8951049 L13.2557961,52.8951049 Z" id="Triangle-1" fill="#9DB2A7" sketch:type="MSShapeGroup"></path>
            <path d="M58.104573,9.28408586 L58.104573,30.5288411 L48.3836558,30.5288411 L48.3836558,9.28408586 L58.104573,9.28408586 L58.104573,9.28408586 Z" id="Rectangle-11" fill="#CD9987" sketch:type="MSShapeGroup"></path>
            <path d="M53.4132639,48.3900787 L44.1342066,30.1802885 L62.6923212,30.1802885 L53.4132639,48.3900787 L53.4132639,48.3900787 Z" id="Triangle-1" fill="#CD9987" sketch:type="MSShapeGroup"></path>
            <path d="M4.41859871,31.6503497 L4.41859871,52.8951049 L14.1395159,52.8951049 L14.1395159,31.6503497 L4.41859871,31.6503497 L4.41859871,31.6503497 Z" id="Rectangle-11" fill="#9DB2A7" sketch:type="MSShapeGroup"></path>
            <path d="M9.27905728,13.756886 L0,31.9666762 L18.5581146,31.9666762 L9.27905728,13.756886 L9.27905728,13.756886 Z" id="Triangle-1" fill="#9DB2A7" sketch:type="MSShapeGroup"></path>
        </g>
    </g>
</svg>