<?xml version="1.0" encoding="UTF-8" standalone="no"?>
<svg width="200px" height="62px" viewBox="0 0 200 62" version="1.1" xmlns="http://www.w3.org/2000/svg" xmlns:xlink="http://www.w3.org/1999/xlink" xmlns:sketch="http://www.bohemiancoding.com/sketch/ns">
    <!-- Generator: Sketch 3.4.3 (16044) - http://www.bohemiancoding.com/sketch -->
    <title>logo-sm</title>
    <desc>Created with Sketch.</desc>
    <defs></defs>
    <g id="Page-1" stroke="none" stroke-width="1" fill="none" fill-rule="evenodd" sketch:type="MSPage">
        <g id="logo-sm" sketch:type="MSLayerGroup">
            <g id="logo-icon" sketch:type="MSShapeGroup">
                <rect id="Rectangle-11" fill="#CD9987" x="9.49998722" y="4.33566434" width="21.6511337" height="9.53846154"></rect>
                <path d="M49.3874708,9.1048951 L30.8293563,18.2097902 L30.8293563,0 L49.3874708,9.1048951 L49.3874708,9.1048951 Z" id="Triangle-1" fill="#CD9987"></path>
                <rect id="Rectangle-11" fill="#9DB2A7" transform="translate(42.317713, 52.895105) scale(-1, 1) translate(-42.317713, -52.895105) " x="31.4921461" y="48.1258741" width="21.6511337" height="9.53846154"></rect>
                <path d="M13.2557961,52.8951049 L31.8139107,62 L31.8139107,43.7902098 L13.2557961,52.8951049 L13.2557961,52.8951049 Z" id="Triangle-1" fill="#9DB2A7"></path>
                <path d="M58.104573,9.28408586 L58.104573,30.5288411 L48.3836558,30.5288411 L48.3836558,9.28408586 L58.104573,9.28408586 L58.104573,9.28408586 Z" id="Rectangle-11" fill="#CD9987"></path>
                <path d="M53.4132639,48.3900787 L44.1342066,30.1802885 L62.6923212,30.1802885 L53.4132639,48.3900787 L53.4132639,48.3900787 Z" id="Triangle-1" fill="#CD9987"></path>
                <path d="M4.41859871,31.6503497 L4.41859871,52.8951049 L14.1395159,52.8951049 L14.1395159,31.6503497 L4.41859871,31.6503497 L4.41859871,31.6503497 Z" id="Rectangle-11" fill="#9DB2A7"></path>
                <path d="M9.27905728,13.756886 L0,31.9666762 L18.5581146,31.9666762 L9.27905728,13.756886 L9.27905728,13.756886 Z" id="Triangle-1" fill="#9DB2A7"></path>
            </g>
            <g id="logo-text" transform="translate(78.065336, 11.715116)" fill="#3F3F3F" sketch:type="MSShapeGroup">
                <path d="M0.182395644,0 L2.34121909,0 L2.34121909,6.46302689 L10.1856568,6.46302689 L10.1856568,0 L12.3444802,0 L12.3444802,15.7668287 L10.1856568,15.7668287 L10.1856568,8.25831214 L2.34121909,8.25831214 L2.34121909,15.7668287 L0.182395644,15.7668287 L0.182395644,0 Z M27.1584264,9.36716479 L27.1584264,10.3176099 L18.1170174,10.3176099 C18.2025157,11.6552801 18.6104082,12.6743583 19.3407069,13.3748751 C20.0710056,14.0753919 21.0880649,14.425645 22.3919153,14.425645 C23.147151,14.425645 23.87922,14.3341216 24.5881441,14.1510719 C25.2970682,13.9680223 26.0006381,13.693452 26.6988749,13.3273528 L26.6988749,15.1648801 C25.9935132,15.4605756 25.2703502,15.6858641 24.5293642,15.8407522 C23.7883782,15.9956403 23.0367162,16.0730832 22.2743556,16.0730832 C20.3648916,16.0730832 18.8526616,15.5239426 17.7376202,14.425645 C16.6225787,13.3273473 16.0650664,11.8418517 16.0650664,9.96911337 C16.0650664,8.03301176 16.5940797,6.49647416 17.6521222,5.35945449 C18.7101647,4.22243481 20.1368976,3.6539335 21.9323637,3.6539335 C23.5425833,3.6539335 24.8161339,4.1661127 25.7530538,5.19048646 C26.6899736,6.21486023 27.1584264,7.60707241 27.1584264,9.36716479 L27.1584264,9.36716479 Z M25.1919734,8.79689771 C25.1777237,7.73380192 24.8767026,6.88545012 24.2889012,6.25181686 C23.7010998,5.61818361 22.9227199,5.30137173 21.9537382,5.30137173 C20.8565089,5.30137173 19.9783824,5.60762321 19.3193324,6.22013536 C18.6602823,6.8326475 18.2808889,7.69507983 18.1811408,8.80745821 L25.1919734,8.79689771 Z M36.1905732,9.82126635 C34.6017282,9.82126635 33.500953,10.0007931 32.8882146,10.3598519 C32.2754762,10.7189108 31.9691116,11.3314137 31.9691116,12.1973792 C31.9691116,12.8873354 32.198885,13.4347159 32.6584388,13.8395372 C33.1179927,14.2443584 33.7431902,14.446766 34.5340503,14.446766 C35.6241547,14.446766 36.4987188,14.0648317 37.1577689,13.3009516 C37.816819,12.5370715 38.146339,11.5215134 38.146339,10.2542469 L38.146339,9.82126635 L36.1905732,9.82126635 Z M40.1127921,9.01866824 L40.1127921,15.7668287 L38.146339,15.7668287 L38.146339,13.9715434 C37.6974725,14.6896611 37.138179,15.219441 36.4684416,15.5608989 C35.7987043,15.9023568 34.979357,16.0730832 34.0103753,16.0730832 C32.7848984,16.0730832 31.8105877,15.7333905 31.0874139,15.0539948 C30.36424,14.3745992 30.0026585,13.4646451 30.0026585,12.3241052 C30.0026585,10.9934754 30.4532995,9.99023775 31.354595,9.31436228 C32.2558905,8.63848681 33.6006887,8.30055414 35.3890299,8.30055414 L38.146339,8.30055414 L38.146339,8.11046512 C38.146339,7.21633819 37.8488804,6.52463226 37.2539541,6.03532658 C36.6590278,5.5460209 35.8236499,5.30137173 34.7477952,5.30137173 C34.0638081,5.30137173 33.3976432,5.38233476 32.7492804,5.54426326 C32.1009177,5.70619176 31.4775013,5.94908087 30.8790126,6.27293786 L30.8790126,4.47765262 C31.598624,4.20307821 32.2968503,3.99715049 32.9737126,3.85986328 C33.6505748,3.72257608 34.309615,3.6539335 34.9508529,3.6539335 C36.6821952,3.6539335 37.9753389,4.09747013 38.8303227,4.98455669 C39.6853066,5.87164324 40.1127921,7.21633365 40.1127921,9.01866824 L40.1127921,9.01866824 Z M46.4731277,0.58082758 L46.4731277,3.93906704 L50.5235935,3.93906704 L50.5235935,5.44921875 L46.4731277,5.44921875 L46.4731277,11.8700036 C46.4731277,12.8345343 46.6067169,13.4540775 46.8738994,13.7286519 C47.1410818,14.0032263 47.6843447,14.1405114 48.5037042,14.1405114 L50.5235935,14.1405114 L50.5235935,15.7668287 L48.5037042,15.7668287 C46.9861079,15.7668287 45.9387683,15.4869782 45.3616542,14.9272688 C44.7845401,14.3675594 44.4959874,13.3484812 44.4959874,11.8700036 L44.4959874,5.44921875 L43.0532094,5.44921875 L43.0532094,3.93906704 L44.4959874,3.93906704 L44.4959874,0.58082758 L46.4731277,0.58082758 Z M62.6992152,13.9926644 L62.6992152,20.2656023 L60.7220749,20.2656023 L60.7220749,3.93906704 L62.6992152,3.93906704 L62.6992152,5.73435229 C63.1124574,5.03031534 63.634346,4.50757574 64.2648966,4.16611782 C64.8954472,3.8246599 65.6488904,3.6539335 66.5252488,3.6539335 C67.9787214,3.6539335 69.1596501,4.22419488 70.0680705,5.36473474 C70.9764908,6.5052746 71.4306942,8.00485081 71.4306942,9.86350836 C71.4306942,11.7221659 70.9764908,13.2217421 70.0680705,14.362282 C69.1596501,15.5028218 67.9787214,16.0730832 66.5252488,16.0730832 C65.6488904,16.0730832 64.8954472,15.9023568 64.2648966,15.5608989 C63.634346,15.219441 63.1124574,14.6967014 62.6992152,13.9926644 L62.6992152,13.9926644 Z M69.3894304,9.86350836 C69.3894304,8.43431335 69.0919718,7.31315132 68.4970455,6.49998864 C67.9021192,5.68682597 67.0845532,5.28025073 66.0443228,5.28025073 C65.0040925,5.28025073 64.1865264,5.68682597 63.5916001,6.49998864 C62.9966739,7.31315132 62.6992152,8.43431335 62.6992152,9.86350836 C62.6992152,11.2927034 62.9966739,12.4138654 63.5916001,13.2270281 C64.1865264,14.0401907 65.0040925,14.446766 66.0443228,14.446766 C67.0845532,14.446766 67.9021192,14.0401907 68.4970455,13.2270281 C69.0919718,12.4138654 69.3894304,11.2927034 69.3894304,9.86350836 L69.3894304,9.86350836 Z M74.8520375,11.099087 L74.8520375,3.93906704 L76.8184905,3.93906704 L76.8184905,11.0251635 C76.8184905,12.1445823 77.039358,12.9841337 77.4810997,13.5438431 C77.9228414,14.1035525 78.5854439,14.383403 79.4689272,14.383403 C80.5305322,14.383403 81.3694725,14.0489904 81.9857734,13.3801553 C82.6020742,12.7113202 82.9102201,11.7996061 82.9102201,10.6449855 L82.9102201,3.93906704 L84.8766731,3.93906704 L84.8766731,15.7668287 L82.9102201,15.7668287 L82.9102201,13.9504224 C82.4328541,14.6685401 81.8789041,15.2018401 81.2483535,15.5503384 C80.6178029,15.8988367 79.8857339,16.0730832 79.0521247,16.0730832 C77.6770257,16.0730832 76.6332485,15.6506674 75.920762,14.805823 C75.2082754,13.9609787 74.8520375,12.7254124 74.8520375,11.099087 L74.8520375,11.099087 Z M98.6112076,6.20957485 C99.1028233,5.33656904 99.6906159,4.69238489 100.374603,4.27700309 C101.05859,3.86162129 101.863688,3.6539335 102.78992,3.6539335 C104.036772,3.6539335 104.998614,4.08514967 105.675476,4.94759493 C106.352339,5.8100402 106.690765,7.03680618 106.690765,8.62792969 L106.690765,15.7668287 L104.713624,15.7668287 L104.713624,8.6912927 C104.713624,7.55779321 104.510569,6.71648167 104.104451,6.16733285 C103.698334,5.61818403 103.07848,5.34361374 102.244871,5.34361374 C101.226015,5.34361374 100.420917,5.67802627 99.8295535,6.34686137 C99.2381897,7.01569648 98.9425122,7.92741065 98.9425122,9.08203125 L98.9425122,15.7668287 L96.9653719,15.7668287 L96.9653719,8.6912927 C96.9653719,7.55075284 96.7623163,6.70768123 96.356199,6.1620526 C95.9500816,5.61642396 95.3231029,5.34361374 94.4752439,5.34361374 C93.4706378,5.34361374 92.6726649,5.67978634 92.081301,6.35214162 C91.4899372,7.02449691 91.1942597,7.93445102 91.1942597,9.08203125 L91.1942597,15.7668287 L89.2171194,15.7668287 L89.2171194,3.93906704 L91.1942597,3.93906704 L91.1942597,5.7765943 C91.6431263,5.05143624 92.1810455,4.51637618 92.8080337,4.17139807 C93.4350219,3.82641997 94.1795591,3.6539335 95.0416678,3.6539335 C95.9109014,3.6539335 96.6500951,3.87218168 97.2592711,4.30868459 C97.8684471,4.7451875 98.3190881,5.37881125 98.6112076,6.20957485 L98.6112076,6.20957485 Z M112.880104,13.9926644 L112.880104,20.2656023 L110.902964,20.2656023 L110.902964,3.93906704 L112.880104,3.93906704 L112.880104,5.73435229 C113.293347,5.03031534 113.815235,4.50757574 114.445786,4.16611782 C115.076336,3.8246599 115.82978,3.6539335 116.706138,3.6539335 C118.159611,3.6539335 119.340539,4.22419488 120.24896,5.36473474 C121.15738,6.5052746 121.611583,8.00485081 121.611583,9.86350836 C121.611583,11.7221659 121.15738,13.2217421 120.24896,14.362282 C119.340539,15.5028218 118.159611,16.0730832 116.706138,16.0730832 C115.82978,16.0730832 115.076336,15.9023568 114.445786,15.5608989 C113.815235,15.219441 113.293347,14.6967014 112.880104,13.9926644 L112.880104,13.9926644 Z M119.57032,9.86350836 C119.57032,8.43431335 119.272861,7.31315132 118.677935,6.49998864 C118.083008,5.68682597 117.265442,5.28025073 116.225212,5.28025073 C115.184982,5.28025073 114.367416,5.68682597 113.772489,6.49998864 C113.177563,7.31315132 112.880104,8.43431335 112.880104,9.86350836 C112.880104,11.2927034 113.177563,12.4138654 113.772489,13.2270281 C114.367416,14.0401907 115.184982,14.446766 116.225212,14.446766 C117.265442,14.446766 118.083008,14.0401907 118.677935,13.2270281 C119.272861,12.4138654 119.57032,11.2927034 119.57032,9.86350836 L119.57032,9.86350836 Z" id="Heat-pump"></path>
                <path d="M13.002102,25.2790243 L13.002102,27.5284112 C12.2753657,26.8595761 11.5005482,26.3597173 10.6776263,26.0288199 C9.8547043,25.6979226 8.98014018,25.5324764 8.05390767,25.5324764 C6.22994211,25.5324764 4.83348942,26.083377 3.86450771,27.1851949 C2.89552601,28.2870127 2.41104242,29.8798724 2.41104242,31.9638218 C2.41104242,34.0407308 2.89552601,35.6300703 3.86450771,36.7318882 C4.83348942,37.833706 6.22994211,38.3846066 8.05390767,38.3846066 C8.98014018,38.3846066 9.8547043,38.2191604 10.6776263,37.8882631 C11.5005482,37.5573657 12.2753657,37.057507 13.002102,36.3886719 L13.002102,38.6169377 C12.2468663,39.1238443 11.4471121,39.5040185 10.6028155,39.7574718 C9.75851899,40.0109251 8.86614297,40.1376499 7.92566073,40.1376499 C5.51033133,40.1376499 3.60802079,39.4072225 2.21867202,37.9463458 C0.829323248,36.4854692 0.134659284,34.4913144 0.134659284,31.9638218 C0.134659284,29.4292887 0.829323248,27.4316139 2.21867202,25.9707372 C3.60802079,24.5098605 5.51033133,23.7794331 7.92566073,23.7794331 C8.8803927,23.7794331 9.77989348,23.9043978 10.62419,24.1543309 C11.4684866,24.4042641 12.261116,24.7791581 13.002102,25.2790243 L13.002102,25.2790243 Z M21.2540799,29.3659384 C20.1995998,29.3659384 19.3660031,29.7725136 18.7532647,30.5856763 C18.1405262,31.398839 17.8341616,32.5129608 17.8341616,33.928075 C17.8341616,35.3431893 18.138745,36.4573111 18.747921,37.2704737 C19.357097,38.0836364 20.192475,38.4902117 21.2540799,38.4902117 C22.3014352,38.4902117 23.1314695,38.0818764 23.744208,37.2651935 C24.3569464,36.4485106 24.663311,35.3361489 24.663311,33.928075 C24.663311,32.5270415 24.3569464,31.4164399 23.744208,30.5962368 C23.1314695,29.7760338 22.3014352,29.3659384 21.2540799,29.3659384 L21.2540799,29.3659384 Z M21.2540799,27.7185002 C22.9640477,27.7185002 24.3070647,28.2676408 25.2831712,29.3659384 C26.2592778,30.4642361 26.7473238,31.9849331 26.7473238,33.928075 C26.7473238,35.8641766 26.2592778,37.3831136 25.2831712,38.4849314 C24.3070647,39.5867492 22.9640477,40.1376499 21.2540799,40.1376499 C19.5369874,40.1376499 18.1921892,39.5867492 17.219645,38.4849314 C16.2471009,37.3831136 15.7608361,35.8641766 15.7608361,33.928075 C15.7608361,31.9849331 16.2471009,30.4642361 17.219645,29.3659384 C18.1921892,28.2676408 19.5369874,27.7185002 21.2540799,27.7185002 L21.2540799,27.7185002 Z M40.3215496,32.6924964 L40.3215496,39.8313953 L38.3550966,39.8313953 L38.3550966,32.7558594 C38.3550966,31.6364406 38.134229,30.7986492 37.6924874,30.24246 C37.2507457,29.6862708 36.5881432,29.4081804 35.7046599,29.4081804 C34.6430549,29.4081804 33.8058958,29.7425929 33.1931573,30.4114281 C32.5804189,31.0802632 32.2740543,31.9919773 32.2740543,33.1465979 L32.2740543,39.8313953 L30.296914,39.8313953 L30.296914,28.0036337 L32.2740543,28.0036337 L32.2740543,29.841161 C32.7442954,29.1300837 33.2982454,28.5985437 33.9359208,28.2465253 C34.5735963,27.8945068 35.3092276,27.7185002 36.1428369,27.7185002 C37.5179359,27.7185002 38.5581507,28.1391559 39.2635124,28.9804801 C39.968874,29.8218043 40.3215496,31.0591306 40.3215496,32.6924964 L40.3215496,32.6924964 Z M46.5536383,24.6453943 L46.5536383,28.0036337 L50.604104,28.0036337 L50.604104,29.5137854 L46.5536383,29.5137854 L46.5536383,35.9345703 C46.5536383,36.8991009 46.6872275,37.5186442 46.95441,37.7932186 C47.2215924,38.067793 47.7648552,38.2050781 48.5842148,38.2050781 L50.604104,38.2050781 L50.604104,39.8313953 L48.5842148,39.8313953 C47.0666184,39.8313953 46.0192789,39.5515449 45.4421648,38.9918355 C44.8650507,38.4321261 44.576498,37.4130479 44.576498,35.9345703 L44.576498,29.5137854 L43.1337199,29.5137854 L43.1337199,28.0036337 L44.576498,28.0036337 L44.576498,24.6453943 L46.5536383,24.6453943 Z M60.4912304,29.82004 C60.2703596,29.6933133 60.029899,29.6000298 59.7698414,29.5401867 C59.5097838,29.4803435 59.2230123,29.4504224 58.9095182,29.4504224 C57.7980392,29.4504224 56.9448493,29.8077158 56.3499231,30.5223133 C55.7549968,31.2369108 55.4575381,32.2630293 55.4575381,33.6006995 L55.4575381,39.8313953 L53.4803979,39.8313953 L53.4803979,28.0036337 L55.4575381,28.0036337 L55.4575381,29.841161 C55.8707803,29.1230433 56.4086996,28.5897433 57.0713121,28.241245 C57.7339246,27.8927467 58.5390223,27.7185002 59.4866294,27.7185002 C59.6220019,27.7185002 59.7716218,27.7273005 59.9354937,27.7449014 C60.0993656,27.7625024 60.281047,27.7889033 60.4805432,27.8241052 L60.4912304,29.82004 Z M67.0759982,29.3659384 C66.0215181,29.3659384 65.1879213,29.7725136 64.5751829,30.5856763 C63.9624445,31.398839 63.6560799,32.5129608 63.6560799,33.928075 C63.6560799,35.3431893 63.9606633,36.4573111 64.5698393,37.2704737 C65.1790153,38.0836364 66.0143932,38.4902117 67.0759982,38.4902117 C68.1233534,38.4902117 68.9533878,38.0818764 69.5661262,37.2651935 C70.1788647,36.4485106 70.4852293,35.3361489 70.4852293,33.928075 C70.4852293,32.5270415 70.1788647,31.4164399 69.5661262,30.5962368 C68.9533878,29.7760338 68.1233534,29.3659384 67.0759982,29.3659384 L67.0759982,29.3659384 Z M67.0759982,27.7185002 C68.7859659,27.7185002 70.1289829,28.2676408 71.1050895,29.3659384 C72.081196,30.4642361 72.569242,31.9849331 72.569242,33.928075 C72.569242,35.8641766 72.081196,37.3831136 71.1050895,38.4849314 C70.1289829,39.5867492 68.7859659,40.1376499 67.0759982,40.1376499 C65.3589056,40.1376499 64.0141074,39.5867492 63.0415633,38.4849314 C62.0690191,37.3831136 61.5827544,35.8641766 61.5827544,33.928075 C61.5827544,31.9849331 62.0690191,30.4642361 63.0415633,29.3659384 C64.0141074,28.2676408 65.3589056,27.7185002 67.0759982,27.7185002 L67.0759982,27.7185002 Z M76.193643,23.3992551 L78.160096,23.3992551 L78.160096,39.8313953 L76.193643,39.8313953 L76.193643,23.3992551 Z M82.6394765,23.3992551 L84.6059296,23.3992551 L84.6059296,39.8313953 L82.6394765,39.8313953 L82.6394765,23.3992551 Z M99.3236906,33.4317315 L99.3236906,34.3821766 L90.2822815,34.3821766 C90.3677799,35.7198468 90.7756723,36.738925 91.505971,37.4394418 C92.2362697,38.1399585 93.253329,38.4902117 94.5571794,38.4902117 C95.3124152,38.4902117 96.0444841,38.3986882 96.7534082,38.2156386 C97.4623323,38.032589 98.1659022,37.7580187 98.8641391,37.3919195 L98.8641391,39.2294468 C98.1587774,39.5251423 97.4356144,39.7504307 96.6946284,39.9053189 C95.9536424,40.060207 95.2019803,40.1376499 94.4396197,40.1376499 C92.5301558,40.1376499 91.0179258,39.5885093 89.9028843,38.4902117 C88.7878429,37.391914 88.2303305,35.9064183 88.2303305,34.0336801 C88.2303305,32.0975784 88.7593438,30.5610408 89.8173864,29.4240212 C90.8754289,28.2870015 92.3021618,27.7185002 94.0976279,27.7185002 C95.7078475,27.7185002 96.9813981,28.2306794 97.9183179,29.2550531 C98.8552377,30.2794269 99.3236906,31.6716391 99.3236906,33.4317315 L99.3236906,33.4317315 Z M97.3572376,32.8614644 C97.3429878,31.7983686 97.0419668,30.9500168 96.4541654,30.3163835 C95.866364,29.6827503 95.0879841,29.3659384 94.1190024,29.3659384 C93.0217731,29.3659384 92.1436466,29.6721899 91.4845965,30.284702 C90.8255465,30.8972142 90.4461531,31.7596465 90.346405,32.8720249 L97.3572376,32.8614644 Z M109.852052,29.82004 C109.631181,29.6933133 109.39072,29.6000298 109.130663,29.5401867 C108.870605,29.4803435 108.583834,29.4504224 108.270339,29.4504224 C107.15886,29.4504224 106.305671,29.8077158 105.710744,30.5223133 C105.115818,31.2369108 104.818359,32.2630293 104.818359,33.6006995 L104.818359,39.8313953 L102.841219,39.8313953 L102.841219,28.0036337 L104.818359,28.0036337 L104.818359,29.841161 C105.231602,29.1230433 105.769521,28.5897433 106.432133,28.241245 C107.094746,27.8927467 107.899844,27.7185002 108.847451,27.7185002 C108.982823,27.7185002 109.132443,27.7273005 109.296315,27.7449014 C109.460187,27.7625024 109.641868,27.7889033 109.841364,27.8241052 L109.852052,29.82004 Z" id="Controller"></path>
            </g>
        </g>
    </g>
</svg>