<?xml version="1.0" encoding="UTF-8" standalone="no"?>
<svg width="249px" height="78px" viewBox="0 0 249 78" version="1.1" xmlns="http://www.w3.org/2000/svg" xmlns:xlink="http://www.w3.org/1999/xlink" xmlns:sketch="http://www.bohemiancoding.com/sketch/ns">
    <!-- Generator: Sketch 3.4.3 (16044) - http://www.bohemiancoding.com/sketch -->
    <title>logo-light-sm</title>
    <desc>Created with Sketch.</desc>
    <defs></defs>
    <g id="Page-1" stroke="none" stroke-width="1" fill="none" fill-rule="evenodd" sketch:type="MSPage">
        <g id="logo-light-sm" sketch:type="MSLayerGroup">
            <g id="logo-icon" sketch:type="MSShapeGroup">
                <rect id="Rectangle-11" fill="#CD9987" x="11.8348551" y="5.45454545" width="26.9724604" height="12"></rect>
                <path d="M61.5257206,11.4545455 L38.4064688,22.9090909 L38.4064688,0 L61.5257206,11.4545455 L61.5257206,11.4545455 Z" id="Triangle-1" fill="#CD9987"></path>
                <rect id="Rectangle-11" fill="#9DB2A7" transform="translate(52.718387, 66.545455) scale(-1, 1) translate(-52.718387, -66.545455) " x="39.2321564" y="60.5454545" width="26.9724604" height="12"></rect>
                <path d="M16.5137513,66.5454545 L39.633003,78 L39.633003,55.0909091 L16.5137513,66.5454545 L16.5137513,66.5454545 Z" id="Triangle-1" fill="#9DB2A7"></path>
                <path d="M72.3852764,11.679979 L72.3852764,38.4072517 L60.2751921,38.4072517 L60.2751921,11.679979 L72.3852764,11.679979 L72.3852764,11.679979 Z" id="Rectangle-11" fill="#CD9987"></path>
                <path d="M66.5409566,60.8778409 L54.9813307,37.96875 L78.1005825,37.96875 L66.5409566,60.8778409 L66.5409566,60.8778409 Z" id="Triangle-1" fill="#CD9987"></path>
                <path d="M5.50458375,39.8181818 L5.50458375,66.5454545 L17.614668,66.5454545 L17.614668,39.8181818 L5.50458375,39.8181818 L5.50458375,39.8181818 Z" id="Rectangle-11" fill="#9DB2A7"></path>
                <path d="M11.5596259,17.3070501 L0,40.216141 L23.1192518,40.216141 L11.5596259,17.3070501 L11.5596259,17.3070501 Z" id="Triangle-1" fill="#9DB2A7"></path>
            </g>
            <g id="logo-text" transform="translate(97.251913, 14.738372)" fill="#FFFFFF" sketch:type="MSShapeGroup">
                <path d="M0.227224097,0 L2.9166343,0 L2.9166343,8.1309048 L12.6890457,8.1309048 L12.6890457,0 L15.3784559,0 L15.3784559,19.8356877 L12.6890457,19.8356877 L12.6890457,10.3894895 L2.9166343,10.3894895 L2.9166343,19.8356877 L0.227224097,19.8356877 L0.227224097,0 Z M33.833313,11.7844976 L33.833313,12.9802189 L22.5697435,12.9802189 C22.6762553,14.6630944 23.1843979,15.9451605 24.0941864,16.8264558 C25.0039749,17.707751 26.2710029,18.1483921 27.8953083,18.1483921 C28.8361627,18.1483921 29.7481566,18.0332497 30.6313172,17.8029615 C31.5144777,17.5726733 32.3909682,17.2272461 33.2608148,16.7666697 L33.2608148,19.0783975 C32.3820922,19.4504016 31.4811931,19.733829 30.5580906,19.9286882 C29.6349881,20.1235475 28.6985857,20.2209757 27.7488552,20.2209757 C25.3700911,20.2209757 23.4861914,19.5301214 22.0970996,18.1483921 C20.7080079,16.7666628 20.0134724,14.8978134 20.0134724,12.5417878 C20.0134724,10.1060471 20.6725044,8.17298362 21.9905883,6.74253952 C23.3086722,5.31209541 25.0860617,4.59688408 27.32281,4.59688408 C29.3287828,4.59688408 30.9153414,5.24123856 32.0825336,6.52996684 C33.2497257,7.81869512 33.833313,9.57018787 33.833313,11.7844976 L33.833313,11.7844976 Z M31.3835532,11.0670649 C31.3658012,9.72962176 30.9907964,8.66234047 30.2585276,7.86518895 C29.5262588,7.06803744 28.5565719,6.66946766 27.3494379,6.66946766 C25.9825361,6.66946766 24.8885873,7.05475178 24.0675586,7.82533158 C23.2465299,8.59591137 22.7738908,9.68090688 22.649627,11.0803507 L31.3835532,11.0670649 Z M45.0853437,12.3557867 C43.1059989,12.3557867 41.7346797,12.5816429 40.971345,13.0333621 C40.2080102,13.4850813 39.8263485,14.2556495 39.8263485,15.3450899 C39.8263485,16.2130994 40.1125948,16.9017394 40.6850958,17.4110306 C41.2575969,17.9203219 42.036453,18.1749637 43.0216874,18.1749637 C44.3797132,18.1749637 45.4692241,17.6944657 46.2902528,16.7334552 C47.1112814,15.7724448 47.5217896,14.4948072 47.5217896,12.9005042 L47.5217896,12.3557867 L45.0853437,12.3557867 Z M49.9715494,11.3460665 L49.9715494,19.8356877 L47.5217896,19.8356877 L47.5217896,17.577103 C46.9626025,18.4805414 46.2658481,19.1470386 45.4315054,19.5766147 C44.5971628,20.0061908 43.5764398,20.2209757 42.3693057,20.2209757 C40.8426362,20.2209757 39.6288633,19.7936203 38.7279508,18.9388967 C37.8270382,18.0841731 37.3765887,16.9393922 37.3765887,15.5045194 C37.3765887,13.8305013 37.9379864,12.5683636 39.0607986,11.7180687 C40.1836108,10.8677737 41.8589279,10.4426326 44.0868003,10.4426326 L47.5217896,10.4426326 L47.5217896,10.2034884 C47.5217896,9.07861901 47.1512228,8.20840833 46.410078,7.59283021 C45.6689332,6.9772521 44.6282395,6.66946766 43.2879656,6.66946766 C42.435871,6.66946766 41.6059788,6.77132438 40.7982641,6.97504088 C39.9905494,7.17875738 39.2139123,7.48432754 38.4683295,7.89176054 L38.4683295,5.63317587 C39.3648041,5.28774355 40.2346376,5.02867319 41.0778562,4.85595703 C41.9210749,4.68324087 42.7420912,4.59688408 43.54093,4.59688408 C45.6977945,4.59688408 47.3087617,5.15488177 48.37388,6.2708939 C49.4389983,7.38690602 49.9715494,9.0786133 49.9715494,11.3460665 L49.9715494,11.3460665 Z M57.8951022,0.730718568 L57.8951022,4.95560047 L62.9410748,4.95560047 L62.9410748,6.85546875 L57.8951022,6.85546875 L57.8951022,14.9332304 C57.8951022,16.1466721 58.0615244,16.9260975 58.3943739,17.2715298 C58.7272233,17.6169621 59.4040071,17.7896757 60.4247455,17.7896757 L62.9410748,17.7896757 L62.9410748,19.8356877 L60.4247455,19.8356877 C58.5341605,19.8356877 57.2294102,19.4836177 56.5104554,18.7794672 C55.7915005,18.0753167 55.4320285,16.7932506 55.4320285,14.9332304 L55.4320285,6.85546875 L53.6346504,6.85546875 L53.6346504,4.95560047 L55.4320285,4.95560047 L55.4320285,0.730718568 L57.8951022,0.730718568 Z M78.1091709,17.6036746 L78.1091709,25.4954351 L75.6460972,25.4954351 L75.6460972,4.95560047 L78.1091709,4.95560047 L78.1091709,7.21418514 C78.623978,6.32846123 79.2741342,5.6708211 80.059659,5.241245 C80.8451837,4.81166891 81.7838051,4.59688408 82.8755513,4.59688408 C84.6862524,4.59688408 86.157425,5.31430969 87.2891131,6.74918241 C88.4208013,8.18405514 88.9866369,10.0706188 88.9866369,12.4089299 C88.9866369,14.747241 88.4208013,16.6338046 87.2891131,18.0686773 C86.157425,19.5035501 84.6862524,20.2209757 82.8755513,20.2209757 C81.7838051,20.2209757 80.8451837,20.0061908 80.059659,19.5766147 C79.2741342,19.1470386 78.623978,18.4893985 78.1091709,17.6036746 L78.1091709,17.6036746 Z M86.4436797,12.4089299 C86.4436797,10.6109103 86.0731129,9.20041618 85.3319681,8.17740507 C84.5908233,7.15439396 83.5723192,6.64289608 82.2764253,6.64289608 C80.9805314,6.64289608 79.9620273,7.15439396 79.2208825,8.17740507 C78.4797377,9.20041618 78.1091709,10.6109103 78.1091709,12.4089299 C78.1091709,14.2069494 78.4797377,15.6174436 79.2208825,16.6404547 C79.9620273,17.6634658 80.9805314,18.1749637 82.2764253,18.1749637 C83.5723192,18.1749637 84.5908233,17.6634658 85.3319681,16.6404547 C86.0731129,15.6174436 86.4436797,14.2069494 86.4436797,12.4089299 L86.4436797,12.4089299 Z M93.2488639,13.9633676 L93.2488639,4.95560047 L95.6986237,4.95560047 L95.6986237,13.870367 C95.6986237,15.278668 95.9737751,16.3348779 96.5240862,17.0390284 C97.0743973,17.7431789 97.8998516,18.0952489 99.0004739,18.0952489 C100.322996,18.0952489 101.368127,17.6745364 102.1359,16.8330987 C102.903673,15.9916609 103.287553,14.8446657 103.287553,13.3920785 L103.287553,4.95560047 L105.737313,4.95560047 L105.737313,19.8356877 L103.287553,19.8356877 L103.287553,17.5505314 C102.692862,18.4539698 102.002765,19.1248956 101.21724,19.5633289 C100.431715,20.0017623 99.5197216,20.2209757 98.4812313,20.2209757 C96.7681661,20.2209757 95.4678537,19.6895493 94.5802551,18.6266806 C93.6926565,17.5638119 93.2488639,16.0093898 93.2488639,13.9633676 L93.2488639,13.9633676 Z M122.847465,7.81204578 C123.459908,6.71374814 124.192166,5.90332293 125.044261,5.38074582 C125.896355,4.85816872 126.899327,4.59688408 128.053205,4.59688408 C129.606502,4.59688408 130.804742,5.13938184 131.647961,6.22439362 C132.49118,7.30940541 132.912783,8.85275616 132.912783,10.8544922 L132.912783,19.8356877 L130.449709,19.8356877 L130.449709,10.9342069 C130.449709,9.50819145 130.196747,8.44976726 129.690816,7.75890262 C129.184885,7.06803797 128.412686,6.72261083 127.374195,6.72261083 C126.104929,6.72261083 125.101958,7.14332337 124.365251,7.98476108 C123.628544,8.82619879 123.260197,9.97319405 123.260197,11.4257812 L123.260197,19.8356877 L120.797123,19.8356877 L120.797123,10.9342069 C120.797123,9.49933421 120.544161,8.43869575 120.03823,7.75225972 C119.532299,7.06582369 118.751224,6.72261083 117.694981,6.72261083 C116.443467,6.72261083 115.449372,7.14553765 114.712665,7.99140398 C113.975958,8.83727031 113.60761,9.98205128 113.60761,11.4257812 L113.60761,19.8356877 L111.144537,19.8356877 L111.144537,4.95560047 L113.60761,4.95560047 L113.60761,7.26732831 C114.166798,6.35503268 114.836924,5.68189261 115.618011,5.2478879 C116.399098,4.81388319 117.326624,4.59688408 118.400619,4.59688408 C119.483489,4.59688408 120.404359,4.87145438 121.163255,5.4206032 C121.922152,5.96975202 122.48355,6.76689158 122.847465,7.81204578 L122.847465,7.81204578 Z M140.623313,17.6036746 L140.623313,25.4954351 L138.160239,25.4954351 L138.160239,4.95560047 L140.623313,4.95560047 L140.623313,7.21418514 C141.13812,6.32846123 141.788276,5.6708211 142.573801,5.241245 C143.359326,4.81166891 144.297947,4.59688408 145.389693,4.59688408 C147.200394,4.59688408 148.671567,5.31430969 149.803255,6.74918241 C150.934943,8.18405514 151.500779,10.0706188 151.500779,12.4089299 C151.500779,14.747241 150.934943,16.6338046 149.803255,18.0686773 C148.671567,19.5035501 147.200394,20.2209757 145.389693,20.2209757 C144.297947,20.2209757 143.359326,20.0061908 142.573801,19.5766147 C141.788276,19.1470386 141.13812,18.4893985 140.623313,17.6036746 L140.623313,17.6036746 Z M148.957822,12.4089299 C148.957822,10.6109103 148.587255,9.20041618 147.84611,8.17740507 C147.104965,7.15439396 146.086461,6.64289608 144.790567,6.64289608 C143.494673,6.64289608 142.476169,7.15439396 141.735025,8.17740507 C140.99388,9.20041618 140.623313,10.6109103 140.623313,12.4089299 C140.623313,14.2069494 140.99388,15.6174436 141.735025,16.6404547 C142.476169,17.6634658 143.494673,18.1749637 144.790567,18.1749637 C146.086461,18.1749637 147.104965,17.6634658 147.84611,16.6404547 C148.587255,15.6174436 148.957822,14.2069494 148.957822,12.4089299 L148.957822,12.4089299 Z" id="Heat-pump"></path>
                <path d="M16.1977052,31.8026435 L16.1977052,34.6325173 C15.2923547,33.7910796 14.3271057,33.162225 13.3019294,32.7459348 C12.2767531,32.3296445 11.1872422,32.1215025 10.033364,32.1215025 C7.76111169,32.1215025 6.0214446,32.8145711 4.81431055,34.200729 C3.6071765,35.5868869 3.00361853,37.5908072 3.00361853,40.21255 C3.00361853,42.8254355 3.6071765,44.8249272 4.81431055,46.2110851 C6.0214446,47.597243 7.76111169,48.2903116 10.033364,48.2903116 C11.1872422,48.2903116 12.2767531,48.0821696 13.3019294,47.6658794 C14.3271057,47.2495891 15.2923547,46.6207346 16.1977052,45.7792969 L16.1977052,48.582599 C15.2568508,49.2203202 14.2605363,49.698604 13.208732,50.0174646 C12.1569277,50.3363252 11.0452272,50.4957531 9.87359708,50.4957531 C6.86463794,50.4957531 4.49478532,49.5768283 2.76396811,47.7389512 C1.03315091,45.9010741 0.16775529,43.3922988 0.16775529,40.21255 C0.16775529,37.0239439 1.03315091,34.51074 2.76396811,32.6728629 C4.49478532,30.8349858 6.86463794,29.916061 9.87359708,29.916061 C11.0629792,29.916061 12.1835555,30.0732747 13.2353598,30.3877067 C14.2871641,30.7021387 15.2746027,31.1737796 16.1977052,31.8026435 L16.1977052,31.8026435 Z M26.4778204,36.9442451 C25.1641746,36.9442451 24.1256998,37.455743 23.362365,38.4787541 C22.5990303,39.5017652 22.2173686,40.9034023 22.2173686,42.6837073 C22.2173686,44.4640124 22.5968113,45.8656494 23.3557081,46.8886605 C24.1146049,47.9116716 25.1552986,48.4231695 26.4778204,48.4231695 C27.7825903,48.4231695 28.8166271,47.9094574 29.5799619,46.8820176 C30.3432967,45.8545779 30.7249583,44.4551551 30.7249583,42.6837073 C30.7249583,40.9211167 30.3432967,39.5239082 29.5799619,38.4920399 C28.8166271,37.4601715 27.7825903,36.9442451 26.4778204,36.9442451 L26.4778204,36.9442451 Z M26.4778204,34.8716615 C28.608057,34.8716615 30.2811552,35.5625158 31.4971652,36.9442451 C32.7131753,38.3259744 33.3211712,40.2391093 33.3211712,42.6837073 C33.3211712,45.119448 32.7131753,47.0303687 31.4971652,48.4165266 C30.2811552,49.8026845 28.608057,50.4957531 26.4778204,50.4957531 C24.3387079,50.4957531 22.6633907,49.8026845 21.4518187,48.4165266 C20.2402466,47.0303687 19.6344697,45.119448 19.6344697,42.6837073 C19.6344697,40.2391093 20.2402466,38.3259744 21.4518187,36.9442451 C22.6633907,35.5625158 24.3387079,34.8716615 26.4778204,34.8716615 L26.4778204,34.8716615 Z M50.2316145,41.1292696 L50.2316145,50.1104651 L47.7818547,50.1104651 L47.7818547,41.2089844 C47.7818547,39.8006834 47.5067033,38.7466877 46.9563922,38.0469658 C46.406081,37.347244 45.5806268,36.9973883 44.4800045,36.9973883 C43.1574827,36.9973883 42.11457,37.4181008 41.3512352,38.2595385 C40.5879005,39.1009762 40.2062388,40.2479715 40.2062388,41.7005587 L40.2062388,50.1104651 L37.7431651,50.1104651 L37.7431651,35.2303779 L40.2062388,35.2303779 L40.2062388,37.5421057 C40.7920539,36.6475246 41.4821514,35.9788131 42.2765521,35.5359511 C43.0709528,35.0930892 43.9873846,34.8716615 45.0258749,34.8716615 C46.7389402,34.8716615 48.0348146,35.4008736 48.9135372,36.4593137 C49.7922598,37.5177537 50.2316145,39.0743902 50.2316145,41.1292696 L50.2316145,41.1292696 Z M57.9954003,31.005496 L57.9954003,35.2303779 L63.0413729,35.2303779 L63.0413729,37.1302462 L57.9954003,37.1302462 L57.9954003,45.2080078 C57.9954003,46.4214496 58.1618226,47.2008749 58.494672,47.5463072 C58.8275215,47.8917396 59.5043052,48.0644531 60.5250436,48.0644531 L63.0413729,48.0644531 L63.0413729,50.1104651 L60.5250436,50.1104651 C58.6344586,50.1104651 57.3297083,49.7583951 56.6107535,49.0542446 C55.8917986,48.3500941 55.5323266,47.068028 55.5323266,45.2080078 L55.5323266,37.1302462 L53.7349485,37.1302462 L53.7349485,35.2303779 L55.5323266,35.2303779 L55.5323266,31.005496 L57.9954003,31.005496 Z M75.3585167,37.5155342 C75.0833611,37.3561039 74.7838011,37.2387472 74.4598276,37.1634607 C74.1358541,37.0881741 73.7786011,37.0505314 73.3880577,37.0505314 C72.0034039,37.0505314 70.9405206,37.5000296 70.1993758,38.3990393 C69.458231,39.2980491 69.0876641,40.5889723 69.0876641,42.2718477 L69.0876641,50.1104651 L66.6245904,50.1104651 L66.6245904,35.2303779 L69.0876641,35.2303779 L69.0876641,37.5421057 C69.6024713,36.6386674 70.2725982,35.9677416 71.0980648,35.5293082 C71.9235315,35.0908749 72.9265028,34.8716615 74.1070089,34.8716615 C74.2756527,34.8716615 74.4620456,34.8827329 74.6661932,34.904876 C74.8703409,34.9270191 75.0966751,34.9602332 75.3452027,35.0045194 L75.3585167,37.5155342 Z M83.5616616,36.9442451 C82.2480157,36.9442451 81.209541,37.455743 80.4462062,38.4787541 C79.6828714,39.5017652 79.3012098,40.9034023 79.3012098,42.6837073 C79.3012098,44.4640124 79.6806525,45.8656494 80.4395492,46.8886605 C81.198446,47.9116716 82.2391397,48.4231695 83.5616616,48.4231695 C84.8664315,48.4231695 85.9004683,47.9094574 86.6638031,46.8820176 C87.4271378,45.8545779 87.8087995,44.4551551 87.8087995,42.6837073 C87.8087995,40.9211167 87.4271378,39.5239082 86.6638031,38.4920399 C85.9004683,37.4601715 84.8664315,36.9442451 83.5616616,36.9442451 L83.5616616,36.9442451 Z M83.5616616,34.8716615 C85.6918982,34.8716615 87.3649964,35.5625158 88.5810064,36.9442451 C89.7970164,38.3259744 90.4050123,40.2391093 90.4050123,42.6837073 C90.4050123,45.119448 89.7970164,47.0303687 88.5810064,48.4165266 C87.3649964,49.8026845 85.6918982,50.4957531 83.5616616,50.4957531 C81.422549,50.4957531 79.7472319,49.8026845 78.5356598,48.4165266 C77.3240878,47.0303687 76.7183109,45.119448 76.7183109,42.6837073 C76.7183109,40.2391093 77.3240878,38.3259744 78.5356598,36.9442451 C79.7472319,35.5625158 81.422549,34.8716615 83.5616616,34.8716615 L83.5616616,34.8716615 Z M94.9202036,29.4377725 L97.3699634,29.4377725 L97.3699634,50.1104651 L94.9202036,50.1104651 L94.9202036,29.4377725 Z M102.950268,29.4377725 L105.400028,29.4377725 L105.400028,50.1104651 L102.950268,50.1104651 L102.950268,29.4377725 Z M123.735059,42.0592751 L123.735059,43.2549964 L112.47149,43.2549964 C112.578002,44.9378718 113.086144,46.2199379 113.995933,47.1012332 C114.905721,47.9825285 116.172749,48.4231695 117.797055,48.4231695 C118.737909,48.4231695 119.649903,48.3080271 120.533064,48.0777389 C121.416224,47.8474507 122.292715,47.5020236 123.162561,47.0414471 L123.162561,49.353175 C122.283839,49.725179 121.38294,50.0086064 120.459837,50.2034657 C119.536735,50.3983249 118.600332,50.4957531 117.650602,50.4957531 C115.271838,50.4957531 113.387938,49.8048988 111.998846,48.4231695 C110.609754,47.0414402 109.915219,45.1725908 109.915219,42.8165652 C109.915219,40.3808245 110.574251,38.4477611 111.892335,37.017317 C113.210419,35.5868728 114.987808,34.8716615 117.224556,34.8716615 C119.230529,34.8716615 120.817088,35.516016 121.98428,36.8047443 C123.151472,38.0934726 123.735059,39.8449653 123.735059,42.0592751 L123.735059,42.0592751 Z M121.2853,41.3418423 C121.267548,40.0043992 120.892543,38.9371179 120.160274,38.1399664 C119.428005,37.3428149 118.458318,36.9442451 117.251184,36.9442451 C115.884283,36.9442451 114.790334,37.3295292 113.969305,38.100109 C113.148276,38.8706888 112.675637,39.9556843 112.551373,41.3551281 L121.2853,41.3418423 Z M136.851038,37.5155342 C136.575882,37.3561039 136.276322,37.2387472 135.952349,37.1634607 C135.628375,37.0881741 135.271122,37.0505314 134.880579,37.0505314 C133.495925,37.0505314 132.433042,37.5000296 131.691897,38.3990393 C130.950752,39.2980491 130.580185,40.5889723 130.580185,42.2718477 L130.580185,50.1104651 L128.117112,50.1104651 L128.117112,35.2303779 L130.580185,35.2303779 L130.580185,37.5421057 C131.094993,36.6386674 131.765119,35.9677416 132.590586,35.5293082 C133.416053,35.0908749 134.419024,34.8716615 135.59953,34.8716615 C135.768174,34.8716615 135.954567,34.8827329 136.158714,34.904876 C136.362862,34.9270191 136.589196,34.9602332 136.837724,35.0045194 L136.851038,37.5155342 Z" id="Controller"></path>
            </g>
        </g>
    </g>
</svg>