<?xml version="1.0" encoding="UTF-8" standalone="no"?>
<svg width="200px" height="62px" viewBox="0 0 200 62" version="1.1" xmlns="http://www.w3.org/2000/svg" xmlns:xlink="http://www.w3.org/1999/xlink" xmlns:sketch="http://www.bohemiancoding.com/sketch/ns">
    <!-- Generator: Sketch 3.4.3 (16044) - http://www.bohemiancoding.com/sketch -->
    <title>logo-light-sm</title>
    <desc>Created with Sketch.</desc>
    <defs></defs>
    <g id="Page-1" stroke="none" stroke-width="1" fill="none" fill-rule="evenodd" sketch:type="MSPage">
        <g id="logo-light-sm" sketch:type="MSLayerGroup">
            <g id="logo-icon" sketch:type="MSShapeGroup">
                <rect id="Rectangle-11" fill="#CD9987" x="9.47731422" y="4.33566434" width="21.5994603" height="9.53846154"></rect>
                <path d="M49.269601,9.1048951 L30.7557778,18.2097902 L30.7557778,0 L49.269601,9.1048951 L49.269601,9.1048951 Z" id="Triangle-1" fill="#CD9987"></path>
                <rect id="Rectangle-11" fill="#9DB2A7" transform="translate(42.216716, 52.895105) scale(-1, 1) translate(-42.216716, -52.895105) " x="31.4169858" y="48.1258741" width="21.5994603" height="9.53846154"></rect>
                <path d="M13.2241594,52.8951049 L31.7379825,62 L31.7379825,43.7902098 L13.2241594,52.8951049 L13.2241594,52.8951049 Z" id="Triangle-1" fill="#9DB2A7"></path>
                <path d="M57.9658986,9.28408586 L57.9658986,30.5288411 L48.2681817,30.5288411 L48.2681817,9.28408586 L57.9658986,9.28408586 L57.9658986,9.28408586 Z" id="Rectangle-11" fill="#CD9987"></path>
                <path d="M53.2857859,48.3900787 L44.0288744,30.1802885 L62.5426975,30.1802885 L53.2857859,48.3900787 L53.2857859,48.3900787 Z" id="Triangle-1" fill="#CD9987"></path>
                <path d="M4.40805312,31.6503497 L4.40805312,52.8951049 L14.10577,52.8951049 L14.10577,31.6503497 L4.40805312,31.6503497 L4.40805312,31.6503497 Z" id="Rectangle-11" fill="#9DB2A7"></path>
                <path d="M9.25691156,13.756886 L0,31.9666762 L18.5138231,31.9666762 L9.25691156,13.756886 L9.25691156,13.756886 Z" id="Triangle-1" fill="#9DB2A7"></path>
            </g>
            <g id="logo-text" transform="translate(77.879022, 11.715116)" fill="#FFFFFF" sketch:type="MSShapeGroup">
                <path d="M0.181960332,0 L2.33563146,0 L2.33563146,6.46302689 L10.1613473,6.46302689 L10.1613473,0 L12.3150184,0 L12.3150184,15.7668287 L10.1613473,15.7668287 L10.1613473,8.25831214 L2.33563146,8.25831214 L2.33563146,15.7668287 L0.181960332,15.7668287 L0.181960332,0 Z M27.0936092,9.36716479 L27.0936092,10.3176099 L18.0737786,10.3176099 C18.159073,11.6552801 18.5659919,12.6743583 19.2945477,13.3748751 C20.0231034,14.0753919 21.0377354,14.425645 22.3384739,14.425645 C23.0919072,14.425645 23.822229,14.3341216 24.5294611,14.1510719 C25.2366933,13.9680223 25.9385841,13.693452 26.6351544,13.3273528 L26.6351544,15.1648801 C25.9314762,15.4605756 25.2100391,15.6858641 24.4708216,15.8407522 C23.731604,15.9956403 22.981736,16.0730832 22.2211948,16.0730832 C20.3162881,16.0730832 18.8076672,15.5239426 17.6952869,14.425645 C16.5829067,13.3273473 16.0267249,11.8418517 16.0267249,9.96911337 C16.0267249,8.03301176 16.5544757,6.49647416 17.609993,5.35945449 C18.6655104,4.22243481 20.0888382,3.6539335 21.8800192,3.6539335 C23.4863958,3.6539335 24.7569069,4.1661127 25.6915906,5.19048646 C26.6262743,6.21486023 27.0936092,7.60707241 27.0936092,9.36716479 L27.0936092,9.36716479 Z M25.1318494,8.79689771 C25.1176336,7.73380192 24.817331,6.88545012 24.2309325,6.25181686 C23.6445339,5.61818361 22.8680118,5.30137173 21.9013427,5.30137173 C20.8067321,5.30137173 19.9307013,5.60762321 19.2732242,6.22013536 C18.6157471,6.8326475 18.2372591,7.69507983 18.1377491,8.80745821 L25.1318494,8.79689771 Z M36.1041996,9.82126635 C34.5191466,9.82126635 33.4209985,10.0007931 32.8097225,10.3598519 C32.1984464,10.7189108 31.892813,11.3314137 31.892813,12.1973792 C31.892813,12.8873354 32.122038,13.4347159 32.5804951,13.8395372 C33.0389521,14.2443584 33.6626576,14.446766 34.4516301,14.446766 C35.5391329,14.446766 36.4116097,14.0648317 37.0690869,13.3009516 C37.726564,12.5370715 38.0552977,11.5215134 38.0552977,10.2542469 L38.0552977,9.82126635 L36.1041996,9.82126635 Z M40.0170575,9.01866824 L40.0170575,15.7668287 L38.0552977,15.7668287 L38.0552977,13.9715434 C37.6075024,14.6896611 37.0495437,15.219441 36.3814048,15.5608989 C35.7132658,15.9023568 34.8958741,16.0730832 33.929205,16.0730832 C32.7066529,16.0730832 31.7346675,15.7333905 31.0132196,15.0539948 C30.2917717,14.3745992 29.9310531,13.4646451 29.9310531,12.3241052 C29.9310531,10.9934754 30.3806186,9.99023775 31.279763,9.31436228 C32.1789074,8.63848681 33.5204961,8.30055414 35.3045692,8.30055414 L38.0552977,8.30055414 L38.0552977,8.11046512 C38.0552977,7.21633819 37.7585489,6.52463226 37.1650425,6.03532658 C36.5715361,5.5460209 35.7381519,5.30137173 34.6648649,5.30137173 C33.9825102,5.30137173 33.3179352,5.38233476 32.6711199,5.54426326 C32.0243045,5.70619176 31.402376,5.94908087 30.8053157,6.27293786 L30.8053157,4.47765262 C31.5232096,4.20307821 32.2197696,3.99715049 32.8950164,3.85986328 C33.5702632,3.72257608 34.2277304,3.6539335 34.8674379,3.6539335 C36.5946482,3.6539335 37.8847056,4.09747013 38.7376489,4.98455669 C39.5905922,5.87164324 40.0170575,7.21633365 40.0170575,9.01866824 L40.0170575,9.01866824 Z M46.3622133,0.58082758 L46.3622133,3.93906704 L50.4030121,3.93906704 L50.4030121,5.44921875 L46.3622133,5.44921875 L46.3622133,11.8700036 C46.3622133,12.8345343 46.4954837,13.4540775 46.7620285,13.7286519 C47.0285733,14.0032263 47.5705396,14.1405114 48.3879436,14.1405114 L50.4030121,14.1405114 L50.4030121,15.7668287 L48.3879436,15.7668287 C46.8739692,15.7668287 45.8291293,15.4869782 45.2533925,14.9272688 C44.6776558,14.3675594 44.3897917,13.3484812 44.3897917,11.8700036 L44.3897917,5.44921875 L42.9504571,5.44921875 L42.9504571,3.93906704 L44.3897917,3.93906704 L44.3897917,0.58082758 L46.3622133,0.58082758 Z M62.5495751,13.9926644 L62.5495751,20.2656023 L60.5771535,20.2656023 L60.5771535,3.93906704 L62.5495751,3.93906704 L62.5495751,5.73435229 C62.961831,5.03031534 63.482474,4.50757574 64.1115197,4.16611782 C64.7405654,3.8246599 65.4922105,3.6539335 66.3664774,3.6539335 C67.816481,3.6539335 68.9945913,4.22419488 69.9008436,5.36473474 C70.8070959,6.5052746 71.2602152,8.00485081 71.2602152,9.86350836 C71.2602152,11.7221659 70.8070959,13.2217421 69.9008436,14.362282 C68.9945913,15.5028218 67.816481,16.0730832 66.3664774,16.0730832 C65.4922105,16.0730832 64.7405654,15.9023568 64.1115197,15.5608989 C63.482474,15.219441 62.961831,14.6967014 62.5495751,13.9926644 L62.5495751,13.9926644 Z M69.2238232,9.86350836 C69.2238232,8.43431335 68.9270745,7.31315132 68.3335681,6.49998864 C67.7400617,5.68682597 66.9244468,5.28025073 65.8866991,5.28025073 C64.8489514,5.28025073 64.0333366,5.68682597 63.4398302,6.49998864 C62.8463238,7.31315132 62.5495751,8.43431335 62.5495751,9.86350836 C62.5495751,11.2927034 62.8463238,12.4138654 63.4398302,13.2270281 C64.0333366,14.0401907 64.8489514,14.446766 65.8866991,14.446766 C66.9244468,14.446766 67.7400617,14.0401907 68.3335681,13.2270281 C68.9270745,12.4138654 69.2238232,11.2927034 69.2238232,9.86350836 L69.2238232,9.86350836 Z M74.673393,11.099087 L74.673393,3.93906704 L76.6351528,3.93906704 L76.6351528,11.0251635 C76.6351528,12.1445823 76.8554932,12.9841337 77.2961806,13.5438431 C77.736868,14.1035525 78.3978892,14.383403 79.2792639,14.383403 C80.3383352,14.383403 81.1752733,14.0489904 81.7901033,13.3801553 C82.4049333,12.7113202 82.7123436,11.7996061 82.7123436,10.6449855 L82.7123436,3.93906704 L84.6741035,3.93906704 L84.6741035,15.7668287 L82.7123436,15.7668287 L82.7123436,13.9504224 C82.2361169,14.6685401 81.683489,15.2018401 81.0544433,15.5503384 C80.4253976,15.8988367 79.6950759,16.0730832 78.8634561,16.0730832 C77.491639,16.0730832 76.4503529,15.6506674 75.7395668,14.805823 C75.0287807,13.9609787 74.673393,12.7254124 74.673393,11.099087 L74.673393,11.099087 Z M98.3758587,6.20957485 C98.8663011,5.33656904 99.4526908,4.69238489 100.135045,4.27700309 C100.8174,3.86162129 101.620576,3.6539335 102.544598,3.6539335 C103.788474,3.6539335 104.748021,4.08514967 105.423268,4.94759493 C106.098514,5.8100402 106.436133,7.03680618 106.436133,8.62792969 L106.436133,15.7668287 L104.463711,15.7668287 L104.463711,8.6912927 C104.463711,7.55779321 104.26114,6.71648167 103.855992,6.16733285 C103.450844,5.61818403 102.832469,5.34361374 102.00085,5.34361374 C100.984426,5.34361374 100.181249,5.67802627 99.5912968,6.34686137 C99.0013444,7.01569648 98.7063725,7.92741065 98.7063725,9.08203125 L98.7063725,15.7668287 L96.733951,15.7668287 L96.733951,8.6912927 C96.733951,7.55075284 96.53138,6.70768123 96.1262319,6.1620526 C95.7210838,5.61642396 95.0956014,5.34361374 94.249766,5.34361374 C93.2475576,5.34361374 92.4514891,5.67978634 91.8615366,6.35214162 C91.2715841,7.02449691 90.9766123,7.93445102 90.9766123,9.08203125 L90.9766123,15.7668287 L89.0041908,15.7668287 L89.0041908,3.93906704 L90.9766123,3.93906704 L90.9766123,5.7765943 C91.4244076,5.05143624 91.961043,4.51637618 92.5865348,4.17139807 C93.2120266,3.82641997 93.9547869,3.6539335 94.8148381,3.6539335 C95.6819971,3.6539335 96.4194267,3.87218168 97.0271488,4.30868459 C97.6348709,4.7451875 98.0844364,5.37881125 98.3758587,6.20957485 L98.3758587,6.20957485 Z M112.610701,13.9926644 L112.610701,20.2656023 L110.638279,20.2656023 L110.638279,3.93906704 L112.610701,3.93906704 L112.610701,5.73435229 C113.022957,5.03031534 113.5436,4.50757574 114.172645,4.16611782 C114.801691,3.8246599 115.553336,3.6539335 116.427603,3.6539335 C117.877607,3.6539335 119.055717,4.22419488 119.961969,5.36473474 C120.868222,6.5052746 121.321341,8.00485081 121.321341,9.86350836 C121.321341,11.7221659 120.868222,13.2217421 119.961969,14.362282 C119.055717,15.5028218 117.877607,16.0730832 116.427603,16.0730832 C115.553336,16.0730832 114.801691,15.9023568 114.172645,15.5608989 C113.5436,15.219441 113.022957,14.6967014 112.610701,13.9926644 L112.610701,13.9926644 Z M119.284949,9.86350836 C119.284949,8.43431335 118.9882,7.31315132 118.394694,6.49998864 C117.801187,5.68682597 116.985573,5.28025073 115.947825,5.28025073 C114.910077,5.28025073 114.094462,5.68682597 113.500956,6.49998864 C112.90745,7.31315132 112.610701,8.43431335 112.610701,9.86350836 C112.610701,11.2927034 112.90745,12.4138654 113.500956,13.2270281 C114.094462,14.0401907 114.910077,14.446766 115.947825,14.446766 C116.985573,14.446766 117.801187,14.0401907 118.394694,13.2270281 C118.9882,12.4138654 119.284949,11.2927034 119.284949,9.86350836 L119.284949,9.86350836 Z" id="Heat-pump"></path>
                <path d="M12.9710707,25.2790243 L12.9710707,27.5284112 C12.2460689,26.8595761 11.4731006,26.3597173 10.6521427,26.0288199 C9.83118472,25.6979226 8.95870786,25.5324764 8.03468593,25.5324764 C6.21507351,25.5324764 4.82195364,26.083377 3.85528454,27.1851949 C2.88861544,28.2870127 2.40528815,29.8798724 2.40528815,31.9638218 C2.40528815,34.0407308 2.88861544,35.6300703 3.85528454,36.7318882 C4.82195364,37.833706 6.21507351,38.3846066 8.03468593,38.3846066 C8.95870786,38.3846066 9.83118472,38.2191604 10.6521427,37.8882631 C11.4731006,37.5573657 12.2460689,37.057507 12.9710707,36.3886719 L12.9710707,38.6169377 C12.2176375,39.1238443 11.419792,39.5040185 10.5775105,39.7574718 C9.73522897,40.0109251 8.84498273,40.1376499 7.90674507,40.1376499 C5.49718018,40.1376499 3.59940976,39.4072225 2.21337686,37.9463458 C0.827343957,36.4854692 0.134337902,34.4913144 0.134337902,31.9638218 C0.134337902,29.4292887 0.827343957,27.4316139 2.21337686,25.9707372 C3.59940976,24.5098605 5.49718018,23.7794331 7.90674507,23.7794331 C8.85919845,23.7794331 9.75655244,23.9043978 10.598834,24.1543309 C11.4411155,24.4042641 12.2318532,24.7791581 12.9710707,25.2790243 L12.9710707,25.2790243 Z M21.2033542,29.3659384 C20.1513908,29.3659384 19.3197835,29.7725136 18.7085075,30.5856763 C18.0972314,31.398839 17.791598,32.5129608 17.791598,33.928075 C17.791598,35.3431893 18.0954545,36.4573111 18.7031766,37.2704737 C19.3108987,38.0836364 20.1442829,38.4902117 21.2033542,38.4902117 C22.2482098,38.4902117 23.0762632,38.0818764 23.6875392,37.2651935 C24.2988153,36.4485106 24.6044487,35.3361489 24.6044487,33.928075 C24.6044487,32.5270415 24.2988153,31.4164399 23.6875392,30.5962368 C23.0762632,29.7760338 22.2482098,29.3659384 21.2033542,29.3659384 L21.2033542,29.3659384 Z M21.2033542,27.7185002 C22.9092409,27.7185002 24.2490526,28.2676408 25.2228295,29.3659384 C26.1966065,30.4642361 26.6834877,31.9849331 26.6834877,33.928075 C26.6834877,35.8641766 26.1966065,37.3831136 25.2228295,38.4849314 C24.2490526,39.5867492 22.9092409,40.1376499 21.2033542,40.1376499 C19.4903597,40.1376499 18.1487711,39.5867492 17.178548,38.4849314 C16.208325,37.3831136 15.7232208,35.8641766 15.7232208,33.928075 C15.7232208,31.9849331 16.208325,30.4642361 17.178548,29.3659384 C18.1487711,28.2676408 19.4903597,27.7185002 21.2033542,27.7185002 L21.2033542,27.7185002 Z M40.2253168,32.6924964 L40.2253168,39.8313953 L38.2635569,39.8313953 L38.2635569,32.7558594 C38.2635569,31.6364406 38.0432166,30.7986492 37.6025292,30.24246 C37.1618418,29.6862708 36.5008206,29.4081804 35.6194459,29.4081804 C34.5603746,29.4081804 33.7252134,29.7425929 33.1139374,30.4114281 C32.5026613,31.0802632 32.1970279,31.9919773 32.1970279,33.1465979 L32.1970279,39.8313953 L30.2246063,39.8313953 L30.2246063,28.0036337 L32.1970279,28.0036337 L32.1970279,29.841161 C32.6661467,29.1300837 33.2187746,28.5985437 33.8549282,28.2465253 C34.4910818,27.8945068 35.2249574,27.7185002 36.0565771,27.7185002 C37.4283943,27.7185002 38.4661265,28.1391559 39.1698047,28.9804801 C39.8734829,29.8218043 40.2253168,31.0591306 40.2253168,32.6924964 L40.2253168,32.6924964 Z M46.4425317,24.6453943 L46.4425317,28.0036337 L50.4833305,28.0036337 L50.4833305,29.5137854 L46.4425317,29.5137854 L46.4425317,35.9345703 C46.4425317,36.8991009 46.5758021,37.5186442 46.8423469,37.7932186 C47.1088917,38.067793 47.650858,38.2050781 48.468262,38.2050781 L50.4833305,38.2050781 L50.4833305,39.8313953 L48.468262,39.8313953 C46.9542876,39.8313953 45.9094477,39.5515449 45.333711,38.9918355 C44.7579742,38.4321261 44.4701102,37.4130479 44.4701102,35.9345703 L44.4701102,29.5137854 L43.0307755,29.5137854 L43.0307755,28.0036337 L44.4701102,28.0036337 L44.4701102,24.6453943 L46.4425317,24.6453943 Z M60.34686,29.82004 C60.1265163,29.6933133 59.8866296,29.6000298 59.6271926,29.5401867 C59.3677557,29.4803435 59.0816686,29.4504224 58.7689227,29.4504224 C57.6600964,29.4504224 56.8089428,29.8077158 56.2154364,30.5223133 C55.62193,31.2369108 55.3251812,32.2630293 55.3251812,33.6006995 L55.3251812,39.8313953 L53.3527597,39.8313953 L53.3527597,28.0036337 L55.3251812,28.0036337 L55.3251812,29.841161 C55.7374372,29.1230433 56.2740726,28.5897433 56.9351037,28.241245 C57.5961348,27.8927467 58.399311,27.7185002 59.3446566,27.7185002 C59.4797059,27.7185002 59.6289688,27.7273005 59.7924496,27.7449014 C59.9559304,27.7625024 60.1371781,27.7889033 60.3361982,27.8241052 L60.34686,29.82004 Z M66.9159123,29.3659384 C65.8639488,29.3659384 65.0323416,29.7725136 64.4210655,30.5856763 C63.8097895,31.398839 63.504156,32.5129608 63.504156,33.928075 C63.504156,35.3431893 63.8080125,36.4573111 64.4157347,37.2704737 C65.0234568,38.0836364 65.856841,38.4902117 66.9159123,38.4902117 C67.9607678,38.4902117 68.7888212,38.0818764 69.4000973,37.2651935 C70.0113733,36.4485106 70.3170068,35.3361489 70.3170068,33.928075 C70.3170068,32.5270415 70.0113733,31.4164399 69.4000973,30.5962368 C68.7888212,29.7760338 67.9607678,29.3659384 66.9159123,29.3659384 L66.9159123,29.3659384 Z M66.9159123,27.7185002 C68.6217989,27.7185002 69.9616106,28.2676408 70.9353876,29.3659384 C71.9091645,30.4642361 72.3960457,31.9849331 72.3960457,33.928075 C72.3960457,35.8641766 71.9091645,37.3831136 70.9353876,38.4849314 C69.9616106,39.5867492 68.6217989,40.1376499 66.9159123,40.1376499 C65.2029178,40.1376499 63.8613291,39.5867492 62.8911061,38.4849314 C61.9208831,37.3831136 61.4357788,35.8641766 61.4357788,33.928075 C61.4357788,31.9849331 61.9208831,30.4642361 62.8911061,29.3659384 C63.8613291,28.2676408 65.2029178,27.7185002 66.9159123,27.7185002 L66.9159123,27.7185002 Z M76.0117965,23.3992551 L77.9735564,23.3992551 L77.9735564,39.8313953 L76.0117965,39.8313953 L76.0117965,23.3992551 Z M82.4422463,23.3992551 L84.4040061,23.3992551 L84.4040061,39.8313953 L82.4422463,39.8313953 L82.4422463,23.3992551 Z M99.0866412,33.4317315 L99.0866412,34.3821766 L90.0668107,34.3821766 C90.152105,35.7198468 90.5590239,36.738925 91.2875797,37.4394418 C92.0161354,38.1399585 93.0307674,38.4902117 94.331506,38.4902117 C95.0849392,38.4902117 95.815261,38.3986882 96.5224932,38.2156386 C97.2297253,38.032589 97.9316161,37.7580187 98.6281865,37.3919195 L98.6281865,39.2294468 C97.9245082,39.5251423 97.2030712,39.7504307 96.4638536,39.9053189 C95.7246361,40.060207 94.974768,40.1376499 94.2142268,40.1376499 C92.3093201,40.1376499 90.8006992,39.5885093 89.688319,38.4902117 C88.5759387,37.391914 88.0197569,35.9064183 88.0197569,34.0336801 C88.0197569,32.0975784 88.5475077,30.5610408 89.6030251,29.4240212 C90.6585424,28.2870015 92.0818702,27.7185002 93.8730512,27.7185002 C95.4794278,27.7185002 96.7499389,28.2306794 97.6846226,29.2550531 C98.6193064,30.2794269 99.0866412,31.6716391 99.0866412,33.4317315 L99.0866412,33.4317315 Z M97.1248814,32.8614644 C97.1106657,31.7983686 96.810363,30.9500168 96.2239645,30.3163835 C95.637566,29.6827503 94.8610438,29.3659384 93.8943747,29.3659384 C92.7997641,29.3659384 91.9237334,29.6721899 91.2662562,30.284702 C90.6087791,30.8972142 90.2302912,31.7596465 90.1307811,32.8720249 L97.1248814,32.8614644 Z M109.589875,29.82004 C109.369531,29.6933133 109.129645,29.6000298 108.870208,29.5401867 C108.610771,29.4803435 108.324684,29.4504224 108.011938,29.4504224 C106.903111,29.4504224 106.051958,29.8077158 105.458451,30.5223133 C104.864945,31.2369108 104.568196,32.2630293 104.568196,33.6006995 L104.568196,39.8313953 L102.595775,39.8313953 L102.595775,28.0036337 L104.568196,28.0036337 L104.568196,29.841161 C104.980452,29.1230433 105.517088,28.5897433 106.178119,28.241245 C106.83915,27.8927467 107.642326,27.7185002 108.587672,27.7185002 C108.722721,27.7185002 108.871984,27.7273005 109.035465,27.7449014 C109.198945,27.7625024 109.380193,27.7889033 109.579213,27.8241052 L109.589875,29.82004 Z" id="Controller"></path>
            </g>
        </g>
    </g>
</svg>