<?xml version="1.0" encoding="UTF-8" standalone="no"?>
<svg width="226px" height="82px" viewBox="0 0 226 82" version="1.1" xmlns="http://www.w3.org/2000/svg" xmlns:xlink="http://www.w3.org/1999/xlink" xmlns:sketch="http://www.bohemiancoding.com/sketch/ns">
    <!-- Generator: Sketch 3.4.3 (16044) - http://www.bohemiancoding.com/sketch -->
    <title>logo-dark-sm</title>
    <desc>Created with Sketch.</desc>
    <defs></defs>
    <g id="Page-1" stroke="none" stroke-width="1" fill="none" fill-rule="evenodd" sketch:type="MSPage">
        <g id="logo-dark-sm" sketch:type="MSLayerGroup">
            <rect id="Rectangle-29" fill="#3F3F3F" sketch:type="MSShapeGroup" x="0" y="0" width="226" height="82"></rect>
            <g id="logo-icon" transform="translate(12.502128, 10.070175)" sketch:type="MSShapeGroup">
                <rect id="Rectangle-11" fill="#CD9987" x="9.4997861" y="4.35938331" width="21.6506753" height="9.59064327"></rect>
                <path d="M49.3864253,9.15470494 L30.8287036,18.3094099 L30.8287036,0 L49.3864253,9.15470494 L49.3864253,9.15470494 Z" id="Triangle-1" fill="#CD9987"></path>
                <rect id="Rectangle-11" fill="#9DB2A7" transform="translate(42.316817, 53.184476) scale(-1, 1) translate(-42.316817, -53.184476) " x="31.4914794" y="48.3891547" width="21.6506753" height="9.59064327"></rect>
                <path d="M13.2555155,53.1844763 L31.8132372,62.3391813 L31.8132372,44.0297714 L13.2555155,53.1844763 L13.2555155,53.1844763 Z" id="Triangle-1" fill="#9DB2A7"></path>
                <path d="M58.1033429,9.33487599 L58.1033429,30.6958542 L48.3826315,30.6958542 L48.3826315,9.33487599 L58.1033429,9.33487599 L58.1033429,9.33487599 Z" id="Rectangle-11" fill="#CD9987"></path>
                <path d="M53.4121331,48.6548046 L44.1332723,30.3453947 L62.6909939,30.3453947 L53.4121331,48.6548046 L53.4121331,48.6548046 Z" id="Triangle-1" fill="#CD9987"></path>
                <path d="M4.41850516,31.8234981 L4.41850516,53.1844763 L14.1392165,53.1844763 L14.1392165,31.8234981 L4.41850516,31.8234981 L4.41850516,31.8234981 Z" id="Rectangle-11" fill="#9DB2A7"></path>
                <path d="M9.27886084,13.8321453 L0,32.1415552 L18.5577217,32.1415552 L9.27886084,13.8321453 L9.27886084,13.8321453 Z" id="Triangle-1" fill="#9DB2A7"></path>
            </g>
            <g id="logo-text" transform="translate(90.565811, 21.849381)" fill="#FFFFFF" sketch:type="MSShapeGroup">
                <path d="M0.182391783,0 L2.34116952,0 L2.34116952,6.49838395 L10.1854411,6.49838395 L10.1854411,0 L12.3442189,0 L12.3442189,15.8530837 L10.1854411,15.8530837 L10.1854411,8.3034906 L2.34116952,8.3034906 L2.34116952,15.8530837 L0.182391783,15.8530837 L0.182391783,0 Z M27.1578515,9.41840942 L27.1578515,10.3740541 L18.1166338,10.3740541 C18.2021304,11.7190423 18.6100142,12.7436955 19.3402974,13.4480446 C20.0705807,14.1523936 21.0876184,14.5045629 22.3914412,14.5045629 C23.146661,14.5045629 23.8787144,14.4125387 24.5876235,14.2284877 C25.2965326,14.0444367 26.0000876,13.7683643 26.6983097,13.4002623 L26.6983097,15.2478421 C25.9929629,15.5451553 25.2698152,15.7716762 24.5288449,15.9274116 C23.7878746,16.0831471 23.0362285,16.1610137 22.273884,16.1610137 C20.3644605,16.1610137 18.8522625,15.6088689 17.7372446,14.5045629 C16.6222268,13.4002568 16.0647262,11.9066345 16.0647262,10.0236511 C16.0647262,8.07695768 16.5937284,6.5320142 17.6517485,5.38877427 C18.7097686,4.24553434 20.1364713,3.67392295 21.9318994,3.67392295 C23.5420849,3.67392295 24.8156086,4.18890411 25.7525085,5.21888188 C26.6894085,6.24885965 27.1578515,7.64868816 27.1578515,9.41840942 L27.1578515,9.41840942 Z M25.1914401,8.8450226 C25.1771906,7.77611096 24.876176,6.92311811 24.288387,6.28601846 C23.700598,5.64891881 22.9222346,5.33037376 21.9532735,5.33037376 C20.8560674,5.33037376 19.9779595,5.63830064 19.3189234,6.25416364 C18.6598873,6.87002663 18.2805019,7.73717704 18.1807559,8.85564087 L25.1914401,8.8450226 Z M36.1898071,9.87499522 C34.6009957,9.87499522 33.5002438,10.0555041 32.8875183,10.4165272 C32.2747929,10.7775504 31.9684347,11.3934041 31.9684347,12.264107 C31.9684347,12.9578377 32.1982033,13.5082128 32.6577474,13.9152486 C33.1172915,14.3222845 33.7424759,14.5257994 34.5333192,14.5257994 C35.6234005,14.5257994 36.4979461,14.1417757 37.1569822,13.3737166 C37.8160183,12.6056576 38.1455315,11.5845438 38.1455315,10.3103445 L38.1455315,9.87499522 L36.1898071,9.87499522 Z M40.1119429,9.06800636 L40.1119429,15.8530837 L38.1455315,15.8530837 L38.1455315,14.0479771 C37.6966744,14.7700233 37.1373927,15.3027014 36.4676695,15.6460274 C35.7979464,15.9893533 34.9786165,16.1610137 34.0096553,16.1610137 C32.7842044,16.1610137 31.8099143,15.8194626 31.0867557,15.1363502 C30.3635972,14.4532378 30.0020233,13.5383056 30.0020233,12.3915263 C30.0020233,11.053617 30.4526548,10.044891 31.3539312,9.36531805 C32.2552076,8.68574508 33.5999773,8.3459637 35.3882807,8.3459637 L38.1455315,8.3459637 L38.1455315,8.15483476 C38.1455315,7.25581636 37.8480791,6.56032634 37.2531654,6.06834384 C36.6582517,5.57636133 35.8228915,5.33037376 34.7470596,5.33037376 C34.063087,5.33037376 33.3969361,5.41177972 32.7485871,5.57459408 C32.1002381,5.73740843 31.4768349,5.9816263 30.8783589,6.30725501 L30.8783589,4.50214836 C31.597955,4.22607184 32.2961666,4.01901756 32.9730145,3.8809793 C33.6498624,3.74294105 34.3088886,3.67392295 34.9501129,3.67392295 C36.6814186,3.67392295 37.9745349,4.11988602 38.8295006,5.01182553 C39.6844664,5.90376504 40.1119429,7.2558118 40.1119429,9.06800636 L40.1119429,9.06800636 Z M46.4721438,0.584005094 L46.4721438,3.96061636 L50.5225238,3.96061636 L50.5225238,5.47902961 L46.4721438,5.47902961 L46.4721438,11.9349405 C46.4721438,12.9047477 46.6057302,13.5276802 46.872907,13.8037568 C47.1400838,14.0798333 47.6833352,14.2178695 48.5026773,14.2178695 L50.5225238,14.2178695 L50.5225238,15.8530837 L48.5026773,15.8530837 C46.9851131,15.8530837 45.9377958,15.5717023 45.3606939,15.0089309 C44.783592,14.4461595 44.4950454,13.4215063 44.4950454,11.9349405 L44.4950454,5.47902961 L43.0522979,5.47902961 L43.0522979,3.96061636 L44.4950454,3.96061636 L44.4950454,0.584005094 L46.4721438,0.584005094 Z M62.6978878,14.0692136 L62.6978878,20.3764686 L60.7207894,20.3764686 L60.7207894,3.96061636 L62.6978878,3.96061636 L62.6978878,5.76572301 C63.1111213,5.05783451 63.6329988,4.53223519 64.263536,4.18890926 C64.8940733,3.84558334 65.6475005,3.67392295 66.5238404,3.67392295 C67.9772822,3.67392295 69.158186,4.24730404 70.0665871,5.39408341 C70.9749882,6.54086278 71.429182,8.04864267 71.429182,9.91746832 C71.429182,11.786294 70.9749882,13.2940739 70.0665871,14.4408532 C69.158186,15.5876326 67.9772822,16.1610137 66.5238404,16.1610137 C65.6475005,16.1610137 64.8940733,15.9893533 64.263536,15.6460274 C63.6329988,15.3027014 63.1111213,14.7771021 62.6978878,14.0692136 L62.6978878,14.0692136 Z M69.3879614,9.91746832 C69.3879614,8.48045466 69.090509,7.35315913 68.4955954,6.53554791 C67.9006817,5.71793669 67.083133,5.30913721 66.0429246,5.30913721 C65.0027163,5.30913721 64.1851675,5.71793669 63.5902539,6.53554791 C62.9953402,7.35315913 62.6978878,8.48045466 62.6978878,9.91746832 C62.6978878,11.354482 62.9953402,12.4817775 63.5902539,13.2993887 C64.1851675,14.1169999 65.0027163,14.5257994 66.0429246,14.5257994 C67.083133,14.5257994 67.9006817,14.1169999 68.4955954,13.2993887 C69.090509,12.4817775 69.3879614,11.354482 69.3879614,9.91746832 L69.3879614,9.91746832 Z M74.8504528,11.1598064 L74.8504528,3.96061636 L76.8168642,3.96061636 L76.8168642,11.0854785 C76.8168642,12.2110212 77.0377271,13.0551656 77.4794594,13.617937 C77.9211917,14.1807083 78.5837802,14.4620898 79.4672448,14.4620898 C80.5288273,14.4620898 81.3677499,14.1258478 81.9840377,13.4533537 C82.6003255,12.7808596 82.9084648,11.8641578 82.9084648,10.7032206 L82.9084648,3.96061636 L84.8748762,3.96061636 L84.8748762,15.8530837 L82.9084648,15.8530837 L82.9084648,14.0267405 C82.4311089,14.7487868 81.8771706,15.2850043 81.2466334,15.6354091 C80.6160962,15.9858139 79.8840427,16.1610137 79.0504511,16.1610137 C77.6753812,16.1610137 76.6316261,15.736287 75.9191547,14.8868207 C75.2066832,14.0373545 74.8504528,12.7950289 74.8504528,11.1598064 L74.8504528,11.1598064 Z M98.6091199,6.24354536 C99.1007252,5.36576362 99.6885054,4.71805536 100.372478,4.30040114 C101.056451,3.88274693 101.861531,3.67392295 102.787744,3.67392295 C104.034569,3.67392295 104.996391,4.10749816 105.673239,4.97466157 C106.350087,5.84182498 106.688506,7.0753022 106.688506,8.67513021 L106.688506,15.8530837 L104.711408,15.8530837 L104.711408,8.73883985 C104.711408,7.59913937 104.508356,6.7532253 104.102247,6.20107227 C103.696139,5.64891924 103.076298,5.37284686 102.242706,5.37284686 C101.223872,5.37284686 100.418791,5.70908886 99.82744,6.38158293 C99.2360887,7.05407701 98.9404175,7.97077887 98.9404175,9.13171601 L98.9404175,15.8530837 L96.9633191,15.8530837 L96.9633191,8.73883985 C96.9633191,7.59206048 96.7602678,6.74437672 96.354159,6.19576313 C95.9480503,5.64714954 95.3210848,5.37284686 94.4732438,5.37284686 C93.468659,5.37284686 92.6707029,5.71085855 92.0793516,6.38689207 C91.4880003,7.06292559 91.1923291,7.97785775 91.1923291,9.13171601 L91.1923291,15.8530837 L89.2152306,15.8530837 L89.2152306,3.96061636 L91.1923291,3.96061636 L91.1923291,5.80819611 C91.6411861,5.07907096 92.179094,4.54108377 92.8060689,4.1942184 C93.4330438,3.84735303 94.1775653,3.67392295 95.0396557,3.67392295 C95.9088709,3.67392295 96.648049,3.8933651 97.2572121,4.33225597 C97.8663752,4.77114684 98.3170066,5.40823693 98.6091199,6.24354536 L98.6091199,6.24354536 Z M112.877715,14.0692136 L112.877715,20.3764686 L110.900616,20.3764686 L110.900616,3.96061636 L112.877715,3.96061636 L112.877715,5.76572301 C113.290948,5.05783451 113.812826,4.53223519 114.443363,4.18890926 C115.0739,3.84558334 115.827327,3.67392295 116.703667,3.67392295 C118.157109,3.67392295 119.338013,4.24730404 120.246414,5.39408341 C121.154815,6.54086278 121.609009,8.04864267 121.609009,9.91746832 C121.609009,11.786294 121.154815,13.2940739 120.246414,14.4408532 C119.338013,15.5876326 118.157109,16.1610137 116.703667,16.1610137 C115.827327,16.1610137 115.0739,15.9893533 114.443363,15.6460274 C113.812826,15.3027014 113.290948,14.7771021 112.877715,14.0692136 L112.877715,14.0692136 Z M119.567788,9.91746832 C119.567788,8.48045466 119.270336,7.35315913 118.675422,6.53554791 C118.080508,5.71793669 117.26296,5.30913721 116.222751,5.30913721 C115.182543,5.30913721 114.364994,5.71793669 113.770081,6.53554791 C113.175167,7.35315913 112.877715,8.48045466 112.877715,9.91746832 C112.877715,11.354482 113.175167,12.4817775 113.770081,13.2993887 C114.364994,14.1169999 115.182543,14.5257994 116.222751,14.5257994 C117.26296,14.5257994 118.080508,14.1169999 118.675422,13.2993887 C119.270336,12.4817775 119.567788,11.354482 119.567788,9.91746832 L119.567788,9.91746832 Z" id="Heat-pump"></path>
                <path d="M13.0018267,25.4173174 L13.0018267,27.6790099 C12.2751058,27.0065158 11.5003047,26.5039225 10.6774002,26.1712149 C9.85449567,25.8385073 8.97995006,25.672156 8.05373716,25.672156 C6.22981021,25.672156 4.83338709,26.2260705 3.8644259,27.333916 C2.89546471,28.4417615 2.41099138,30.0433352 2.41099138,32.1386852 C2.41099138,34.2269562 2.89546471,35.8249906 3.8644259,36.9328361 C4.83338709,38.0406816 6.22981021,38.594596 8.05373716,38.594596 C8.97995006,38.594596 9.85449567,38.4282447 10.6774002,38.0955371 C11.5003047,37.7628295 12.2751058,37.2602362 13.0018267,36.5877421 L13.0018267,38.828198 C12.246607,39.3378778 11.4468698,39.7201318 10.6025911,39.9749717 C9.75831239,40.2298115 8.86595527,40.3572296 7.92549294,40.3572296 C5.51021468,40.3572296 3.6079444,39.6228063 2.21862505,38.1539376 C0.829305691,36.685069 0.134656433,34.6800049 0.134656433,32.1386852 C0.134656433,29.5902866 0.829305691,27.5816831 2.21862505,26.1128144 C3.6079444,24.6439458 5.51021468,23.9095225 7.92549294,23.9095225 C8.8802047,23.9095225 9.77968643,24.0351708 10.6239651,24.2864712 C11.4682438,24.5377716 12.2608564,24.9147166 13.0018267,25.4173174 L13.0018267,25.4173174 Z M21.25363,29.5265896 C20.1991722,29.5265896 19.3655931,29.9353891 18.7528676,30.7530003 C18.1401422,31.5706116 17.833784,32.6908283 17.833784,34.1136842 C17.833784,35.5365401 18.138361,36.6567568 18.7475241,37.4743681 C19.3566872,38.2919793 20.1920475,38.7007788 21.25363,38.7007788 C22.300963,38.7007788 23.1309798,38.2902096 23.7437053,37.4690589 C24.3564308,36.6479083 24.6627889,35.5294612 24.6627889,34.1136842 C24.6627889,32.7049861 24.3564308,31.5883087 23.7437053,30.7636186 C23.1309798,29.9389285 22.300963,29.5265896 21.25363,29.5265896 L21.25363,29.5265896 Z M21.25363,27.8701388 C22.9635615,27.8701388 24.3065501,28.4222836 25.282636,29.5265896 C26.2587219,30.6308957 26.7467575,32.1599119 26.7467575,34.1136842 C26.7467575,36.0603776 26.2587219,37.5876241 25.282636,38.6954696 C24.3065501,39.8033151 22.9635615,40.3572296 21.25363,40.3572296 C19.5365737,40.3572296 18.191804,39.8033151 17.2192805,38.6954696 C16.2467569,37.5876241 15.7605025,36.0603776 15.7605025,34.1136842 C15.7605025,32.1599119 16.2467569,30.6308957 17.2192805,29.5265896 C18.191804,28.4222836 19.5365737,27.8701388 21.25363,27.8701388 L21.25363,27.8701388 Z M40.320696,32.8713461 L40.320696,40.0492996 L38.3542846,40.0492996 L38.3542846,32.9350557 C38.3542846,31.809513 38.1334217,30.9671383 37.6916894,30.4079064 C37.2499571,29.8486745 36.5873686,29.5690627 35.703904,29.5690627 C34.6423215,29.5690627 33.8051801,29.9053047 33.1924546,30.5777988 C32.5797291,31.2502929 32.273371,32.1669947 32.273371,33.3279319 L32.273371,40.0492996 L30.2962726,40.0492996 L30.2962726,28.1568322 L32.273371,28.1568322 L32.273371,30.004412 C32.7436022,29.2894446 33.2975404,28.7549968 33.9352024,28.4010526 C34.5728644,28.0471083 35.3084801,27.8701388 36.1420717,27.8701388 C37.5171416,27.8701388 38.5573344,28.2930959 39.2626811,29.1390226 C39.9680279,29.9849494 40.320696,31.2290448 40.320696,32.8713461 L40.320696,32.8713461 Z M46.5526527,24.780221 L46.5526527,28.1568322 L50.6030327,28.1568322 L50.6030327,29.6752455 L46.5526527,29.6752455 L46.5526527,36.1311563 C46.5526527,37.1009636 46.6862391,37.7238961 46.9534159,37.9999726 C47.2205927,38.2760492 47.763844,38.4140853 48.5831862,38.4140853 L50.6030327,38.4140853 L50.6030327,40.0492996 L48.5831862,40.0492996 C47.065622,40.0492996 46.0183047,39.7679181 45.4412028,39.2051468 C44.8641009,38.6423754 44.5755543,37.6177222 44.5755543,36.1311563 L44.5755543,29.6752455 L43.1328068,29.6752455 L43.1328068,28.1568322 L44.5755543,28.1568322 L44.5755543,24.780221 L46.5526527,24.780221 Z M60.4899498,29.9831754 C60.2690836,29.8557555 60.0286281,29.7619617 59.768576,29.7017912 C59.508524,29.6416207 59.2217585,29.6115358 58.908271,29.6115358 C57.7968156,29.6115358 56.9436438,29.9707839 56.3487301,30.6892907 C55.7538164,31.4077975 55.4563641,32.4395295 55.4563641,33.7845177 L55.4563641,40.0492996 L53.4792656,40.0492996 L53.4792656,28.1568322 L55.4563641,28.1568322 L55.4563641,30.004412 C55.8695975,29.2823657 56.4075054,28.7461482 57.0701039,28.3957434 C57.7327023,28.0453386 58.537783,27.8701388 59.48537,27.8701388 C59.6207396,27.8701388 59.7703564,27.8789873 59.9342248,27.8966845 C60.0980933,27.9143817 60.2797708,27.9409272 60.4792628,27.9763216 L60.4899498,29.9831754 Z M67.0745781,29.5265896 C66.0201204,29.5265896 65.1865413,29.9353891 64.5738158,30.7530003 C63.9610903,31.5706116 63.6547322,32.6908283 63.6547322,34.1136842 C63.6547322,35.5365401 63.9593092,36.6567568 64.5684723,37.4743681 C65.1776354,38.2919793 66.0129957,38.7007788 67.0745781,38.7007788 C68.1219112,38.7007788 68.951928,38.2902096 69.5646535,37.4690589 C70.1773789,36.6479083 70.483737,35.5294612 70.483737,34.1136842 C70.483737,32.7049861 70.1773789,31.5883087 69.5646535,30.7636186 C68.951928,29.9389285 68.1219112,29.5265896 67.0745781,29.5265896 L67.0745781,29.5265896 Z M67.0745781,27.8701388 C68.7845097,27.8701388 70.1274982,28.4222836 71.1035841,29.5265896 C72.07967,30.6308957 72.5677057,32.1599119 72.5677057,34.1136842 C72.5677057,36.0603776 72.07967,37.5876241 71.1035841,38.6954696 C70.1274982,39.8033151 68.7845097,40.3572296 67.0745781,40.3572296 C65.3575219,40.3572296 64.0127522,39.8033151 63.0402286,38.6954696 C62.0677051,37.5876241 61.5814506,36.0603776 61.5814506,34.1136842 C61.5814506,32.1599119 62.0677051,30.6308957 63.0402286,29.5265896 C64.0127522,28.4222836 65.3575219,27.8701388 67.0745781,27.8701388 L67.0745781,27.8701388 Z M76.1920299,23.5272646 L78.1584413,23.5272646 L78.1584413,40.0492996 L76.1920299,40.0492996 L76.1920299,23.5272646 Z M82.637727,23.5272646 L84.6041384,23.5272646 L84.6041384,40.0492996 L82.637727,40.0492996 L82.637727,23.5272646 Z M99.3215878,33.6146253 L99.3215878,34.57027 L90.2803702,34.57027 C90.3658667,35.9152582 90.7737505,36.9399114 91.5040338,37.6442604 C92.234317,38.3486095 93.2513548,38.7007788 94.5551776,38.7007788 C95.3103973,38.7007788 96.0424508,38.6087546 96.7513599,38.4247036 C97.460269,38.2406526 98.163824,37.9645802 98.862046,37.5964782 L98.862046,39.444058 C98.1566993,39.7413711 97.4335516,39.9678921 96.6925813,40.1236275 C95.951611,40.279363 95.1999648,40.3572296 94.4376204,40.3572296 C92.5281968,40.3572296 91.0159988,39.8050848 89.900981,38.7007788 C88.7859632,37.5964727 88.2284626,36.1028504 88.2284626,34.2198669 C88.2284626,32.2731736 88.7574647,30.7282301 89.8154849,29.5849902 C90.873505,28.4417502 92.3002077,27.8701388 94.0956358,27.8701388 C95.7058213,27.8701388 96.9793449,28.38512 97.9162449,29.4150978 C98.8531449,30.4450755 99.3215878,31.844904 99.3215878,33.6146253 L99.3215878,33.6146253 Z M97.3551764,33.0412385 C97.340927,31.9723268 97.0399123,31.119334 96.4521234,30.4822343 C95.8643344,29.8451347 95.085971,29.5265896 94.1170098,29.5265896 C93.0198038,29.5265896 92.1416959,29.8345165 91.4826597,30.4503795 C90.8236236,31.0662425 90.4442383,31.9333929 90.3444923,33.0518568 L97.3551764,33.0412385 Z M109.849726,29.9831754 C109.62886,29.8557555 109.388404,29.7619617 109.128352,29.7017912 C108.8683,29.6416207 108.581535,29.6115358 108.268047,29.6115358 C107.156592,29.6115358 106.30342,29.9707839 105.708506,30.6892907 C105.113593,31.4077975 104.81614,32.4395295 104.81614,33.7845177 L104.81614,40.0492996 L102.839042,40.0492996 L102.839042,28.1568322 L104.81614,28.1568322 L104.81614,30.004412 C105.229374,29.2823657 105.767282,28.7461482 106.42988,28.3957434 C107.092479,28.0453386 107.897559,27.8701388 108.845146,27.8701388 C108.980516,27.8701388 109.130133,27.8789873 109.294001,27.8966845 C109.457869,27.9143817 109.639547,27.9409272 109.839039,27.9763216 L109.849726,29.9831754 Z" id="Controller"></path>
            </g>
        </g>
    </g>
</svg>