<?xml version="1.0" encoding="UTF-8" standalone="no"?>
<svg width="223px" height="74px" viewBox="0 0 223 74" version="1.1" xmlns="http://www.w3.org/2000/svg" xmlns:xlink="http://www.w3.org/1999/xlink" xmlns:sketch="http://www.bohemiancoding.com/sketch/ns">
    <!-- Generator: Sketch 3.4.2 (15857) - http://www.bohemiancoding.com/sketch -->
    <title>Rectangle 1 + Group</title>
    <desc>Created with Sketch.</desc>
    <defs></defs>
    <g id="Page-1" stroke="none" stroke-width="1" fill="none" fill-rule="evenodd" sketch:type="MSPage">
        <g id="Rectangle-1-+-Group" sketch:type="MSLayerGroup">
            <rect id="Rectangle-1" stroke="#979797" stroke-width="0.5" fill="#3F3F3F" sketch:type="MSShapeGroup" x="0" y="0" width="223" height="74"></rect>
            <g id="Group" transform="translate(12.000000, 14.500000)" sketch:type="MSShapeGroup">
                <g>
                    <path d="M0,5 L19.07099,20.3691406 L39.2224757,5.1328125 L65.5,21.0625" id="Path-1" stroke="#7F7F7F" stroke-width="5" fill="#CD9987" transform="translate(32.750000, 13.031250) scale(1, -1) translate(-32.750000, -13.031250) "></path>
                    <path d="M0,21.5 L19.07099,36.8691406 L39.2224757,21.6328125 L65.5,37.5625" id="Path-1" stroke="#7F7F7F" stroke-width="5" fill="#9DB2A7"></path>
                    <path d="M80.256,0.008 L81.984,0.008 L81.984,7.376 L91.248,7.376 L91.248,0.008 L92.976,0.008 L92.976,17 L91.248,17 L91.248,8.96 L81.984,8.96 L81.984,17 L80.256,17 L80.256,0.008 Z M105.96,10.52 C105.912,9.46399472 105.572003,8.58800348 104.94,7.892 C104.307997,7.19599652 103.408006,6.848 102.24,6.848 C101.695997,6.848 101.192002,6.947999 100.728,7.148 C100.263998,7.348001 99.8560018,7.61999828 99.504,7.964 C99.1519982,8.30800172 98.872001,8.6999978 98.664,9.14 C98.455999,9.5800022 98.3360002,10.0399976 98.304,10.52 L105.96,10.52 Z M107.616,11.048 L107.616,11.408 C107.616,11.5360006 107.608,11.6719993 107.592,11.816 L98.28,11.816 C98.2960001,12.3760028 98.407999,12.9039975 98.616,13.4 C98.824001,13.8960025 99.1119982,14.3279982 99.48,14.696 C99.8480018,15.0640018 100.279998,15.3559989 100.776,15.572 C101.272002,15.7880011 101.807997,15.896 102.384,15.896 C103.232004,15.896 103.963997,15.700002 104.58,15.308 C105.196003,14.915998 105.663998,14.4640026 105.984,13.952 L107.208,14.912 C106.535997,15.7600042 105.796004,16.3679982 104.988,16.736 C104.179996,17.1040018 103.312005,17.288 102.384,17.288 C101.551996,17.288 100.780004,17.1400015 100.068,16.844 C99.3559964,16.5479985 98.7440026,16.1360026 98.232,15.608 C97.7199974,15.0799974 97.3160015,14.4560036 97.02,13.736 C96.7239985,13.0159964 96.576,12.2320042 96.576,11.384 C96.576,10.5359958 96.7199986,9.7520036 97.008,9.032 C97.2960014,8.3119964 97.6959974,7.68800264 98.208,7.16 C98.7200026,6.63199736 99.3199966,6.22000148 100.008,5.924 C100.696003,5.62799852 101.439996,5.48 102.24,5.48 C103.120004,5.48 103.895997,5.62799852 104.568,5.924 C105.240003,6.22000148 105.799998,6.61999748 106.248,7.124 C106.696002,7.62800252 107.035999,8.21599664 107.268,8.888 C107.500001,9.56000336 107.616,10.2799962 107.616,11.048 L107.616,11.048 Z M118.056,9.752 C118.056,8.77599512 117.800003,8.0480024 117.288,7.568 C116.775997,7.0879976 116.032005,6.848 115.056,6.848 C114.383997,6.848 113.760003,6.9679988 113.184,7.208 C112.607997,7.4480012 112.120002,7.767998 111.72,8.168 L110.808,7.088 C111.272002,6.62399768 111.883996,6.24000152 112.644,5.936 C113.404004,5.63199848 114.263995,5.48 115.224,5.48 C115.832003,5.48 116.399997,5.56399916 116.928,5.732 C117.456003,5.90000084 117.919998,6.15199832 118.32,6.488 C118.720002,6.82400168 119.031999,7.24799744 119.256,7.76 C119.480001,8.27200256 119.592,8.87199656 119.592,9.56 L119.592,14.48 C119.592,14.9120022 119.608,15.3599977 119.64,15.824 C119.672,16.2880023 119.72,16.6799984 119.784,17 L118.32,17 C118.272,16.7279986 118.232,16.4320016 118.2,16.112 C118.168,15.7919984 118.152,15.4800015 118.152,15.176 L118.104,15.176 C117.591997,15.9280038 117.012003,16.4679984 116.364,16.796 C115.715997,17.1240016 114.936005,17.288 114.024,17.288 C113.591998,17.288 113.148002,17.2280006 112.692,17.108 C112.235998,16.9879994 111.820002,16.7920014 111.444,16.52 C111.067998,16.2479986 110.756001,15.8960022 110.508,15.464 C110.259999,15.0319978 110.136,14.5040031 110.136,13.88 C110.136,13.0159957 110.355998,12.3320025 110.796,11.828 C111.236002,11.3239975 111.823996,10.9480012 112.56,10.7 C113.296004,10.4519988 114.139995,10.2920004 115.092,10.22 C116.044005,10.1479996 117.031995,10.112 118.056,10.112 L118.056,9.752 Z M117.576,11.384 C116.903997,11.384 116.228003,11.4119997 115.548,11.468 C114.867997,11.5240003 114.252003,11.6359992 113.7,11.804 C113.147997,11.9720008 112.696002,12.2159984 112.344,12.536 C111.991998,12.8560016 111.816,13.2799974 111.816,13.808 C111.816,14.208002 111.891999,14.5439986 112.044,14.816 C112.196001,15.0880014 112.399999,15.3079992 112.656,15.476 C112.912001,15.6440008 113.195998,15.7639996 113.508,15.836 C113.820002,15.9080004 114.135998,15.944 114.456,15.944 C115.032003,15.944 115.543998,15.844001 115.992,15.644 C116.440002,15.443999 116.815998,15.1720017 117.12,14.828 C117.424002,14.4839983 117.655999,14.0880022 117.816,13.64 C117.976001,13.1919978 118.056,12.7200025 118.056,12.224 L118.056,11.384 L117.576,11.384 Z M128.616,7.136 L125.448,7.136 L125.448,13.688 C125.448,14.1040021 125.488,14.4479986 125.568,14.72 C125.648,14.9920014 125.763999,15.2039992 125.916,15.356 C126.068001,15.5080008 126.247999,15.6119997 126.456,15.668 C126.664001,15.7240003 126.887999,15.752 127.128,15.752 C127.352001,15.752 127.587999,15.7200003 127.836,15.656 C128.084001,15.5919997 128.319999,15.5040006 128.544,15.392 L128.616,16.808 C128.327999,16.9200006 128.028002,17.0039997 127.716,17.06 C127.403998,17.1160003 127.064002,17.144 126.696,17.144 C126.391998,17.144 126.072002,17.1040004 125.736,17.024 C125.399998,16.9439996 125.088001,16.7920011 124.8,16.568 C124.511999,16.3439989 124.276001,16.0400019 124.092,15.656 C123.907999,15.2719981 123.816,14.7680031 123.816,14.144 L123.816,7.136 L121.488,7.136 L121.488,5.768 L123.816,5.768 L123.816,2.6 L125.448,2.6 L125.448,5.768 L128.616,5.768 L128.616,7.136 Z M138.792,22.76 L137.16,22.76 L137.16,5.768 L138.792,5.768 L138.792,7.712 L138.864,7.712 C139.328002,6.97599632 139.947996,6.42000188 140.724,6.044 C141.500004,5.66799812 142.287996,5.48 143.088,5.48 C143.968004,5.48 144.763996,5.63199848 145.476,5.936 C146.188004,6.24000152 146.795997,6.65599736 147.3,7.184 C147.804003,7.71200264 148.195999,8.3359964 148.476,9.056 C148.756001,9.7760036 148.896,10.5519958 148.896,11.384 C148.896,12.2160042 148.756001,12.9919964 148.476,13.712 C148.195999,14.4320036 147.804003,15.0559974 147.3,15.584 C146.795997,16.1120026 146.188004,16.5279985 145.476,16.832 C144.763996,17.1360015 143.968004,17.288 143.088,17.288 C142.287996,17.288 141.500004,17.1000019 140.724,16.724 C139.947996,16.3479981 139.328002,15.8080035 138.864,15.104 L138.792,15.104 L138.792,22.76 Z M147.168,11.384 C147.168,10.7599969 147.072001,10.1720028 146.88,9.62 C146.687999,9.06799724 146.412002,8.58800204 146.052,8.18 C145.691998,7.77199796 145.248003,7.4480012 144.72,7.208 C144.191997,6.9679988 143.592003,6.848 142.92,6.848 C142.295997,6.848 141.720003,6.96399884 141.192,7.196 C140.663997,7.42800116 140.208002,7.74799796 139.824,8.156 C139.439998,8.56400204 139.140001,9.04399724 138.924,9.596 C138.707999,10.1480028 138.6,10.7439968 138.6,11.384 C138.6,12.0240032 138.707999,12.6199972 138.924,13.172 C139.140001,13.7240028 139.439998,14.199998 139.824,14.6 C140.208002,15.000002 140.663997,15.3159988 141.192,15.548 C141.720003,15.7800012 142.295997,15.896 142.92,15.896 C143.592003,15.896 144.191997,15.7800012 144.72,15.548 C145.248003,15.3159988 145.691998,14.996002 146.052,14.588 C146.412002,14.179998 146.687999,13.7000028 146.88,13.148 C147.072001,12.5959972 147.168,12.0080031 147.168,11.384 L147.168,11.384 Z M160.56,17 C160.528,16.6959985 160.504,16.3600018 160.488,15.992 C160.472,15.6239982 160.464,15.3200012 160.464,15.08 L160.416,15.08 C160.095998,15.7360033 159.576004,16.267998 158.856,16.676 C158.135996,17.084002 157.376004,17.288 156.576,17.288 C155.151993,17.288 154.084004,16.8640042 153.372,16.016 C152.659996,15.1679958 152.304,14.048007 152.304,12.656 L152.304,5.768 L153.936,5.768 L153.936,11.984 C153.936,12.576003 153.984,13.1119976 154.08,13.592 C154.176,14.0720024 154.339999,14.4839983 154.572,14.828 C154.804001,15.1720017 155.115998,15.439999 155.508,15.632 C155.900002,15.824001 156.391997,15.92 156.984,15.92 C157.416002,15.92 157.835998,15.8320009 158.244,15.656 C158.652002,15.4799991 159.015998,15.2120018 159.336,14.852 C159.656002,14.4919982 159.911999,14.0360028 160.104,13.484 C160.296001,12.9319972 160.392,12.2800038 160.392,11.528 L160.392,5.768 L162.024,5.768 L162.024,14.528 C162.024,14.8320015 162.032,15.2239976 162.048,15.704 C162.064,16.1840024 162.088,16.6159981 162.12,17 L160.56,17 Z M167.952,7.688 C168.272002,7.03199672 168.763997,6.50000204 169.428,6.092 C170.092003,5.68399796 170.831996,5.48 171.648,5.48 C171.952002,5.48 172.267998,5.51199968 172.596,5.576 C172.924002,5.64000032 173.243998,5.76399908 173.556,5.948 C173.868002,6.13200092 174.155999,6.37599848 174.42,6.68 C174.684001,6.98400152 174.911999,7.3759976 175.104,7.856 C175.488002,7.08799616 176.011997,6.50000204 176.676,6.092 C177.340003,5.68399796 178.127995,5.48 179.04,5.48 C180.464007,5.48 181.531996,5.90399576 182.244,6.752 C182.956004,7.60000424 183.312,8.71999304 183.312,10.112 L183.312,17 L181.68,17 L181.68,10.784 C181.68,9.59999408 181.460002,8.6480036 181.02,7.928 C180.579998,7.2079964 179.832005,6.848 178.776,6.848 C178.183997,6.848 177.684002,6.9679988 177.276,7.208 C176.867998,7.4480012 176.540001,7.76399804 176.292,8.156 C176.043999,8.54800196 175.864001,8.99199752 175.752,9.488 C175.639999,9.98400248 175.584,10.4959974 175.584,11.024 L175.584,17 L173.952,17 L173.952,10.448 C173.952,9.90399728 173.912,9.40800224 173.832,8.96 C173.752,8.51199776 173.612001,8.13200156 173.412,7.82 C173.211999,7.50799844 172.936002,7.26800084 172.584,7.1 C172.231998,6.93199916 171.784003,6.848 171.24,6.848 C170.855998,6.848 170.468002,6.93599912 170.076,7.112 C169.683998,7.28800088 169.332002,7.5559982 169.02,7.916 C168.707998,8.2760018 168.456001,8.73199724 168.264,9.284 C168.071999,9.83600276 167.976,10.4879962 167.976,11.24 L167.976,17 L166.344,17 L166.344,8.24 C166.344,7.93599848 166.336,7.5440024 166.32,7.064 C166.304,6.5839976 166.28,6.15200192 166.248,5.768 L167.808,5.768 C167.84,6.07200152 167.864,6.40799816 167.88,6.776 C167.896,7.14400184 167.904,7.4479988 167.904,7.688 L167.952,7.688 Z M189.168,22.76 L187.536,22.76 L187.536,5.768 L189.168,5.768 L189.168,7.712 L189.24,7.712 C189.704002,6.97599632 190.323996,6.42000188 191.1,6.044 C191.876004,5.66799812 192.663996,5.48 193.464,5.48 C194.344004,5.48 195.139996,5.63199848 195.852,5.936 C196.564004,6.24000152 197.171997,6.65599736 197.676,7.184 C198.180003,7.71200264 198.571999,8.3359964 198.852,9.056 C199.132001,9.7760036 199.272,10.5519958 199.272,11.384 C199.272,12.2160042 199.132001,12.9919964 198.852,13.712 C198.571999,14.4320036 198.180003,15.0559974 197.676,15.584 C197.171997,16.1120026 196.564004,16.5279985 195.852,16.832 C195.139996,17.1360015 194.344004,17.288 193.464,17.288 C192.663996,17.288 191.876004,17.1000019 191.1,16.724 C190.323996,16.3479981 189.704002,15.8080035 189.24,15.104 L189.168,15.104 L189.168,22.76 Z M197.544,11.384 C197.544,10.7599969 197.448001,10.1720028 197.256,9.62 C197.063999,9.06799724 196.788002,8.58800204 196.428,8.18 C196.067998,7.77199796 195.624003,7.4480012 195.096,7.208 C194.567997,6.9679988 193.968003,6.848 193.296,6.848 C192.671997,6.848 192.096003,6.96399884 191.568,7.196 C191.039997,7.42800116 190.584002,7.74799796 190.2,8.156 C189.815998,8.56400204 189.516001,9.04399724 189.3,9.596 C189.083999,10.1480028 188.976,10.7439968 188.976,11.384 C188.976,12.0240032 189.083999,12.6199972 189.3,13.172 C189.516001,13.7240028 189.815998,14.199998 190.2,14.6 C190.584002,15.000002 191.039997,15.3159988 191.568,15.548 C192.096003,15.7800012 192.671997,15.896 193.296,15.896 C193.968003,15.896 194.567997,15.7800012 195.096,15.548 C195.624003,15.3159988 196.067998,14.996002 196.428,14.588 C196.788002,14.179998 197.063999,13.7000028 197.256,13.148 C197.448001,12.5959972 197.544,12.0080031 197.544,11.384 L197.544,11.384 Z M94.56,40.264 C94.2719986,40.6960022 93.924002,41.1039981 93.516,41.488 C93.107998,41.8720019 92.6360027,42.2079986 92.1,42.496 C91.5639973,42.7840014 90.9720032,43.0119992 90.324,43.18 C89.6759968,43.3480008 88.9680038,43.432 88.2,43.432 C86.9199936,43.432 85.7360054,43.2080022 84.648,42.76 C83.5599946,42.3119978 82.6240039,41.692004 81.84,40.9 C81.0559961,40.107996 80.4440022,39.1680054 80.004,38.08 C79.5639978,36.9919946 79.344,35.8000065 79.344,34.504 C79.344,33.2079935 79.5679978,32.0160054 80.016,30.928 C80.4640022,29.8399946 81.083996,28.900004 81.876,28.108 C82.668004,27.315996 83.6039946,26.6960022 84.684,26.248 C85.7640054,25.7999978 86.9359937,25.576 88.2,25.576 C88.8240031,25.576 89.435997,25.6399994 90.036,25.768 C90.636003,25.8960006 91.1999974,26.0759988 91.728,26.308 C92.2560026,26.5400012 92.7359978,26.8199984 93.168,27.148 C93.6000022,27.4760016 93.9599986,27.8479979 94.248,28.264 L92.808,29.32 C92.6319991,29.0479986 92.3960015,28.7760014 92.1,28.504 C91.8039985,28.2319986 91.456002,27.992001 91.056,27.784 C90.655998,27.575999 90.2200024,27.4080006 89.748,27.28 C89.2759976,27.1519994 88.7680027,27.088 88.224,27.088 C87.1199945,27.088 86.1320044,27.287998 85.26,27.688 C84.3879956,28.088002 83.648003,28.6279966 83.04,29.308 C82.431997,29.9880034 81.9680016,30.7759955 81.648,31.672 C81.3279984,32.5680045 81.168,33.511995 81.168,34.504 C81.168,35.496005 81.3319984,36.4399955 81.66,37.336 C81.9880016,38.2320045 82.455997,39.0199966 83.064,39.7 C83.672003,40.3800034 84.4119956,40.919998 85.284,41.32 C86.1560044,41.720002 87.1359946,41.92 88.224,41.92 C89.2000049,41.92 90.1279956,41.720002 91.008,41.32 C91.8880044,40.919998 92.623997,40.2800044 93.216,39.4 L94.56,40.264 Z M108.312,37.384 C108.312,38.2320042 108.164001,39.0159964 107.868,39.736 C107.571999,40.4560036 107.160003,41.0799974 106.632,41.608 C106.103997,42.1360026 105.472004,42.5479985 104.736,42.844 C103.999996,43.1400015 103.192004,43.288 102.312,43.288 C101.447996,43.288 100.648004,43.1400015 99.912,42.844 C99.1759963,42.5479985 98.5440026,42.1360026 98.016,41.608 C97.4879974,41.0799974 97.0760015,40.4560036 96.78,39.736 C96.4839985,39.0159964 96.336,38.2320042 96.336,37.384 C96.336,36.5359958 96.4839985,35.7520036 96.78,35.032 C97.0760015,34.3119964 97.4879974,33.6880026 98.016,33.16 C98.5440026,32.6319974 99.1759963,32.2200015 99.912,31.924 C100.648004,31.6279985 101.447996,31.48 102.312,31.48 C103.192004,31.48 103.999996,31.6279985 104.736,31.924 C105.472004,32.2200015 106.103997,32.6319974 106.632,33.16 C107.160003,33.6880026 107.571999,34.3119964 107.868,35.032 C108.164001,35.7520036 108.312,36.5359958 108.312,37.384 L108.312,37.384 Z M106.584,37.384 C106.584,36.7599969 106.484001,36.1720028 106.284,35.62 C106.083999,35.0679972 105.800002,34.588002 105.432,34.18 C105.063998,33.771998 104.616003,33.4480012 104.088,33.208 C103.559997,32.9679988 102.968003,32.848 102.312,32.848 C101.655997,32.848 101.068003,32.9679988 100.548,33.208 C100.027997,33.4480012 99.5840018,33.771998 99.216,34.18 C98.8479982,34.588002 98.564001,35.0679972 98.364,35.62 C98.163999,36.1720028 98.064,36.7599969 98.064,37.384 C98.064,38.0080031 98.163999,38.5959972 98.364,39.148 C98.564001,39.7000028 98.8479982,40.179998 99.216,40.588 C99.5840018,40.996002 100.027997,41.3159988 100.548,41.548 C101.068003,41.7800012 101.655997,41.896 102.312,41.896 C102.968003,41.896 103.559997,41.7800012 104.088,41.548 C104.616003,41.3159988 105.063998,40.996002 105.432,40.588 C105.800002,40.179998 106.083999,39.7000028 106.284,39.148 C106.484001,38.5959972 106.584,38.0080031 106.584,37.384 L106.584,37.384 Z M113.28,31.768 C113.312,32.0720015 113.336,32.4079982 113.352,32.776 C113.368,33.1440018 113.376,33.4479988 113.376,33.688 L113.424,33.688 C113.744002,33.0319967 114.263996,32.500002 114.984,32.092 C115.704004,31.683998 116.463996,31.48 117.264,31.48 C118.688007,31.48 119.755996,31.9039958 120.468,32.752 C121.180004,33.6000042 121.536,34.719993 121.536,36.112 L121.536,43 L119.904,43 L119.904,36.784 C119.904,36.191997 119.856,35.6560024 119.76,35.176 C119.664,34.6959976 119.500001,34.2840017 119.268,33.94 C119.035999,33.5959983 118.724002,33.328001 118.332,33.136 C117.939998,32.943999 117.448003,32.848 116.856,32.848 C116.423998,32.848 116.004002,32.9359991 115.596,33.112 C115.187998,33.2880009 114.824002,33.5559982 114.504,33.916 C114.183998,34.2760018 113.928001,34.7319972 113.736,35.284 C113.543999,35.8360028 113.448,36.4879962 113.448,37.24 L113.448,43 L111.816,43 L111.816,34.24 C111.816,33.9359985 111.808,33.5440024 111.792,33.064 C111.776,32.5839976 111.752,32.1520019 111.72,31.768 L113.28,31.768 Z M130.824,33.136 L127.656,33.136 L127.656,39.688 C127.656,40.1040021 127.696,40.4479986 127.776,40.72 C127.856,40.9920014 127.971999,41.2039992 128.124,41.356 C128.276001,41.5080008 128.455999,41.6119997 128.664,41.668 C128.872001,41.7240003 129.095999,41.752 129.336,41.752 C129.560001,41.752 129.795999,41.7200003 130.044,41.656 C130.292001,41.5919997 130.527999,41.5040006 130.752,41.392 L130.824,42.808 C130.535999,42.9200006 130.236002,43.0039997 129.924,43.06 C129.611998,43.1160003 129.272002,43.144 128.904,43.144 C128.599998,43.144 128.280002,43.1040004 127.944,43.024 C127.607998,42.9439996 127.296001,42.7920011 127.008,42.568 C126.719999,42.3439989 126.484001,42.0400019 126.3,41.656 C126.115999,41.2719981 126.024,40.7680031 126.024,40.144 L126.024,33.136 L123.696,33.136 L123.696,31.768 L126.024,31.768 L126.024,28.6 L127.656,28.6 L127.656,31.768 L130.824,31.768 L130.824,33.136 Z M133.368,34.24 C133.368,33.9359985 133.36,33.5440024 133.344,33.064 C133.328,32.5839976 133.304,32.1520019 133.272,31.768 L134.832,31.768 C134.864,32.0720015 134.888,32.4079982 134.904,32.776 C134.92,33.1440018 134.928,33.4479988 134.928,33.688 L134.976,33.688 C135.296002,33.0319967 135.775997,32.500002 136.416,32.092 C137.056003,31.683998 137.775996,31.48 138.576,31.48 C138.784001,31.48 138.971999,31.4879999 139.14,31.504 C139.308001,31.5200001 139.479999,31.5519998 139.656,31.6 L139.44,33.136 C139.344,33.1039998 139.184001,33.0720002 138.96,33.04 C138.735999,33.0079998 138.512001,32.992 138.288,32.992 C137.855998,32.992 137.440002,33.0719992 137.04,33.232 C136.639998,33.3920008 136.292001,33.6439983 135.996,33.988 C135.699999,34.3320017 135.460001,34.7719973 135.276,35.308 C135.091999,35.8440027 135,36.4879962 135,37.24 L135,43 L133.368,43 L133.368,34.24 Z M152.736,37.384 C152.736,38.2320042 152.588001,39.0159964 152.292,39.736 C151.995999,40.4560036 151.584003,41.0799974 151.056,41.608 C150.527997,42.1360026 149.896004,42.5479985 149.16,42.844 C148.423996,43.1400015 147.616004,43.288 146.736,43.288 C145.871996,43.288 145.072004,43.1400015 144.336,42.844 C143.599996,42.5479985 142.968003,42.1360026 142.44,41.608 C141.911997,41.0799974 141.500001,40.4560036 141.204,39.736 C140.907999,39.0159964 140.76,38.2320042 140.76,37.384 C140.76,36.5359958 140.907999,35.7520036 141.204,35.032 C141.500001,34.3119964 141.911997,33.6880026 142.44,33.16 C142.968003,32.6319974 143.599996,32.2200015 144.336,31.924 C145.072004,31.6279985 145.871996,31.48 146.736,31.48 C147.616004,31.48 148.423996,31.6279985 149.16,31.924 C149.896004,32.2200015 150.527997,32.6319974 151.056,33.16 C151.584003,33.6880026 151.995999,34.3119964 152.292,35.032 C152.588001,35.7520036 152.736,36.5359958 152.736,37.384 L152.736,37.384 Z M151.008,37.384 C151.008,36.7599969 150.908001,36.1720028 150.708,35.62 C150.507999,35.0679972 150.224002,34.588002 149.856,34.18 C149.487998,33.771998 149.040003,33.4480012 148.512,33.208 C147.983997,32.9679988 147.392003,32.848 146.736,32.848 C146.079997,32.848 145.492003,32.9679988 144.972,33.208 C144.451997,33.4480012 144.008002,33.771998 143.64,34.18 C143.271998,34.588002 142.988001,35.0679972 142.788,35.62 C142.587999,36.1720028 142.488,36.7599969 142.488,37.384 C142.488,38.0080031 142.587999,38.5959972 142.788,39.148 C142.988001,39.7000028 143.271998,40.179998 143.64,40.588 C144.008002,40.996002 144.451997,41.3159988 144.972,41.548 C145.492003,41.7800012 146.079997,41.896 146.736,41.896 C147.392003,41.896 147.983997,41.7800012 148.512,41.548 C149.040003,41.3159988 149.487998,40.996002 149.856,40.588 C150.224002,40.179998 150.507999,39.7000028 150.708,39.148 C150.908001,38.5959972 151.008,38.0080031 151.008,37.384 L151.008,37.384 Z M157.92,43 L156.288,43 L156.288,24.856 L157.92,24.856 L157.92,43 Z M163.968,43 L162.336,43 L162.336,24.856 L163.968,24.856 L163.968,43 Z M176.904,36.52 C176.856,35.4639947 176.516003,34.5880035 175.884,33.892 C175.251997,33.1959965 174.352006,32.848 173.184,32.848 C172.639997,32.848 172.136002,32.947999 171.672,33.148 C171.207998,33.348001 170.800002,33.6199983 170.448,33.964 C170.095998,34.3080017 169.816001,34.6999978 169.608,35.14 C169.399999,35.5800022 169.28,36.0399976 169.248,36.52 L176.904,36.52 Z M178.56,37.048 L178.56,37.408 C178.56,37.5360006 178.552,37.6719993 178.536,37.816 L169.224,37.816 C169.24,38.3760028 169.351999,38.9039975 169.56,39.4 C169.768001,39.8960025 170.055998,40.3279982 170.424,40.696 C170.792002,41.0640018 171.223998,41.3559989 171.72,41.572 C172.216002,41.7880011 172.751997,41.896 173.328,41.896 C174.176004,41.896 174.907997,41.700002 175.524,41.308 C176.140003,40.915998 176.607998,40.4640026 176.928,39.952 L178.152,40.912 C177.479997,41.7600042 176.740004,42.3679982 175.932,42.736 C175.123996,43.1040018 174.256005,43.288 173.328,43.288 C172.495996,43.288 171.724004,43.1400015 171.012,42.844 C170.299996,42.5479985 169.688003,42.1360026 169.176,41.608 C168.663997,41.0799974 168.260001,40.4560036 167.964,39.736 C167.667999,39.0159964 167.52,38.2320042 167.52,37.384 C167.52,36.5359958 167.663999,35.7520036 167.952,35.032 C168.240001,34.3119964 168.639997,33.6880026 169.152,33.16 C169.664003,32.6319974 170.263997,32.2200015 170.952,31.924 C171.640003,31.6279985 172.383996,31.48 173.184,31.48 C174.064004,31.48 174.839997,31.6279985 175.512,31.924 C176.184003,32.2200015 176.743998,32.6199975 177.192,33.124 C177.640002,33.6280025 177.979999,34.2159966 178.212,34.888 C178.444001,35.5600034 178.56,36.2799962 178.56,37.048 L178.56,37.048 Z M182.064,34.24 C182.064,33.9359985 182.056,33.5440024 182.04,33.064 C182.024,32.5839976 182,32.1520019 181.968,31.768 L183.528,31.768 C183.56,32.0720015 183.584,32.4079982 183.6,32.776 C183.616,33.1440018 183.624,33.4479988 183.624,33.688 L183.672,33.688 C183.992002,33.0319967 184.471997,32.500002 185.112,32.092 C185.752003,31.683998 186.471996,31.48 187.272,31.48 C187.480001,31.48 187.667999,31.4879999 187.836,31.504 C188.004001,31.5200001 188.175999,31.5519998 188.352,31.6 L188.136,33.136 C188.04,33.1039998 187.880001,33.0720002 187.656,33.04 C187.431999,33.0079998 187.208001,32.992 186.984,32.992 C186.551998,32.992 186.136002,33.0719992 185.736,33.232 C185.335998,33.3920008 184.988001,33.6439983 184.692,33.988 C184.395999,34.3320017 184.156001,34.7719973 183.972,35.308 C183.787999,35.8440027 183.696,36.4879962 183.696,37.24 L183.696,43 L182.064,43 L182.064,34.24 Z" id="Heat-pump-Controller" fill="#FFFFFF"></path>
                    <path d="M0,21.5 L19.07099,36.8691406 L39.2224757,21.6328125 L65.5,37.5625" id="Path-1" stroke="#7F7F7F" stroke-width="5" fill="#9DB2A7"></path>
                    <path d="M80.256,0.008 L81.984,0.008 L81.984,7.376 L91.248,7.376 L91.248,0.008 L92.976,0.008 L92.976,17 L91.248,17 L91.248,8.96 L81.984,8.96 L81.984,17 L80.256,17 L80.256,0.008 Z M105.96,10.52 C105.912,9.46399472 105.572003,8.58800348 104.94,7.892 C104.307997,7.19599652 103.408006,6.848 102.24,6.848 C101.695997,6.848 101.192002,6.947999 100.728,7.148 C100.263998,7.348001 99.8560018,7.61999828 99.504,7.964 C99.1519982,8.30800172 98.872001,8.6999978 98.664,9.14 C98.455999,9.5800022 98.3360002,10.0399976 98.304,10.52 L105.96,10.52 Z M107.616,11.048 L107.616,11.408 C107.616,11.5360006 107.608,11.6719993 107.592,11.816 L98.28,11.816 C98.2960001,12.3760028 98.407999,12.9039975 98.616,13.4 C98.824001,13.8960025 99.1119982,14.3279982 99.48,14.696 C99.8480018,15.0640018 100.279998,15.3559989 100.776,15.572 C101.272002,15.7880011 101.807997,15.896 102.384,15.896 C103.232004,15.896 103.963997,15.700002 104.58,15.308 C105.196003,14.915998 105.663998,14.4640026 105.984,13.952 L107.208,14.912 C106.535997,15.7600042 105.796004,16.3679982 104.988,16.736 C104.179996,17.1040018 103.312005,17.288 102.384,17.288 C101.551996,17.288 100.780004,17.1400015 100.068,16.844 C99.3559964,16.5479985 98.7440026,16.1360026 98.232,15.608 C97.7199974,15.0799974 97.3160015,14.4560036 97.02,13.736 C96.7239985,13.0159964 96.576,12.2320042 96.576,11.384 C96.576,10.5359958 96.7199986,9.7520036 97.008,9.032 C97.2960014,8.3119964 97.6959974,7.68800264 98.208,7.16 C98.7200026,6.63199736 99.3199966,6.22000148 100.008,5.924 C100.696003,5.62799852 101.439996,5.48 102.24,5.48 C103.120004,5.48 103.895997,5.62799852 104.568,5.924 C105.240003,6.22000148 105.799998,6.61999748 106.248,7.124 C106.696002,7.62800252 107.035999,8.21599664 107.268,8.888 C107.500001,9.56000336 107.616,10.2799962 107.616,11.048 L107.616,11.048 Z M118.056,9.752 C118.056,8.77599512 117.800003,8.0480024 117.288,7.568 C116.775997,7.0879976 116.032005,6.848 115.056,6.848 C114.383997,6.848 113.760003,6.9679988 113.184,7.208 C112.607997,7.4480012 112.120002,7.767998 111.72,8.168 L110.808,7.088 C111.272002,6.62399768 111.883996,6.24000152 112.644,5.936 C113.404004,5.63199848 114.263995,5.48 115.224,5.48 C115.832003,5.48 116.399997,5.56399916 116.928,5.732 C117.456003,5.90000084 117.919998,6.15199832 118.32,6.488 C118.720002,6.82400168 119.031999,7.24799744 119.256,7.76 C119.480001,8.27200256 119.592,8.87199656 119.592,9.56 L119.592,14.48 C119.592,14.9120022 119.608,15.3599977 119.64,15.824 C119.672,16.2880023 119.72,16.6799984 119.784,17 L118.32,17 C118.272,16.7279986 118.232,16.4320016 118.2,16.112 C118.168,15.7919984 118.152,15.4800015 118.152,15.176 L118.104,15.176 C117.591997,15.9280038 117.012003,16.4679984 116.364,16.796 C115.715997,17.1240016 114.936005,17.288 114.024,17.288 C113.591998,17.288 113.148002,17.2280006 112.692,17.108 C112.235998,16.9879994 111.820002,16.7920014 111.444,16.52 C111.067998,16.2479986 110.756001,15.8960022 110.508,15.464 C110.259999,15.0319978 110.136,14.5040031 110.136,13.88 C110.136,13.0159957 110.355998,12.3320025 110.796,11.828 C111.236002,11.3239975 111.823996,10.9480012 112.56,10.7 C113.296004,10.4519988 114.139995,10.2920004 115.092,10.22 C116.044005,10.1479996 117.031995,10.112 118.056,10.112 L118.056,9.752 Z M117.576,11.384 C116.903997,11.384 116.228003,11.4119997 115.548,11.468 C114.867997,11.5240003 114.252003,11.6359992 113.7,11.804 C113.147997,11.9720008 112.696002,12.2159984 112.344,12.536 C111.991998,12.8560016 111.816,13.2799974 111.816,13.808 C111.816,14.208002 111.891999,14.5439986 112.044,14.816 C112.196001,15.0880014 112.399999,15.3079992 112.656,15.476 C112.912001,15.6440008 113.195998,15.7639996 113.508,15.836 C113.820002,15.9080004 114.135998,15.944 114.456,15.944 C115.032003,15.944 115.543998,15.844001 115.992,15.644 C116.440002,15.443999 116.815998,15.1720017 117.12,14.828 C117.424002,14.4839983 117.655999,14.0880022 117.816,13.64 C117.976001,13.1919978 118.056,12.7200025 118.056,12.224 L118.056,11.384 L117.576,11.384 Z M128.616,7.136 L125.448,7.136 L125.448,13.688 C125.448,14.1040021 125.488,14.4479986 125.568,14.72 C125.648,14.9920014 125.763999,15.2039992 125.916,15.356 C126.068001,15.5080008 126.247999,15.6119997 126.456,15.668 C126.664001,15.7240003 126.887999,15.752 127.128,15.752 C127.352001,15.752 127.587999,15.7200003 127.836,15.656 C128.084001,15.5919997 128.319999,15.5040006 128.544,15.392 L128.616,16.808 C128.327999,16.9200006 128.028002,17.0039997 127.716,17.06 C127.403998,17.1160003 127.064002,17.144 126.696,17.144 C126.391998,17.144 126.072002,17.1040004 125.736,17.024 C125.399998,16.9439996 125.088001,16.7920011 124.8,16.568 C124.511999,16.3439989 124.276001,16.0400019 124.092,15.656 C123.907999,15.2719981 123.816,14.7680031 123.816,14.144 L123.816,7.136 L121.488,7.136 L121.488,5.768 L123.816,5.768 L123.816,2.6 L125.448,2.6 L125.448,5.768 L128.616,5.768 L128.616,7.136 Z M138.792,22.76 L137.16,22.76 L137.16,5.768 L138.792,5.768 L138.792,7.712 L138.864,7.712 C139.328002,6.97599632 139.947996,6.42000188 140.724,6.044 C141.500004,5.66799812 142.287996,5.48 143.088,5.48 C143.968004,5.48 144.763996,5.63199848 145.476,5.936 C146.188004,6.24000152 146.795997,6.65599736 147.3,7.184 C147.804003,7.71200264 148.195999,8.3359964 148.476,9.056 C148.756001,9.7760036 148.896,10.5519958 148.896,11.384 C148.896,12.2160042 148.756001,12.9919964 148.476,13.712 C148.195999,14.4320036 147.804003,15.0559974 147.3,15.584 C146.795997,16.1120026 146.188004,16.5279985 145.476,16.832 C144.763996,17.1360015 143.968004,17.288 143.088,17.288 C142.287996,17.288 141.500004,17.1000019 140.724,16.724 C139.947996,16.3479981 139.328002,15.8080035 138.864,15.104 L138.792,15.104 L138.792,22.76 Z M147.168,11.384 C147.168,10.7599969 147.072001,10.1720028 146.88,9.62 C146.687999,9.06799724 146.412002,8.58800204 146.052,8.18 C145.691998,7.77199796 145.248003,7.4480012 144.72,7.208 C144.191997,6.9679988 143.592003,6.848 142.92,6.848 C142.295997,6.848 141.720003,6.96399884 141.192,7.196 C140.663997,7.42800116 140.208002,7.74799796 139.824,8.156 C139.439998,8.56400204 139.140001,9.04399724 138.924,9.596 C138.707999,10.1480028 138.6,10.7439968 138.6,11.384 C138.6,12.0240032 138.707999,12.6199972 138.924,13.172 C139.140001,13.7240028 139.439998,14.199998 139.824,14.6 C140.208002,15.000002 140.663997,15.3159988 141.192,15.548 C141.720003,15.7800012 142.295997,15.896 142.92,15.896 C143.592003,15.896 144.191997,15.7800012 144.72,15.548 C145.248003,15.3159988 145.691998,14.996002 146.052,14.588 C146.412002,14.179998 146.687999,13.7000028 146.88,13.148 C147.072001,12.5959972 147.168,12.0080031 147.168,11.384 L147.168,11.384 Z M160.56,17 C160.528,16.6959985 160.504,16.3600018 160.488,15.992 C160.472,15.6239982 160.464,15.3200012 160.464,15.08 L160.416,15.08 C160.095998,15.7360033 159.576004,16.267998 158.856,16.676 C158.135996,17.084002 157.376004,17.288 156.576,17.288 C155.151993,17.288 154.084004,16.8640042 153.372,16.016 C152.659996,15.1679958 152.304,14.048007 152.304,12.656 L152.304,5.768 L153.936,5.768 L153.936,11.984 C153.936,12.576003 153.984,13.1119976 154.08,13.592 C154.176,14.0720024 154.339999,14.4839983 154.572,14.828 C154.804001,15.1720017 155.115998,15.439999 155.508,15.632 C155.900002,15.824001 156.391997,15.92 156.984,15.92 C157.416002,15.92 157.835998,15.8320009 158.244,15.656 C158.652002,15.4799991 159.015998,15.2120018 159.336,14.852 C159.656002,14.4919982 159.911999,14.0360028 160.104,13.484 C160.296001,12.9319972 160.392,12.2800038 160.392,11.528 L160.392,5.768 L162.024,5.768 L162.024,14.528 C162.024,14.8320015 162.032,15.2239976 162.048,15.704 C162.064,16.1840024 162.088,16.6159981 162.12,17 L160.56,17 Z M167.952,7.688 C168.272002,7.03199672 168.763997,6.50000204 169.428,6.092 C170.092003,5.68399796 170.831996,5.48 171.648,5.48 C171.952002,5.48 172.267998,5.51199968 172.596,5.576 C172.924002,5.64000032 173.243998,5.76399908 173.556,5.948 C173.868002,6.13200092 174.155999,6.37599848 174.42,6.68 C174.684001,6.98400152 174.911999,7.3759976 175.104,7.856 C175.488002,7.08799616 176.011997,6.50000204 176.676,6.092 C177.340003,5.68399796 178.127995,5.48 179.04,5.48 C180.464007,5.48 181.531996,5.90399576 182.244,6.752 C182.956004,7.60000424 183.312,8.71999304 183.312,10.112 L183.312,17 L181.68,17 L181.68,10.784 C181.68,9.59999408 181.460002,8.6480036 181.02,7.928 C180.579998,7.2079964 179.832005,6.848 178.776,6.848 C178.183997,6.848 177.684002,6.9679988 177.276,7.208 C176.867998,7.4480012 176.540001,7.76399804 176.292,8.156 C176.043999,8.54800196 175.864001,8.99199752 175.752,9.488 C175.639999,9.98400248 175.584,10.4959974 175.584,11.024 L175.584,17 L173.952,17 L173.952,10.448 C173.952,9.90399728 173.912,9.40800224 173.832,8.96 C173.752,8.51199776 173.612001,8.13200156 173.412,7.82 C173.211999,7.50799844 172.936002,7.26800084 172.584,7.1 C172.231998,6.93199916 171.784003,6.848 171.24,6.848 C170.855998,6.848 170.468002,6.93599912 170.076,7.112 C169.683998,7.28800088 169.332002,7.5559982 169.02,7.916 C168.707998,8.2760018 168.456001,8.73199724 168.264,9.284 C168.071999,9.83600276 167.976,10.4879962 167.976,11.24 L167.976,17 L166.344,17 L166.344,8.24 C166.344,7.93599848 166.336,7.5440024 166.32,7.064 C166.304,6.5839976 166.28,6.15200192 166.248,5.768 L167.808,5.768 C167.84,6.07200152 167.864,6.40799816 167.88,6.776 C167.896,7.14400184 167.904,7.4479988 167.904,7.688 L167.952,7.688 Z M189.168,22.76 L187.536,22.76 L187.536,5.768 L189.168,5.768 L189.168,7.712 L189.24,7.712 C189.704002,6.97599632 190.323996,6.42000188 191.1,6.044 C191.876004,5.66799812 192.663996,5.48 193.464,5.48 C194.344004,5.48 195.139996,5.63199848 195.852,5.936 C196.564004,6.24000152 197.171997,6.65599736 197.676,7.184 C198.180003,7.71200264 198.571999,8.3359964 198.852,9.056 C199.132001,9.7760036 199.272,10.5519958 199.272,11.384 C199.272,12.2160042 199.132001,12.9919964 198.852,13.712 C198.571999,14.4320036 198.180003,15.0559974 197.676,15.584 C197.171997,16.1120026 196.564004,16.5279985 195.852,16.832 C195.139996,17.1360015 194.344004,17.288 193.464,17.288 C192.663996,17.288 191.876004,17.1000019 191.1,16.724 C190.323996,16.3479981 189.704002,15.8080035 189.24,15.104 L189.168,15.104 L189.168,22.76 Z M197.544,11.384 C197.544,10.7599969 197.448001,10.1720028 197.256,9.62 C197.063999,9.06799724 196.788002,8.58800204 196.428,8.18 C196.067998,7.77199796 195.624003,7.4480012 195.096,7.208 C194.567997,6.9679988 193.968003,6.848 193.296,6.848 C192.671997,6.848 192.096003,6.96399884 191.568,7.196 C191.039997,7.42800116 190.584002,7.74799796 190.2,8.156 C189.815998,8.56400204 189.516001,9.04399724 189.3,9.596 C189.083999,10.1480028 188.976,10.7439968 188.976,11.384 C188.976,12.0240032 189.083999,12.6199972 189.3,13.172 C189.516001,13.7240028 189.815998,14.199998 190.2,14.6 C190.584002,15.000002 191.039997,15.3159988 191.568,15.548 C192.096003,15.7800012 192.671997,15.896 193.296,15.896 C193.968003,15.896 194.567997,15.7800012 195.096,15.548 C195.624003,15.3159988 196.067998,14.996002 196.428,14.588 C196.788002,14.179998 197.063999,13.7000028 197.256,13.148 C197.448001,12.5959972 197.544,12.0080031 197.544,11.384 L197.544,11.384 Z M94.56,40.264 C94.2719986,40.6960022 93.924002,41.1039981 93.516,41.488 C93.107998,41.8720019 92.6360027,42.2079986 92.1,42.496 C91.5639973,42.7840014 90.9720032,43.0119992 90.324,43.18 C89.6759968,43.3480008 88.9680038,43.432 88.2,43.432 C86.9199936,43.432 85.7360054,43.2080022 84.648,42.76 C83.5599946,42.3119978 82.6240039,41.692004 81.84,40.9 C81.0559961,40.107996 80.4440022,39.1680054 80.004,38.08 C79.5639978,36.9919946 79.344,35.8000065 79.344,34.504 C79.344,33.2079935 79.5679978,32.0160054 80.016,30.928 C80.4640022,29.8399946 81.083996,28.900004 81.876,28.108 C82.668004,27.315996 83.6039946,26.6960022 84.684,26.248 C85.7640054,25.7999978 86.9359937,25.576 88.2,25.576 C88.8240031,25.576 89.435997,25.6399994 90.036,25.768 C90.636003,25.8960006 91.1999974,26.0759988 91.728,26.308 C92.2560026,26.5400012 92.7359978,26.8199984 93.168,27.148 C93.6000022,27.4760016 93.9599986,27.8479979 94.248,28.264 L92.808,29.32 C92.6319991,29.0479986 92.3960015,28.7760014 92.1,28.504 C91.8039985,28.2319986 91.456002,27.992001 91.056,27.784 C90.655998,27.575999 90.2200024,27.4080006 89.748,27.28 C89.2759976,27.1519994 88.7680027,27.088 88.224,27.088 C87.1199945,27.088 86.1320044,27.287998 85.26,27.688 C84.3879956,28.088002 83.648003,28.6279966 83.04,29.308 C82.431997,29.9880034 81.9680016,30.7759955 81.648,31.672 C81.3279984,32.5680045 81.168,33.511995 81.168,34.504 C81.168,35.496005 81.3319984,36.4399955 81.66,37.336 C81.9880016,38.2320045 82.455997,39.0199966 83.064,39.7 C83.672003,40.3800034 84.4119956,40.919998 85.284,41.32 C86.1560044,41.720002 87.1359946,41.92 88.224,41.92 C89.2000049,41.92 90.1279956,41.720002 91.008,41.32 C91.8880044,40.919998 92.623997,40.2800044 93.216,39.4 L94.56,40.264 Z M108.312,37.384 C108.312,38.2320042 108.164001,39.0159964 107.868,39.736 C107.571999,40.4560036 107.160003,41.0799974 106.632,41.608 C106.103997,42.1360026 105.472004,42.5479985 104.736,42.844 C103.999996,43.1400015 103.192004,43.288 102.312,43.288 C101.447996,43.288 100.648004,43.1400015 99.912,42.844 C99.1759963,42.5479985 98.5440026,42.1360026 98.016,41.608 C97.4879974,41.0799974 97.0760015,40.4560036 96.78,39.736 C96.4839985,39.0159964 96.336,38.2320042 96.336,37.384 C96.336,36.5359958 96.4839985,35.7520036 96.78,35.032 C97.0760015,34.3119964 97.4879974,33.6880026 98.016,33.16 C98.5440026,32.6319974 99.1759963,32.2200015 99.912,31.924 C100.648004,31.6279985 101.447996,31.48 102.312,31.48 C103.192004,31.48 103.999996,31.6279985 104.736,31.924 C105.472004,32.2200015 106.103997,32.6319974 106.632,33.16 C107.160003,33.6880026 107.571999,34.3119964 107.868,35.032 C108.164001,35.7520036 108.312,36.5359958 108.312,37.384 L108.312,37.384 Z M106.584,37.384 C106.584,36.7599969 106.484001,36.1720028 106.284,35.62 C106.083999,35.0679972 105.800002,34.588002 105.432,34.18 C105.063998,33.771998 104.616003,33.4480012 104.088,33.208 C103.559997,32.9679988 102.968003,32.848 102.312,32.848 C101.655997,32.848 101.068003,32.9679988 100.548,33.208 C100.027997,33.4480012 99.5840018,33.771998 99.216,34.18 C98.8479982,34.588002 98.564001,35.0679972 98.364,35.62 C98.163999,36.1720028 98.064,36.7599969 98.064,37.384 C98.064,38.0080031 98.163999,38.5959972 98.364,39.148 C98.564001,39.7000028 98.8479982,40.179998 99.216,40.588 C99.5840018,40.996002 100.027997,41.3159988 100.548,41.548 C101.068003,41.7800012 101.655997,41.896 102.312,41.896 C102.968003,41.896 103.559997,41.7800012 104.088,41.548 C104.616003,41.3159988 105.063998,40.996002 105.432,40.588 C105.800002,40.179998 106.083999,39.7000028 106.284,39.148 C106.484001,38.5959972 106.584,38.0080031 106.584,37.384 L106.584,37.384 Z M113.28,31.768 C113.312,32.0720015 113.336,32.4079982 113.352,32.776 C113.368,33.1440018 113.376,33.4479988 113.376,33.688 L113.424,33.688 C113.744002,33.0319967 114.263996,32.500002 114.984,32.092 C115.704004,31.683998 116.463996,31.48 117.264,31.48 C118.688007,31.48 119.755996,31.9039958 120.468,32.752 C121.180004,33.6000042 121.536,34.719993 121.536,36.112 L121.536,43 L119.904,43 L119.904,36.784 C119.904,36.191997 119.856,35.6560024 119.76,35.176 C119.664,34.6959976 119.500001,34.2840017 119.268,33.94 C119.035999,33.5959983 118.724002,33.328001 118.332,33.136 C117.939998,32.943999 117.448003,32.848 116.856,32.848 C116.423998,32.848 116.004002,32.9359991 115.596,33.112 C115.187998,33.2880009 114.824002,33.5559982 114.504,33.916 C114.183998,34.2760018 113.928001,34.7319972 113.736,35.284 C113.543999,35.8360028 113.448,36.4879962 113.448,37.24 L113.448,43 L111.816,43 L111.816,34.24 C111.816,33.9359985 111.808,33.5440024 111.792,33.064 C111.776,32.5839976 111.752,32.1520019 111.72,31.768 L113.28,31.768 Z M130.824,33.136 L127.656,33.136 L127.656,39.688 C127.656,40.1040021 127.696,40.4479986 127.776,40.72 C127.856,40.9920014 127.971999,41.2039992 128.124,41.356 C128.276001,41.5080008 128.455999,41.6119997 128.664,41.668 C128.872001,41.7240003 129.095999,41.752 129.336,41.752 C129.560001,41.752 129.795999,41.7200003 130.044,41.656 C130.292001,41.5919997 130.527999,41.5040006 130.752,41.392 L130.824,42.808 C130.535999,42.9200006 130.236002,43.0039997 129.924,43.06 C129.611998,43.1160003 129.272002,43.144 128.904,43.144 C128.599998,43.144 128.280002,43.1040004 127.944,43.024 C127.607998,42.9439996 127.296001,42.7920011 127.008,42.568 C126.719999,42.3439989 126.484001,42.0400019 126.3,41.656 C126.115999,41.2719981 126.024,40.7680031 126.024,40.144 L126.024,33.136 L123.696,33.136 L123.696,31.768 L126.024,31.768 L126.024,28.6 L127.656,28.6 L127.656,31.768 L130.824,31.768 L130.824,33.136 Z M133.368,34.24 C133.368,33.9359985 133.36,33.5440024 133.344,33.064 C133.328,32.5839976 133.304,32.1520019 133.272,31.768 L134.832,31.768 C134.864,32.0720015 134.888,32.4079982 134.904,32.776 C134.92,33.1440018 134.928,33.4479988 134.928,33.688 L134.976,33.688 C135.296002,33.0319967 135.775997,32.500002 136.416,32.092 C137.056003,31.683998 137.775996,31.48 138.576,31.48 C138.784001,31.48 138.971999,31.4879999 139.14,31.504 C139.308001,31.5200001 139.479999,31.5519998 139.656,31.6 L139.44,33.136 C139.344,33.1039998 139.184001,33.0720002 138.96,33.04 C138.735999,33.0079998 138.512001,32.992 138.288,32.992 C137.855998,32.992 137.440002,33.0719992 137.04,33.232 C136.639998,33.3920008 136.292001,33.6439983 135.996,33.988 C135.699999,34.3320017 135.460001,34.7719973 135.276,35.308 C135.091999,35.8440027 135,36.4879962 135,37.24 L135,43 L133.368,43 L133.368,34.24 Z M152.736,37.384 C152.736,38.2320042 152.588001,39.0159964 152.292,39.736 C151.995999,40.4560036 151.584003,41.0799974 151.056,41.608 C150.527997,42.1360026 149.896004,42.5479985 149.16,42.844 C148.423996,43.1400015 147.616004,43.288 146.736,43.288 C145.871996,43.288 145.072004,43.1400015 144.336,42.844 C143.599996,42.5479985 142.968003,42.1360026 142.44,41.608 C141.911997,41.0799974 141.500001,40.4560036 141.204,39.736 C140.907999,39.0159964 140.76,38.2320042 140.76,37.384 C140.76,36.5359958 140.907999,35.7520036 141.204,35.032 C141.500001,34.3119964 141.911997,33.6880026 142.44,33.16 C142.968003,32.6319974 143.599996,32.2200015 144.336,31.924 C145.072004,31.6279985 145.871996,31.48 146.736,31.48 C147.616004,31.48 148.423996,31.6279985 149.16,31.924 C149.896004,32.2200015 150.527997,32.6319974 151.056,33.16 C151.584003,33.6880026 151.995999,34.3119964 152.292,35.032 C152.588001,35.7520036 152.736,36.5359958 152.736,37.384 L152.736,37.384 Z M151.008,37.384 C151.008,36.7599969 150.908001,36.1720028 150.708,35.62 C150.507999,35.0679972 150.224002,34.588002 149.856,34.18 C149.487998,33.771998 149.040003,33.4480012 148.512,33.208 C147.983997,32.9679988 147.392003,32.848 146.736,32.848 C146.079997,32.848 145.492003,32.9679988 144.972,33.208 C144.451997,33.4480012 144.008002,33.771998 143.64,34.18 C143.271998,34.588002 142.988001,35.0679972 142.788,35.62 C142.587999,36.1720028 142.488,36.7599969 142.488,37.384 C142.488,38.0080031 142.587999,38.5959972 142.788,39.148 C142.988001,39.7000028 143.271998,40.179998 143.64,40.588 C144.008002,40.996002 144.451997,41.3159988 144.972,41.548 C145.492003,41.7800012 146.079997,41.896 146.736,41.896 C147.392003,41.896 147.983997,41.7800012 148.512,41.548 C149.040003,41.3159988 149.487998,40.996002 149.856,40.588 C150.224002,40.179998 150.507999,39.7000028 150.708,39.148 C150.908001,38.5959972 151.008,38.0080031 151.008,37.384 L151.008,37.384 Z M157.92,43 L156.288,43 L156.288,24.856 L157.92,24.856 L157.92,43 Z M163.968,43 L162.336,43 L162.336,24.856 L163.968,24.856 L163.968,43 Z M176.904,36.52 C176.856,35.4639947 176.516003,34.5880035 175.884,33.892 C175.251997,33.1959965 174.352006,32.848 173.184,32.848 C172.639997,32.848 172.136002,32.947999 171.672,33.148 C171.207998,33.348001 170.800002,33.6199983 170.448,33.964 C170.095998,34.3080017 169.816001,34.6999978 169.608,35.14 C169.399999,35.5800022 169.28,36.0399976 169.248,36.52 L176.904,36.52 Z M178.56,37.048 L178.56,37.408 C178.56,37.5360006 178.552,37.6719993 178.536,37.816 L169.224,37.816 C169.24,38.3760028 169.351999,38.9039975 169.56,39.4 C169.768001,39.8960025 170.055998,40.3279982 170.424,40.696 C170.792002,41.0640018 171.223998,41.3559989 171.72,41.572 C172.216002,41.7880011 172.751997,41.896 173.328,41.896 C174.176004,41.896 174.907997,41.700002 175.524,41.308 C176.140003,40.915998 176.607998,40.4640026 176.928,39.952 L178.152,40.912 C177.479997,41.7600042 176.740004,42.3679982 175.932,42.736 C175.123996,43.1040018 174.256005,43.288 173.328,43.288 C172.495996,43.288 171.724004,43.1400015 171.012,42.844 C170.299996,42.5479985 169.688003,42.1360026 169.176,41.608 C168.663997,41.0799974 168.260001,40.4560036 167.964,39.736 C167.667999,39.0159964 167.52,38.2320042 167.52,37.384 C167.52,36.5359958 167.663999,35.7520036 167.952,35.032 C168.240001,34.3119964 168.639997,33.6880026 169.152,33.16 C169.664003,32.6319974 170.263997,32.2200015 170.952,31.924 C171.640003,31.6279985 172.383996,31.48 173.184,31.48 C174.064004,31.48 174.839997,31.6279985 175.512,31.924 C176.184003,32.2200015 176.743998,32.6199975 177.192,33.124 C177.640002,33.6280025 177.979999,34.2159966 178.212,34.888 C178.444001,35.5600034 178.56,36.2799962 178.56,37.048 L178.56,37.048 Z M182.064,34.24 C182.064,33.9359985 182.056,33.5440024 182.04,33.064 C182.024,32.5839976 182,32.1520019 181.968,31.768 L183.528,31.768 C183.56,32.0720015 183.584,32.4079982 183.6,32.776 C183.616,33.1440018 183.624,33.4479988 183.624,33.688 L183.672,33.688 C183.992002,33.0319967 184.471997,32.500002 185.112,32.092 C185.752003,31.683998 186.471996,31.48 187.272,31.48 C187.480001,31.48 187.667999,31.4879999 187.836,31.504 C188.004001,31.5200001 188.175999,31.5519998 188.352,31.6 L188.136,33.136 C188.04,33.1039998 187.880001,33.0720002 187.656,33.04 C187.431999,33.0079998 187.208001,32.992 186.984,32.992 C186.551998,32.992 186.136002,33.0719992 185.736,33.232 C185.335998,33.3920008 184.988001,33.6439983 184.692,33.988 C184.395999,34.3320017 184.156001,34.7719973 183.972,35.308 C183.787999,35.8440027 183.696,36.4879962 183.696,37.24 L183.696,43 L182.064,43 L182.064,34.24 Z" id="Heat-pump-Controller" fill="#FFFFFF"></path>
                </g>
            </g>
        </g>
    </g>
</svg>