<?xml version="1.0" encoding="UTF-8" standalone="no"?>
<svg width="79px" height="78px" viewBox="0 0 79 78" version="1.1" xmlns="http://www.w3.org/2000/svg" xmlns:xlink="http://www.w3.org/1999/xlink" xmlns:sketch="http://www.bohemiancoding.com/sketch/ns">
    <!-- Generator: Sketch 3.4.3 (16044) - http://www.bohemiancoding.com/sketch -->
    <title>logo-xs</title>
    <desc>Created with Sketch.</desc>
    <defs></defs>
    <g id="Page-1" stroke="none" stroke-width="1" fill="none" fill-rule="evenodd" sketch:type="MSPage">
        <g id="logo-xs" sketch:type="MSLayerGroup">
            <rect id="Rectangle-11" fill="#CD9987" sketch:type="MSShapeGroup" x="11.8628519" y="5.45454545" width="27.0362671" height="12"></rect>
            <path d="M61.6712673,11.4545455 L38.4973241,22.9090909 L38.4973241,0 L61.6712673,11.4545455 L61.6712673,11.4545455 Z" id="Triangle-1" fill="#CD9987" sketch:type="MSShapeGroup"></path>
            <rect id="Rectangle-11" fill="#9DB2A7" sketch:type="MSShapeGroup" transform="translate(52.843098, 66.545455) scale(-1, 1) translate(-52.843098, -66.545455) " x="39.3249649" y="60.5454545" width="27.0362671" height="12"></rect>
            <path d="M16.5528166,66.5454545 L39.7267598,78 L39.7267598,55.0909091 L16.5528166,66.5454545 L16.5528166,66.5454545 Z" id="Triangle-1" fill="#9DB2A7" sketch:type="MSShapeGroup"></path>
            <path d="M72.5565127,11.679979 L72.5565127,38.4072517 L60.4177805,38.4072517 L60.4177805,11.679979 L72.5565127,11.679979 L72.5565127,11.679979 Z" id="Rectangle-11" fill="#CD9987" sketch:type="MSShapeGroup"></path>
            <path d="M66.6983674,60.8778409 L55.1113958,37.96875 L78.285339,37.96875 L66.6983674,60.8778409 L66.6983674,60.8778409 Z" id="Triangle-1" fill="#CD9987" sketch:type="MSShapeGroup"></path>
            <path d="M5.51760553,39.8181818 L5.51760553,66.5454545 L17.6563377,66.5454545 L17.6563377,39.8181818 L5.51760553,39.8181818 L5.51760553,39.8181818 Z" id="Rectangle-11" fill="#9DB2A7" sketch:type="MSShapeGroup"></path>
            <path d="M11.5869716,17.3070501 L0,40.216141 L23.1739432,40.216141 L11.5869716,17.3070501 L11.5869716,17.3070501 Z" id="Triangle-1" fill="#9DB2A7" sketch:type="MSShapeGroup"></path>
        </g>
    </g>
</svg>