<?xml version="1.0" encoding="UTF-8" standalone="no"?>
<svg width="282px" height="103px" viewBox="0 0 282 103" version="1.1" xmlns="http://www.w3.org/2000/svg" xmlns:xlink="http://www.w3.org/1999/xlink" xmlns:sketch="http://www.bohemiancoding.com/sketch/ns">
    <!-- Generator: Sketch 3.4.3 (16044) - http://www.bohemiancoding.com/sketch -->
    <title>logo-dark-sm</title>
    <desc>Created with Sketch.</desc>
    <defs></defs>
    <g id="Page-1" stroke="none" stroke-width="1" fill="none" fill-rule="evenodd" sketch:type="MSPage">
        <g id="logo-dark-sm" sketch:type="MSLayerGroup">
            <rect id="Rectangle-29" fill="#3F3F3F" sketch:type="MSShapeGroup" x="0" y="0" width="282" height="103"></rect>
            <g id="logo-icon" transform="translate(15.600000, 12.649123)" sketch:type="MSShapeGroup">
                <rect id="Rectangle-11" fill="#CD9987" x="11.8537154" y="5.47581074" width="27.0154444" height="12.0467836"></rect>
                <path d="M61.6237696,11.4992026 L38.4676744,22.9984051 L38.4676744,0 L61.6237696,11.4992026 L61.6237696,11.4992026 Z" id="Triangle-1" fill="#CD9987"></path>
                <rect id="Rectangle-11" fill="#9DB2A7" transform="translate(52.802400, 66.804891) scale(-1, 1) translate(-52.802400, -66.804891) " x="39.2946778" y="60.7814992" width="27.0154444" height="12.0467836"></rect>
                <path d="M16.540068,66.804891 L39.6961632,78.3040936 L39.6961632,55.3056885 L16.540068,66.804891 L16.540068,66.804891 Z" id="Triangle-1" fill="#9DB2A7"></path>
                <path d="M72.5006314,11.725515 L72.5006314,38.5569876 L60.3712482,38.5569876 L60.3712482,11.725515 L72.5006314,11.725515 L72.5006314,11.725515 Z" id="Rectangle-11" fill="#CD9987"></path>
                <path d="M66.6469979,61.1151814 L55.0689503,38.1167763 L78.2250455,38.1167763 L66.6469979,61.1151814 L66.6469979,61.1151814 Z" id="Triangle-1" fill="#CD9987"></path>
                <path d="M5.513356,39.9734184 L5.513356,66.804891 L17.6427392,66.804891 L17.6427392,39.9734184 L5.513356,39.9734184 L5.513356,39.9734184 Z" id="Rectangle-11" fill="#9DB2A7"></path>
                <path d="M11.5780476,17.374524 L0,40.3729291 L23.1560952,40.3729291 L11.5780476,17.374524 L11.5780476,17.374524 Z" id="Triangle-1" fill="#9DB2A7"></path>
            </g>
            <g id="logo-text" transform="translate(113.006897, 27.444954)" fill="#FFFFFF" sketch:type="MSShapeGroup">
                <path d="M0.227586207,0 L2.92128233,0 L2.92128233,8.16260423 L12.7092672,8.16260423 L12.7092672,0 L15.4029634,0 L15.4029634,19.9130198 L12.7092672,19.9130198 L12.7092672,10.4299943 L2.92128233,10.4299943 L2.92128233,19.9130198 L0.227586207,19.9130198 L0.227586207,0 Z M33.8872306,11.8304411 L33.8872306,13.0308241 L22.6057112,13.0308241 C22.7123928,14.7202604 23.2213451,16.0073248 24.1325835,16.892056 C25.0438219,17.7767871 26.312869,18.219146 27.9397629,18.219146 C28.8821168,18.219146 29.795564,18.1035548 30.680132,17.8723687 C31.5647,17.6411827 32.4425872,17.2944089 33.31382,16.8320368 L33.31382,19.1527772 C32.4336971,19.5262316 31.5313624,19.810764 30.6067888,20.0063829 C29.6822152,20.2020019 28.7443205,20.2998099 27.7930765,20.2998099 C25.4105215,20.2998099 23.5236196,19.6062622 22.1323141,18.219146 C20.7410087,16.8320299 20.0453664,14.9558945 20.0453664,12.5906836 C20.0453664,10.1454468 20.7054487,8.20484711 22.0256331,6.76882622 C23.3458175,5.33280533 25.1260394,4.61480566 27.3663524,4.61480566 C29.3755219,4.61480566 30.9646089,5.26167224 32.1336611,6.5554248 C33.3027133,7.84917737 33.8872306,9.60749855 33.8872306,11.8304411 L33.8872306,11.8304411 Z M31.4335668,11.1102113 C31.4157865,9.76755401 31.0401842,8.69611178 30.3067484,7.89585246 C29.5733126,7.09559314 28.6020804,6.69546948 27.3930226,6.69546948 C26.0239425,6.69546948 24.9282503,7.08225568 24.1059133,7.85583969 C23.2835762,8.6294237 22.8101838,9.71864921 22.685722,11.1235489 L31.4335668,11.1102113 Z M45.1571929,12.4039574 C43.1746938,12.4039574 41.8011892,12.6306941 41.0366379,13.0841744 C40.2720867,13.5376547 39.8898168,14.3112271 39.8898168,15.4049148 C39.8898168,16.2763083 40.1765192,16.9676331 40.7499327,17.4789099 C41.3233461,17.9901867 42.1034433,18.2458212 43.0902478,18.2458212 C44.4504378,18.2458212 45.541685,17.7634499 46.3640221,16.7986929 C47.1863592,15.8339358 47.5975216,14.5513172 47.5975216,12.9507985 L47.5975216,12.4039574 L45.1571929,12.4039574 Z M50.0511853,11.3903007 L50.0511853,19.9130198 L47.5975216,19.9130198 L47.5975216,17.6456297 C47.0374433,18.5525903 46.3395785,19.221686 45.5039062,19.6529368 C44.668234,20.0841877 43.6458843,20.2998099 42.4368265,20.2998099 C40.907724,20.2998099 39.6920169,19.8707884 38.7896686,19.0127326 C37.8873204,18.1546767 37.436153,17.0054327 37.436153,15.5649659 C37.436153,13.8844213 37.9984453,12.6173631 39.1230469,11.7637532 C40.2476484,10.9101432 41.9256354,10.4833446 44.1570582,10.4833446 L47.5975216,10.4833446 L47.5975216,10.2432681 C47.5975216,9.11401324 47.2263642,8.24040992 46.4840383,7.62243189 C45.7417123,7.00445386 44.6993602,6.69546948 43.3569504,6.69546948 C42.5034979,6.69546948 41.6722831,6.79772331 40.8632812,7.00223402 C40.0542794,7.20674474 39.2764046,7.51350621 38.5296336,7.92252764 L38.5296336,5.65513757 C39.4275368,5.30835853 40.2987566,5.04827816 41.143319,4.87488864 C41.9878814,4.70149912 42.8102061,4.61480566 43.6103179,4.61480566 C45.7706196,4.61480566 47.3841541,5.17497878 48.4509698,6.29534182 C49.5177855,7.41570487 50.0511853,9.1140075 50.0511853,11.3903007 L50.0511853,11.3903007 Z M57.9873653,0.733567374 L57.9873653,4.97492055 L63.0413793,4.97492055 L63.0413793,6.88219572 L57.9873653,6.88219572 L57.9873653,14.9914496 C57.9873653,16.2096221 58.1540528,16.9920862 58.4874327,17.3388652 C58.8208126,17.6856442 59.4986748,17.8590312 60.5210399,17.8590312 L63.0413793,17.8590312 L63.0413793,19.9130198 L60.5210399,19.9130198 C58.627442,19.9130198 57.3206124,19.5595772 56.6005119,18.8526815 C55.8804113,18.1457858 55.5203664,16.8587213 55.5203664,14.9914496 L55.5203664,6.88219572 L53.7201239,6.88219572 L53.7201239,4.97492055 L55.5203664,4.97492055 L55.5203664,0.733567374 L57.9873653,0.733567374 Z M78.2336476,17.6723049 L78.2336476,25.5948325 L75.7666487,25.5948325 L75.7666487,4.97492055 L78.2336476,4.97492055 L78.2336476,7.24231062 C78.7492752,6.3531336 79.4004675,5.69292956 80.1872441,5.26167871 C80.9740206,4.83042785 81.9141379,4.61480566 83.0076239,4.61480566 C84.8212106,4.61480566 86.2947276,5.33502824 87.4282193,6.77549501 C88.5617109,8.21596179 89.1284483,10.1098804 89.1284483,12.4573078 C89.1284483,14.8047351 88.5617109,16.6986537 87.4282193,18.1391205 C86.2947276,19.5795873 84.8212106,20.2998099 83.0076239,20.2998099 C81.9141379,20.2998099 80.9740206,20.0841877 80.1872441,19.6529368 C79.4004675,19.221686 78.7492752,18.5614819 78.2336476,17.6723049 L78.2336476,17.6723049 Z M86.5814386,12.4573078 C86.5814386,10.6522784 86.2102812,9.23628525 85.4679553,8.20928579 C84.7256294,7.18228633 83.7055022,6.66879431 82.4075431,6.66879431 C81.109584,6.66879431 80.0894568,7.18228633 79.3471309,8.20928579 C78.604805,9.23628525 78.2336476,10.6522784 78.2336476,12.4573078 C78.2336476,14.2623371 78.604805,15.6783303 79.3471309,16.7053297 C80.0894568,17.7323292 81.109584,18.2458212 82.4075431,18.2458212 C83.7055022,18.2458212 84.7256294,17.7323292 85.4679553,16.7053297 C86.2102812,15.6783303 86.5814386,14.2623371 86.5814386,12.4573078 L86.5814386,12.4573078 Z M93.3974677,14.0178056 L93.3974677,4.97492055 L95.8511315,4.97492055 L95.8511315,13.9244425 C95.8511315,15.338234 96.1267214,16.3985617 96.6779095,17.1054574 C97.2290976,17.8123531 98.0558673,18.1657957 99.1582435,18.1657957 C100.482873,18.1657957 101.52967,17.7434429 102.298666,16.8987248 C103.067663,16.0540066 103.452155,14.9025396 103.452155,13.4442893 L103.452155,4.97492055 L105.905819,4.97492055 L105.905819,19.9130198 L103.452155,19.9130198 L103.452155,17.6189546 C102.856516,18.5259151 102.165319,19.1994566 101.378543,19.6395992 C100.591766,20.0797419 99.6783188,20.2998099 98.6381735,20.2998099 C96.9223783,20.2998099 95.6199937,19.7663117 94.7309806,18.6992992 C93.8419675,17.6322868 93.3974677,16.0718045 93.3974677,14.0178056 L93.3974677,14.0178056 Z M123.043238,7.8425021 C123.656657,6.7399226 124.390082,5.92633783 125.243534,5.40172339 C126.096987,4.87710895 127.101557,4.61480566 128.257274,4.61480566 C129.813047,4.61480566 131.013196,5.15941842 131.857759,6.24866026 C132.702321,7.33790211 133.124596,8.88726983 133.124596,10.8968099 L133.124596,19.9130198 L130.657597,19.9130198 L130.657597,10.9768354 C130.657597,9.54526043 130.404232,8.48270982 129.897495,7.78915175 C129.390757,7.09559367 128.617327,6.74881984 127.577182,6.74881984 C126.305893,6.74881984 125.301324,7.17117259 124.563443,8.01589076 C123.825562,8.86060892 123.456627,10.0120759 123.456627,11.4703262 L123.456627,19.9130198 L120.989628,19.9130198 L120.989628,10.9768354 C120.989628,9.53636866 120.736263,8.47159515 120.229526,7.78248295 C119.722788,7.09337076 118.940469,6.74881984 117.882543,6.74881984 C116.629035,6.74881984 115.633355,7.1733955 114.895474,8.02255955 C114.157593,8.8717236 113.788658,10.0209677 113.788658,11.4703262 L113.788658,19.9130198 L111.321659,19.9130198 L111.321659,4.97492055 L113.788658,4.97492055 L113.788658,7.29566097 C114.348737,6.37980864 115.019931,5.70404424 115.802263,5.2683475 C116.584594,4.83265076 117.513599,4.61480566 118.589305,4.61480566 C119.673901,4.61480566 120.596238,4.8904464 121.356344,5.44173615 C122.11645,5.99302591 122.678743,6.79327322 123.043238,7.8425021 L123.043238,7.8425021 Z M140.847414,17.6723049 L140.847414,25.5948325 L138.380415,25.5948325 L138.380415,4.97492055 L140.847414,4.97492055 L140.847414,7.24231062 C141.363041,6.3531336 142.014234,5.69292956 142.80101,5.26167871 C143.587787,4.83042785 144.527904,4.61480566 145.62139,4.61480566 C147.434977,4.61480566 148.908494,5.33502824 150.041985,6.77549501 C151.175477,8.21596179 151.742214,10.1098804 151.742214,12.4573078 C151.742214,14.8047351 151.175477,16.6986537 150.041985,18.1391205 C148.908494,19.5795873 147.434977,20.2998099 145.62139,20.2998099 C144.527904,20.2998099 143.587787,20.0841877 142.80101,19.6529368 C142.014234,19.221686 141.363041,18.5614819 140.847414,17.6723049 L140.847414,17.6723049 Z M149.195205,12.4573078 C149.195205,10.6522784 148.824047,9.23628525 148.081721,8.20928579 C147.339396,7.18228633 146.319268,6.66879431 145.021309,6.66879431 C143.72335,6.66879431 142.703223,7.18228633 141.960897,8.20928579 C141.218571,9.23628525 140.847414,10.6522784 140.847414,12.4573078 C140.847414,14.2623371 141.218571,15.6783303 141.960897,16.7053297 C142.703223,17.7323292 143.72335,18.2458212 145.021309,18.2458212 C146.319268,18.2458212 147.339396,17.7323292 148.081721,16.7053297 C148.824047,15.6783303 149.195205,14.2623371 149.195205,12.4573078 L149.195205,12.4573078 Z" id="Heat-pump"></path>
                <path d="M16.2235183,31.9266304 L16.2235183,34.7675368 C15.316725,33.9228187 14.3499378,33.2915124 13.3231277,32.8735992 C12.2963176,32.455686 11.2050704,32.2467326 10.0493534,32.2467326 C7.77348,32.2467326 6.03104053,32.9425032 4.82198276,34.3340652 C3.61292499,35.7256272 3.00840517,37.7373601 3.00840517,40.369324 C3.00840517,42.9923962 3.61292499,44.9996833 4.82198276,46.3912453 C6.03104053,47.7828073 7.77348,48.4785779 10.0493534,48.4785779 C11.2050704,48.4785779 12.2963176,48.2696244 13.3231277,47.8517112 C14.3499378,47.433798 15.316725,46.8024918 16.2235183,45.9577737 L16.2235183,48.7720049 C15.2811645,49.4122123 14.2832623,49.8923607 13.2297818,50.2124644 C12.1763013,50.5325682 11.0628291,50.6926176 9.8893319,50.6926176 C6.8755776,50.6926176 4.50194832,49.7701103 2.76837284,47.925068 C1.03479737,46.0800257 0.168022629,43.5614695 0.168022629,40.369324 C0.168022629,37.1682868 1.03479737,34.6452848 2.76837284,32.8002425 C4.50194832,30.9552002 6.8755776,30.0326929 9.8893319,30.0326929 C11.0806094,30.0326929 12.2029716,30.1905194 13.256452,30.5061773 C14.3099325,30.8218351 15.2989447,31.2953148 16.2235183,31.9266304 L16.2235183,31.9266304 Z M26.5200162,37.0882772 C25.2042768,37.0882772 24.1641471,37.6017693 23.3995959,38.6287687 C22.6350447,39.6557682 22.2527748,41.0628697 22.2527748,42.8501155 C22.2527748,44.6373613 22.6328222,46.0444629 23.3929283,47.0714623 C24.1530345,48.0984618 25.1953867,48.6119538 26.5200162,48.6119538 C27.8268654,48.6119538 28.8625501,48.0962389 29.6271013,47.0647935 C30.3916525,46.0333482 30.7739224,44.6284696 30.7739224,42.8501155 C30.7739224,41.0806532 30.3916525,39.6779975 29.6271013,38.6421063 C28.8625501,37.6062151 27.8268654,37.0882772 26.5200162,37.0882772 L26.5200162,37.0882772 Z M26.5200162,35.0076134 C28.6536475,35.0076134 30.329412,35.7011611 31.5473599,37.0882772 C32.7653078,38.4753934 33.3742726,40.3959869 33.3742726,42.8501155 C33.3742726,45.2953523 32.7653078,47.213723 31.5473599,48.605285 C30.329412,49.996847 28.6536475,50.6926176 26.5200162,50.6926176 C24.3774947,50.6926176 22.6995077,49.996847 21.4860048,48.605285 C20.272502,47.213723 19.6657597,45.2953523 19.6657597,42.8501155 C19.6657597,40.3959869 20.272502,38.4753934 21.4860048,37.0882772 C22.6995077,35.7011611 24.3774947,35.0076134 26.5200162,35.0076134 L26.5200162,35.0076134 Z M50.3116649,41.2896177 L50.3116649,50.3058276 L47.8580011,50.3058276 L47.8580011,41.3696432 C47.8580011,39.9558517 47.5824112,38.8977469 47.0312231,38.1952971 C46.480035,37.4928472 45.6532652,37.1416276 44.550889,37.1416276 C43.2262595,37.1416276 42.1816849,37.5639803 41.4171336,38.4086985 C40.6525824,39.2534167 40.2703125,40.4048836 40.2703125,41.863134 L40.2703125,50.3058276 L37.8033136,50.3058276 L37.8033136,35.3677283 L40.2703125,35.3677283 L40.2703125,37.6884687 C40.8570611,36.7903999 41.5482584,36.1190814 42.3439251,35.6744928 C43.1395918,35.2299043 44.057484,35.0076134 45.0976293,35.0076134 C46.8134245,35.0076134 48.1113641,35.5388887 48.9914871,36.6014553 C49.87161,37.6640218 50.3116649,39.226727 50.3116649,41.2896177 L50.3116649,41.2896177 Z M58.0878233,31.1263751 L58.0878233,35.3677283 L63.1418373,35.3677283 L63.1418373,37.2750035 L58.0878233,37.2750035 L58.0878233,45.3842574 C58.0878233,46.6024299 58.2545107,47.3848939 58.5878906,47.731673 C58.9212705,48.078452 59.5991328,48.2518389 60.6214978,48.2518389 L63.1418373,48.2518389 L63.1418373,50.3058276 L60.6214978,50.3058276 C58.7279,50.3058276 57.4210704,49.952385 56.7009698,49.2454893 C55.9808692,48.5385935 55.6208244,47.2515291 55.6208244,45.3842574 L55.6208244,37.2750035 L53.8205819,37.2750035 L53.8205819,35.3677283 L55.6208244,35.3677283 L55.6208244,31.1263751 L58.0878233,31.1263751 Z M75.4786099,37.6617935 C75.2030159,37.5017417 74.9029785,37.3839275 74.5784887,37.3083475 C74.2539989,37.2327674 73.8961765,37.1949779 73.5050108,37.1949779 C72.1181504,37.1949779 71.0535732,37.6462285 70.3112473,38.5487432 C69.5689214,39.4512579 69.197764,40.7472139 69.197764,42.4366503 L69.197764,50.3058276 L66.7307651,50.3058276 L66.7307651,35.3677283 L69.197764,35.3677283 L69.197764,37.6884687 C69.7133916,36.7815082 70.3845864,36.1079667 71.2113685,35.6678241 C72.0381507,35.2276814 73.0427204,35.0076134 74.2251078,35.0076134 C74.3940202,35.0076134 74.5807102,35.018728 74.7851832,35.0409574 C74.9896562,35.0631868 75.2163511,35.0965305 75.4652748,35.1409893 L75.4786099,37.6617935 Z M83.6948276,37.0882772 C82.3790882,37.0882772 81.3389586,37.6017693 80.5744073,38.6287687 C79.8098561,39.6557682 79.4275862,41.0628697 79.4275862,42.8501155 C79.4275862,44.6373613 79.8076336,46.0444629 80.5677398,47.0714623 C81.3278459,48.0984618 82.3701981,48.6119538 83.6948276,48.6119538 C85.0016768,48.6119538 86.0373615,48.0962389 86.8019127,47.0647935 C87.566464,46.0333482 87.9487338,44.6284696 87.9487338,42.8501155 C87.9487338,41.0806532 87.566464,39.6779975 86.8019127,38.6421063 C86.0373615,37.6062151 85.0016768,37.0882772 83.6948276,37.0882772 L83.6948276,37.0882772 Z M83.6948276,35.0076134 C85.8284589,35.0076134 87.5042234,35.7011611 88.7221713,37.0882772 C89.9401192,38.4753934 90.5490841,40.3959869 90.5490841,42.8501155 C90.5490841,45.2953523 89.9401192,47.213723 88.7221713,48.605285 C87.5042234,49.996847 85.8284589,50.6926176 83.6948276,50.6926176 C81.5523061,50.6926176 79.8743191,49.996847 78.6608163,48.605285 C77.4473134,47.213723 76.8405711,45.2953523 76.8405711,42.8501155 C76.8405711,40.3959869 77.4473134,38.4753934 78.6608163,37.0882772 C79.8743191,35.7011611 81.5523061,35.0076134 83.6948276,35.0076134 L83.6948276,35.0076134 Z M95.0714709,29.5525397 L97.5251347,29.5525397 L97.5251347,50.3058276 L95.0714709,50.3058276 L95.0714709,29.5525397 Z M103.114332,29.5525397 L105.567996,29.5525397 L105.567996,50.3058276 L103.114332,50.3058276 L103.114332,29.5525397 Z M123.932247,42.2232489 L123.932247,43.4236318 L112.650727,43.4236318 C112.757409,45.1130682 113.266361,46.4001326 114.1776,47.2848637 C115.088838,48.1695949 116.357885,48.6119538 117.984779,48.6119538 C118.927133,48.6119538 119.84058,48.4963625 120.725148,48.2651765 C121.609716,48.0339905 122.487603,47.6872166 123.358836,47.2248446 L123.358836,49.545585 C122.478713,49.9190394 121.576379,50.2035717 120.651805,50.3991907 C119.727231,50.5948096 118.789337,50.6926176 117.838093,50.6926176 C115.455538,50.6926176 113.568636,49.99907 112.17733,48.6119538 C110.786025,47.2248376 110.090383,45.3487023 110.090383,42.9834914 C110.090383,40.5382546 110.750465,38.5976549 112.070649,37.161634 C113.390834,35.7256131 115.171056,35.0076134 117.411369,35.0076134 C119.420538,35.0076134 121.009625,35.65448 122.178677,36.9482326 C123.347729,38.2419851 123.932247,40.0003063 123.932247,42.2232489 L123.932247,42.2232489 Z M121.478583,41.5030191 C121.460803,40.1603618 121.0852,39.0889195 120.351765,38.2886602 C119.618329,37.4884009 118.647097,37.0882772 117.438039,37.0882772 C116.068959,37.0882772 114.973267,37.4750634 114.150929,38.2486474 C113.328592,39.0222315 112.8552,40.111457 112.730738,41.5163567 L121.478583,41.5030191 Z M137.069127,37.6617935 C136.793533,37.5017417 136.493496,37.3839275 136.169006,37.3083475 C135.844516,37.2327674 135.486694,37.1949779 135.095528,37.1949779 C133.708668,37.1949779 132.64409,37.6462285 131.901765,38.5487432 C131.159439,39.4512579 130.788281,40.7472139 130.788281,42.4366503 L130.788281,50.3058276 L128.321282,50.3058276 L128.321282,35.3677283 L130.788281,35.3677283 L130.788281,37.6884687 C131.303909,36.7815082 131.975104,36.1079667 132.801886,35.6678241 C133.628668,35.2276814 134.633238,35.0076134 135.815625,35.0076134 C135.984537,35.0076134 136.171227,35.018728 136.3757,35.0409574 C136.580173,35.0631868 136.806868,35.0965305 137.055792,35.1409893 L137.069127,37.6617935 Z" id="Controller"></path>
            </g>
        </g>
    </g>
</svg>