<?xml version="1.0" encoding="UTF-8" standalone="no"?>
<svg width="416px" height="130px" viewBox="0 0 416 130" version="1.1" xmlns="http://www.w3.org/2000/svg" xmlns:xlink="http://www.w3.org/1999/xlink" xmlns:sketch="http://www.bohemiancoding.com/sketch/ns">
    <!-- Generator: Sketch 3.4.3 (16044) - http://www.bohemiancoding.com/sketch -->
    <title>logo-lg</title>
    <desc>Created with Sketch.</desc>
    <defs></defs>
    <g id="Page-1" stroke="none" stroke-width="1" fill="none" fill-rule="evenodd" sketch:type="MSPage">
        <g id="logo-lg" sketch:type="MSLayerGroup">
            <g id="logo-icon" sketch:type="MSShapeGroup">
                <rect id="Rectangle-11" fill="#CD9987" x="19.7561923" y="9.09090909" width="45.0257407" height="20"></rect>
                <path d="M102.706283,19.0909091 L64.1127906,38.1818182 L64.1127906,0 L102.706283,19.0909091 L102.706283,19.0909091 Z" id="Triangle-1" fill="#CD9987"></path>
                <rect id="Rectangle-11" fill="#9DB2A7" transform="translate(88.004000, 110.909091) scale(-1, 1) translate(-88.004000, -110.909091) " x="65.4911296" y="100.909091" width="45.0257407" height="20"></rect>
                <path d="M27.56678,110.909091 L66.160272,130 L66.160272,91.8181818 L27.56678,110.909091 L27.56678,110.909091 Z" id="Triangle-1" fill="#9DB2A7"></path>
                <path d="M120.834386,19.4666316 L120.834386,64.0120862 L100.618747,64.0120862 L100.618747,19.4666316 L120.834386,19.4666316 L120.834386,19.4666316 Z" id="Rectangle-11" fill="#CD9987"></path>
                <path d="M111.07833,101.463068 L91.7815839,63.28125 L130.375076,63.28125 L111.07833,101.463068 L111.07833,101.463068 Z" id="Triangle-1" fill="#CD9987"></path>
                <path d="M9.18892666,66.3636364 L9.18892666,110.909091 L29.4045653,110.909091 L29.4045653,66.3636364 L9.18892666,66.3636364 L9.18892666,66.3636364 Z" id="Rectangle-11" fill="#9DB2A7"></path>
                <path d="M19.296746,28.8450835 L0,67.0269017 L38.593492,67.0269017 L19.296746,28.8450835 L19.296746,28.8450835 Z" id="Triangle-1" fill="#9DB2A7"></path>
            </g>
            <g id="logo-text" transform="translate(162.344828, 24.563953)" fill="#3F3F3F" sketch:type="MSShapeGroup">
                <path d="M0.379310345,0 L4.86880388,0 L4.86880388,13.551508 L21.1821121,13.551508 L21.1821121,0 L25.6716056,0 L25.6716056,33.0594795 L21.1821121,33.0594795 L21.1821121,17.3158158 L4.86880388,17.3158158 L4.86880388,33.0594795 L0.379310345,33.0594795 L0.379310345,0 Z M56.4787177,19.6408294 L56.4787177,21.6336982 L37.6761853,21.6336982 C37.853988,24.4384906 38.7022419,26.5752675 40.2209725,28.0440929 C41.7397032,29.5129184 43.8547817,30.2473201 46.5662716,30.2473201 C48.1368613,30.2473201 49.6592733,30.0554162 51.1335533,29.6716025 C52.6078333,29.2877888 54.0709787,28.7120769 55.5230334,27.9444495 L55.5230334,31.7973292 C54.0561618,32.4173359 52.5522706,32.8897149 51.0113147,33.2144804 C49.4703587,33.5392458 47.9072008,33.7016261 46.3217942,33.7016261 C42.3508692,33.7016261 39.2060326,32.5502023 36.8871902,30.2473201 C34.5683478,27.944438 33.408944,24.829689 33.408944,20.9029797 C33.408944,16.8434118 34.5090811,13.6216394 36.7093885,11.2375659 C38.9096958,8.85349235 41.8767324,7.66147347 45.6105873,7.66147347 C48.9592032,7.66147347 51.6076815,8.7353976 53.5561018,10.8832781 C55.5045221,13.0311585 56.4787177,15.9503131 56.4787177,19.6408294 L56.4787177,19.6408294 Z M52.389278,18.4451081 C52.3596442,16.2160363 51.7336403,14.4372341 50.5112473,13.1086483 C49.2888543,11.7800624 47.670134,11.1157794 45.6550377,11.1157794 C43.3732375,11.1157794 41.5470839,11.7579196 40.1765221,13.0422193 C38.8059603,14.326519 38.016973,16.1348448 37.8095366,18.4672511 L52.389278,18.4451081 Z M75.2619881,20.5929778 C71.9578229,20.5929778 69.6686486,20.9694048 68.3943966,21.7222702 C67.1201445,22.4751355 66.483028,23.7594159 66.483028,25.5751499 C66.483028,27.0218323 66.9608654,28.1695656 67.9165544,29.0183844 C68.8722435,29.8672031 70.1724056,30.2916061 71.8170797,30.2916061 C74.0840631,30.2916061 75.9028083,29.4907761 77.2733702,27.889092 C78.643932,26.287408 79.3292026,24.158012 79.3292026,21.5008403 L79.3292026,20.5929778 L75.2619881,20.5929778 Z M83.4186422,18.9101108 L83.4186422,33.0594795 L79.3292026,33.0594795 L79.3292026,29.2951717 C78.3957389,30.8009023 77.2326309,31.9117311 75.8398438,32.6276912 C74.4470566,33.3436514 72.7431405,33.7016261 70.7280442,33.7016261 C68.1795401,33.7016261 66.1533615,32.9893671 64.6494477,31.5648279 C63.145534,30.1402886 62.3935884,28.2323203 62.3935884,25.8408657 C62.3935884,23.0508354 63.3307422,20.9472727 65.2050781,19.5301145 C67.079414,18.1129562 69.876059,17.4043877 73.595097,17.4043877 L79.3292026,17.4043877 L79.3292026,17.005814 C79.3292026,15.1310317 78.7106069,13.6806805 77.4733971,12.654717 C76.2361872,11.6287535 74.4989336,11.1157794 72.2615841,11.1157794 C70.8391631,11.1157794 69.4538052,11.2855406 68.1054688,11.6250681 C66.7571323,11.9645956 65.4606743,12.4738792 64.216056,13.1529342 L64.216056,9.38862645 C65.7125614,8.81290592 67.1645943,8.38112199 68.5721983,8.09326172 C69.9798023,7.80540145 71.3503435,7.66147347 72.6838631,7.66147347 C76.2843661,7.66147347 78.9735902,8.59146962 80.7516164,10.4514898 C82.5296425,12.31151 83.4186422,15.1310222 83.4186422,18.9101108 L83.4186422,18.9101108 Z M96.6456088,1.21786428 L96.6456088,8.25933412 L105.068966,8.25933412 L105.068966,11.4257812 L96.6456088,11.4257812 L96.6456088,24.8887173 C96.6456088,26.9111202 96.9234213,28.2101625 97.4790544,28.785883 C98.0346876,29.3616035 99.1644581,29.6494595 100.8684,29.6494595 L105.068966,29.6494595 L105.068966,33.0594795 L100.8684,33.0594795 C97.7124034,33.0594795 95.5343541,32.4726962 94.3341864,31.299112 C93.1340188,30.1255278 92.533944,27.988751 92.533944,24.8887173 L92.533944,11.4257812 L89.5335399,11.4257812 L89.5335399,8.25933412 L92.533944,8.25933412 L92.533944,1.21786428 L96.6456088,1.21786428 Z M130.389413,29.3394577 L130.389413,42.4923919 L126.277748,42.4923919 L126.277748,8.25933412 L130.389413,8.25933412 L130.389413,12.0236419 C131.248792,10.5474354 132.334113,9.4513685 133.645407,8.73540834 C134.956701,8.01944818 136.523563,7.66147347 138.34604,7.66147347 C141.368684,7.66147347 143.824546,8.85718281 145.713699,11.2486374 C147.602852,13.6400919 148.547414,16.7843646 148.547414,20.6815498 C148.547414,24.578735 147.602852,27.7230077 145.713699,30.1144622 C143.824546,32.5059168 141.368684,33.7016261 138.34604,33.7016261 C136.523563,33.7016261 134.956701,33.3436514 133.645407,32.6276912 C132.334113,31.9117311 131.248792,30.8156642 130.389413,29.3394577 L130.389413,29.3394577 Z M144.302398,20.6815498 C144.302398,17.6848506 143.683802,15.334027 142.446592,13.6290084 C141.209382,11.9239899 139.50917,11.0714935 137.345905,11.0714935 C135.18264,11.0714935 133.482428,11.9239899 132.245218,13.6290084 C131.008008,15.334027 130.389413,17.6848506 130.389413,20.6815498 C130.389413,23.678249 131.008008,26.0290726 132.245218,27.7340911 C133.482428,29.4391096 135.18264,30.2916061 137.345905,30.2916061 C139.50917,30.2916061 141.209382,29.4391096 142.446592,27.7340911 C143.683802,26.0290726 144.302398,23.678249 144.302398,20.6815498 L144.302398,20.6815498 Z M155.662446,23.2722793 L155.662446,8.25933412 L159.751886,8.25933412 L159.751886,23.1172783 C159.751886,25.4644467 160.211202,27.2247965 161.129849,28.3983807 C162.048496,29.5719649 163.426446,30.1587482 165.263739,30.1587482 C167.471455,30.1587482 169.216117,29.4575606 170.497777,28.0551644 C171.779438,26.6527682 172.420259,24.7411095 172.420259,22.3201308 L172.420259,8.25933412 L176.509698,8.25933412 L176.509698,33.0594795 L172.420259,33.0594795 L172.420259,29.2508857 C171.427527,30.7566164 170.275532,31.874826 168.964238,32.6055482 C167.652943,33.3362705 166.130531,33.7016261 164.396956,33.7016261 C161.537297,33.7016261 159.366656,32.8159155 157.884968,31.0444677 C156.403279,29.2730198 155.662446,26.6823163 155.662446,23.2722793 L155.662446,23.2722793 Z M205.072064,13.0200763 C206.094429,11.1895802 207.316803,9.83887154 208.739224,8.9679097 C210.161645,8.09694786 211.835928,7.66147347 213.762123,7.66147347 C216.355078,7.66147347 218.355327,8.5656364 219.762931,10.3739894 C221.170535,12.1823423 221.874327,14.7545936 221.874327,18.0908203 L221.874327,33.0594795 L217.762662,33.0594795 L217.762662,18.2236782 C217.762662,15.8469858 217.340387,14.0829454 216.495824,12.9315044 C215.651262,11.7800633 214.362212,11.2043514 212.628637,11.2043514 C210.509822,11.2043514 208.83554,11.905539 207.605738,13.3079351 C206.375937,14.7103313 205.761045,16.6219901 205.761045,19.0429688 L205.761045,33.0594795 L201.64938,33.0594795 L201.64938,18.2236782 C201.64938,15.8322237 201.227106,14.0644929 200.382543,12.9204329 C199.537981,11.7763728 198.234114,11.2043514 196.470905,11.2043514 C194.381724,11.2043514 192.722258,11.9092294 191.492457,13.3190066 C190.262655,14.7287838 189.647764,16.6367521 189.647764,19.0429688 L189.647764,33.0594795 L185.536099,33.0594795 L185.536099,8.25933412 L189.647764,8.25933412 L189.647764,12.1122138 C190.581228,10.5917211 191.699886,9.46982102 193.003772,8.74647983 C194.307657,8.02313864 195.855999,7.66147347 197.648842,7.66147347 C199.456501,7.66147347 200.99373,8.11909063 202.260574,9.03433866 C203.527417,9.9495867 204.464571,11.2781526 205.072064,13.0200763 L205.072064,13.0200763 Z M234.74569,29.3394577 L234.74569,42.4923919 L230.634025,42.4923919 L230.634025,8.25933412 L234.74569,8.25933412 L234.74569,12.0236419 C235.605069,10.5474354 236.690389,9.4513685 238.001684,8.73540834 C239.312978,8.01944818 240.87984,7.66147347 242.702317,7.66147347 C245.724961,7.66147347 248.180823,8.85718281 250.069976,11.2486374 C251.959129,13.6400919 252.903691,16.7843646 252.903691,20.6815498 C252.903691,24.578735 251.959129,27.7230077 250.069976,30.1144622 C248.180823,32.5059168 245.724961,33.7016261 242.702317,33.7016261 C240.87984,33.7016261 239.312978,33.3436514 238.001684,32.6276912 C236.690389,31.9117311 235.605069,30.8156642 234.74569,29.3394577 L234.74569,29.3394577 Z M248.658675,20.6815498 C248.658675,17.6848506 248.040079,15.334027 246.802869,13.6290084 C245.565659,11.9239899 243.865447,11.0714935 241.702182,11.0714935 C239.538917,11.0714935 237.838705,11.9239899 236.601495,13.6290084 C235.364285,15.334027 234.74569,17.6848506 234.74569,20.6815498 C234.74569,23.678249 235.364285,26.0290726 236.601495,27.7340911 C237.838705,29.4391096 239.538917,30.2916061 241.702182,30.2916061 C243.865447,30.2916061 245.565659,29.4391096 246.802869,27.7340911 C248.040079,26.0290726 248.658675,23.678249 248.658675,20.6815498 L248.658675,20.6815498 Z" id="Heat-pump"></path>
                <path d="M27.0391972,53.0044059 L27.0391972,57.7208621 C25.527875,56.3184659 23.916563,55.270375 22.2052128,54.576558 C20.4938627,53.8827409 18.6751174,53.5358376 16.7489224,53.5358376 C12.9558,53.5358376 10.0517342,54.6909518 8.03663793,57.001215 C6.02154165,59.3114782 5.01400862,62.6513453 5.01400862,67.0209166 C5.01400862,71.3757258 6.02154165,74.708212 8.03663793,77.0184752 C10.0517342,79.3287384 12.9558,80.4838527 16.7489224,80.4838527 C18.6751174,80.4838527 20.4938627,80.1369493 22.2052128,79.4431323 C23.916563,78.7493152 25.527875,77.7012243 27.0391972,76.2988281 L27.0391972,80.9709984 C25.4686074,82.0338671 23.8054371,82.8310066 22.0496363,83.362441 C20.2938355,83.8938753 18.4380486,84.1595885 16.4822198,84.1595885 C11.459296,84.1595885 7.50324721,82.6280472 4.61395474,79.5649187 C1.72466228,76.5017902 0.280037716,72.320498 0.280037716,67.0209166 C0.280037716,61.7065732 1.72466228,57.5179 4.61395474,54.4547715 C7.50324721,51.391643 11.459296,49.8601017 16.4822198,49.8601017 C18.4676823,49.8601017 20.3382859,50.1221245 22.0940867,50.6461778 C23.8498876,51.1702311 25.4982412,51.9562993 27.0391972,53.0044059 L27.0391972,53.0044059 Z M44.2000269,61.5737418 C42.007128,61.5737418 40.2735786,62.4262383 38.9993265,64.1312568 C37.7250744,65.8362753 37.087958,68.1723371 37.087958,71.1395122 C37.087958,74.1066873 37.7213703,76.442749 38.9882139,78.1477675 C40.2550575,79.8527861 41.9923112,80.7052825 44.2000269,80.7052825 C46.378109,80.7052825 48.1042501,79.8490956 49.3785022,78.136696 C50.6527542,76.4242965 51.2898707,74.0919252 51.2898707,71.1395122 C51.2898707,68.2018612 50.6527542,65.8731804 49.3785022,64.1533998 C48.1042501,62.4336192 46.378109,61.5737418 44.2000269,61.5737418 L44.2000269,61.5737418 Z M44.2000269,58.1194359 C47.7560792,58.1194359 50.54902,59.2708597 52.5789332,61.5737418 C54.6088464,63.876624 55.6237877,67.0651822 55.6237877,71.1395122 C55.6237877,75.1990801 54.6088464,78.3839478 52.5789332,80.694211 C50.54902,83.0044742 47.7560792,84.1595885 44.2000269,84.1595885 C40.6291578,84.1595885 37.8325128,83.0044742 35.8100081,80.694211 C33.7875034,78.3839478 32.7762662,75.1990801 32.7762662,71.1395122 C32.7762662,67.0651822 33.7875034,63.876624 35.8100081,61.5737418 C37.8325128,59.2708597 40.6291578,58.1194359 44.2000269,58.1194359 L44.2000269,58.1194359 Z M83.8527748,68.5487827 L83.8527748,83.5174419 L79.7633351,83.5174419 L79.7633351,68.6816406 C79.7633351,66.3344723 79.3040186,64.5778129 78.3853718,63.4116097 C77.4667249,62.2454066 76.0887754,61.6623138 74.2514817,61.6623138 C72.0437659,61.6623138 70.3028081,62.3635013 69.028556,63.7658975 C67.754304,65.1682937 67.1171875,67.0799525 67.1171875,69.5009311 L67.1171875,83.5174419 L63.0055226,83.5174419 L63.0055226,58.7172965 L67.1171875,58.7172965 L67.1171875,62.5701762 C68.0951019,61.0792077 69.2470974,59.9646885 70.5732085,59.2265852 C71.8993197,58.488482 73.42914,58.1194359 75.1627155,58.1194359 C78.0223742,58.1194359 80.1856069,59.001456 81.6524784,60.7655228 C83.11935,62.5295896 83.8527748,65.1239836 83.8527748,68.5487827 L83.8527748,68.5487827 Z M96.8130388,51.6758267 L96.8130388,58.7172965 L105.236395,58.7172965 L105.236395,61.8837436 L96.8130388,61.8837436 L96.8130388,75.3466797 C96.8130388,77.3690826 97.0908512,78.6681248 97.6464844,79.2438454 C98.2021175,79.8195659 99.331888,80.1074219 101.03583,80.1074219 L105.236395,80.1074219 L105.236395,83.5174419 L101.03583,83.5174419 C97.8798334,83.5174419 95.701784,82.9306586 94.5016164,81.7570744 C93.3014487,80.5834902 92.7013739,78.4467134 92.7013739,75.3466797 L92.7013739,61.8837436 L89.7009698,61.8837436 L89.7009698,58.7172965 L92.7013739,58.7172965 L92.7013739,51.6758267 L96.8130388,51.6758267 Z M125.797683,62.5258903 C125.33836,62.2601731 124.838297,62.0645787 124.297481,61.9391011 C123.756665,61.8136236 123.160294,61.7508857 122.508351,61.7508857 C120.196917,61.7508857 118.422622,62.5000493 117.185412,63.9983989 C115.948202,65.4967485 115.329607,67.6482872 115.329607,70.4530796 L115.329607,83.5174419 L111.217942,83.5174419 L111.217942,58.7172965 L115.329607,58.7172965 L115.329607,62.5701762 C116.188986,61.0644456 117.307644,59.9462359 118.685614,59.2155137 C120.063584,58.4847915 121.737867,58.1194359 123.708513,58.1194359 C123.990034,58.1194359 124.301184,58.1378882 124.641972,58.1747933 C124.98276,58.2116985 125.360585,58.2670554 125.775458,58.3408657 L125.797683,62.5258903 Z M139.491379,61.5737418 C137.29848,61.5737418 135.564931,62.4262383 134.290679,64.1312568 C133.016427,65.8362753 132.37931,68.1723371 132.37931,71.1395122 C132.37931,74.1066873 133.012723,76.442749 134.279566,78.1477675 C135.54641,79.8527861 137.283664,80.7052825 139.491379,80.7052825 C141.669461,80.7052825 143.395602,79.8490956 144.669855,78.136696 C145.944107,76.4242965 146.581223,74.0919252 146.581223,71.1395122 C146.581223,68.2018612 145.944107,65.8731804 144.669855,64.1533998 C143.395602,62.4336192 141.669461,61.5737418 139.491379,61.5737418 L139.491379,61.5737418 Z M139.491379,58.1194359 C143.047432,58.1194359 145.840372,59.2708597 147.870286,61.5737418 C149.900199,63.876624 150.91514,67.0651822 150.91514,71.1395122 C150.91514,75.1990801 149.900199,78.3839478 147.870286,80.694211 C145.840372,83.0044742 143.047432,84.1595885 139.491379,84.1595885 C135.92051,84.1595885 133.123865,83.0044742 131.10136,80.694211 C129.078856,78.3839478 128.067619,75.1990801 128.067619,71.1395122 C128.067619,67.0651822 129.078856,63.876624 131.10136,61.5737418 C133.123865,59.2708597 135.92051,58.1194359 139.491379,58.1194359 L139.491379,58.1194359 Z M158.452452,49.0629542 L162.541891,49.0629542 L162.541891,83.5174419 L158.452452,83.5174419 L158.452452,49.0629542 Z M171.85722,49.0629542 L175.946659,49.0629542 L175.946659,83.5174419 L171.85722,83.5174419 L171.85722,49.0629542 Z M206.553745,70.0987918 L206.553745,72.0916606 L187.751212,72.0916606 C187.929015,74.896453 188.777269,77.0332298 190.295999,78.5020553 C191.81473,79.9708808 193.929809,80.7052825 196.641298,80.7052825 C198.211888,80.7052825 199.7343,80.5133786 201.20858,80.1295649 C202.68286,79.7457512 204.146006,79.1700393 205.59806,78.4024119 L205.59806,82.2552916 C204.131189,82.8752983 202.627298,83.3476773 201.086342,83.6724428 C199.545386,83.9972082 197.982228,84.1595885 196.396821,84.1595885 C192.425896,84.1595885 189.28106,83.0081647 186.962217,80.7052825 C184.643375,78.4024004 183.483971,75.2876514 183.483971,71.360942 C183.483971,67.3013741 184.584108,64.0796018 186.784415,61.6955283 C188.984723,59.3114547 191.951759,58.1194359 195.685614,58.1194359 C199.03423,58.1194359 201.682708,59.19336 203.631129,61.3412405 C205.579549,63.4891209 206.553745,66.4082755 206.553745,70.0987918 L206.553745,70.0987918 Z M202.464305,68.9030705 C202.434671,66.6739987 201.808667,64.8951965 200.586274,63.5666106 C199.363881,62.2380248 197.745161,61.5737418 195.730065,61.5737418 C193.448264,61.5737418 191.622111,62.215882 190.251549,63.5001817 C188.880987,64.7844813 188.092,66.5928072 187.884564,68.9252135 L202.464305,68.9030705 Z M228.448545,62.5258903 C227.989222,62.2601731 227.489159,62.0645787 226.948343,61.9391011 C226.407527,61.8136236 225.811156,61.7508857 225.159213,61.7508857 C222.847779,61.7508857 221.073484,62.5000493 219.836274,63.9983989 C218.599064,65.4967485 217.980469,67.6482872 217.980469,70.4530796 L217.980469,83.5174419 L213.868804,83.5174419 L213.868804,58.7172965 L217.980469,58.7172965 L217.980469,62.5701762 C218.839848,61.0644456 219.958506,59.9462359 221.336476,59.2155137 C222.714447,58.4847915 224.388729,58.1194359 226.359375,58.1194359 C226.640896,58.1194359 226.952046,58.1378882 227.292834,58.1747933 C227.633622,58.2116985 228.011447,58.2670554 228.42632,58.3408657 L228.448545,62.5258903 Z" id="Controller"></path>
            </g>
        </g>
    </g>
</svg>